<?xml version="1.0" encoding="UTF-8"?>
<svg width="34px" height="34px" viewBox="0 0 34 34" version="1.1" xmlns="http://www.w3.org/2000/svg" xmlns:xlink="http://www.w3.org/1999/xlink">
    <g id="页面-1" stroke="none" stroke-width="1" fill="none" fill-rule="evenodd">
        <g id="分组样式" transform="translate(-678.000000, -44.000000)">
            <g id="删除备份" transform="translate(678.000000, 44.000000)">
                <path d="M17,2 C25.2842712,2 32,8.71572875 32,17 C32,25.2842712 25.2842712,32 17,32 C8.71572875,32 2,25.2842712 2,17 C2,8.71572875 8.71572875,2 17,2 Z M17,3 C9.2680135,3 3,9.2680135 3,17 C3,24.7319865 9.2680135,31 17,31 C24.7319865,31 31,24.7319865 31,17 C31,9.2680135 24.7319865,3 17,3 Z" id="椭圆形备份" fill="#E5E5E5" fill-rule="nonzero"></path>
                <g id="编组-15" transform="translate(9.000000, 9.000000)">
                    <rect id="矩形" stroke="#979797" fill="#D8D8D8" opacity="0" x="0.5" y="0.5" width="15" height="15"></rect>
                    <g id="编组-14" transform="translate(2.000000, 2.000000)" fill="#595959" fill-rule="nonzero">
                        <path d="M7.60314225,0.232850109 C7.89563949,-0.0493924474 8.3533499,-0.0750508616 8.67588589,0.155874866 L8.76829107,0.232850109 L11.6069223,2.97196159 C12.1310259,3.47769054 12.1310259,4.29763919 11.6069223,4.80336815 C11.3911937,5.01153353 11.1095832,5.14151095 10.8093806,5.17439908 L10.6579489,5.18266487 L0.823884635,5.18266487 C0.368865715,5.18266487 0,4.82673124 0,4.38766487 C0,3.98237283 0.314299781,3.6479158 0.720538297,3.59885905 L0.823884635,3.59266487 L9.9199876,3.59245511 L7.60314225,1.35714989 C7.31064501,1.07490733 7.28405435,0.633243831 7.52337028,0.322015648 L7.60314225,0.232850109 Z" id="路径-4"></path>
                        <path d="M7.60314225,7.23551498 C7.89563949,6.95327242 8.3533499,6.92761401 8.67588589,7.15853973 L8.76829107,7.23551498 L11.6069223,9.97462645 C12.1310259,10.4803554 12.1310259,11.3003041 11.6069223,11.806033 C11.3911937,12.0141984 11.1095832,12.1441758 10.8093806,12.1770639 L10.6579489,12.1853297 L0.823884635,12.1853297 C0.368865715,12.1853297 0,11.8293961 0,11.3903297 C0,10.9850377 0.314299781,10.6505807 0.720538297,10.6015239 L0.823884635,10.5953297 L9.9199876,10.59512 L7.60314225,8.35981476 C7.31064501,8.0775722 7.28405435,7.6359087 7.52337028,7.32468052 L7.60314225,7.23551498 Z" id="路径-4备份" transform="translate(6.000000, 9.593997) scale(-1, -1) translate(-6.000000, -9.593997) "></path>
                    </g>
                </g>
            </g>
        </g>
    </g>
</svg>