<?xml version="1.0" standalone="no"?><!DOCTYPE svg PUBLIC "-//W3C//DTD SVG 1.1//EN" "http://www.w3.org/Graphics/SVG/1.1/DTD/svg11.dtd"><svg t="1624276529797" class="icon" viewBox="0 0 1024 1024" version="1.1" xmlns="http://www.w3.org/2000/svg" p-id="3438" xmlns:xlink="http://www.w3.org/1999/xlink" width="200" height="200"><defs><style type="text/css"></style></defs><path d="M832 16a112 112 0 0 1 111.616 102.784L944 128v576a112 112 0 0 1-102.784 111.616L832 816h-80V896a112 112 0 0 1-102.784 111.616L640 1008H192a112 112 0 0 1-111.616-102.784L80 896V320a112 112 0 0 1 102.784-111.616L192 208h80V128A112 112 0 0 1 374.784 16.384L384 16h448z m-192 288H192a16 16 0 0 0-15.552 12.352L176 320v576a16 16 0 0 0 12.352 15.552L192 912h448a16 16 0 0 0 15.552-12.352L656 896V320a16 16 0 0 0-12.352-15.552L640 304z m192-192H384a16 16 0 0 0-15.552 12.352L368 128v80H640a112 112 0 0 1 111.616 102.784L752 320v400H832a16 16 0 0 0 15.552-12.352L848 704V128a16 16 0 0 0-12.352-15.552L832 112zM473.6 640a38.4 38.4 0 0 1 0 76.8H294.4a38.4 38.4 0 0 1 0-76.8h179.2z m64-160a38.4 38.4 0 1 1 0 76.8H294.4a38.4 38.4 0 1 1 0-76.8h243.2z" p-id="3439"></path></svg>