<?xml version="1.0" encoding="UTF-8"?>
<svg width="16px" height="16px" viewBox="0 0 16 16" version="1.1" xmlns="http://www.w3.org/2000/svg" xmlns:xlink="http://www.w3.org/1999/xlink">
    <title>矩形</title>
    <g id="公众号列表" stroke="none" stroke-width="1" fill="none" fill-rule="evenodd">
        <g id="公众号列表-展开" transform="translate(-1312.000000, -544.000000)" fill-rule="nonzero">
            <g id="导出-进入-出口" transform="translate(1312.000000, 544.000000)">
                <rect id="矩形" fill="#000000" opacity="0" x="0" y="0" width="15.7994214" height="15.7994214"></rect>
                <path d="M11.0912787,10.2696239 C11.5257628,10.2696239 11.8812498,10.6251109 11.8812498,11.059595 L11.8812498,13.4295082 C11.8812498,14.7329605 10.8147888,15.7994214 9.51133655,15.7994214 L2.5614812,15.7994214 C1.25802893,15.7994214 0.191567985,14.7329605 0.191567985,13.4295082 L0.191567985,2.36991321 C0.191567985,1.06646095 1.25802893,0 2.5614812,0 L9.51133655,0 C10.8147888,0 11.8812498,1.06646095 11.8812498,2.36991321 L11.8812498,4.73982642 C11.8812498,5.17431051 11.5257628,5.52979749 11.0912787,5.52979749 C10.6567946,5.52979749 10.3013076,5.17431051 10.3013076,4.73982642 L10.3013076,2.36991321 C10.3013076,1.93542912 9.94582064,1.57994214 9.51133655,1.57994214 L2.5614812,1.57994214 C2.12699711,1.57994214 1.77151013,1.93542912 1.77151013,2.36991321 L1.77151013,13.4295082 C1.77151013,13.8639923 2.12699711,14.2194793 2.5614812,14.2194793 L9.51133655,14.2194793 C9.94582064,14.2194793 10.3013076,13.8639923 10.3013076,13.4295082 L10.3013076,11.059595 C10.3013076,10.6251109 10.6567946,10.2696239 11.0912787,10.2696239 Z M3.5143838,8.37369335 C3.54400771,8.40331726 3.56375699,8.43294118 3.57363163,8.44281581 L6.73351591,11.6027001 C6.89151013,11.7508197 7.08900289,11.8298168 7.2963703,11.8298168 C7.5037377,11.8298168 7.70123047,11.7606943 7.85922469,11.6027001 C8.16533848,11.2965863 8.16533848,10.7929797 7.85922469,10.486866 L6.05216586,8.67980714 L15.2059556,8.67980714 C15.6404397,8.67980714 15.9959267,8.32432015 15.9959267,7.88983607 C15.9959267,7.45535198 15.6404397,7.099865 15.2059556,7.099865 L6.04229122,7.099865 L7.84935005,5.29280617 C8.15546384,4.98669238 8.15546384,4.48308582 7.84935005,4.17697203 C7.54323626,3.87085824 7.0396297,3.87085824 6.73351591,4.17697203 L3.57363163,7.33685632 C3.53413308,7.36648023 3.50450916,7.41585342 3.47488525,7.45535198 L3.44526133,7.51459981 C3.43538669,7.54422372 3.41563742,7.563973 3.40576278,7.59359691 C3.39588814,7.62322083 3.39588814,7.64297011 3.3860135,7.67259402 C3.37613886,7.70221794 3.36626422,7.72196721 3.36626422,7.74171649 C3.34651495,7.84046287 3.34651495,7.9490839 3.36626422,8.04783028 C3.36626422,8.07745419 3.37613886,8.09720347 3.3860135,8.11695275 C3.39588814,8.14657666 3.40576278,8.16632594 3.41563742,8.19594986 C3.42551205,8.22557377 3.44526133,8.24532305 3.45513597,8.27494696 L3.48475988,8.33419479 L3.48475988,8.34406943 L3.5143838,8.37369335 L3.5143838,8.37369335 Z" id="形状" fill="#2172FF" transform="translate(8.093747, 7.899711) scale(-1, 1) translate(-8.093747, -7.899711) "></path>
            </g>
        </g>
    </g>
</svg>