<?xml version="1.0" encoding="UTF-8"?>
<svg width="14px" height="14px" viewBox="0 0 14 14" version="1.1" xmlns="http://www.w3.org/2000/svg" xmlns:xlink="http://www.w3.org/1999/xlink">
    <g id="客户SOP" stroke="none" stroke-width="1" fill="none" fill-rule="evenodd">
        <g id="icon" transform="translate(-708.000000, -119.000000)">
            <rect fill="#FFFFFF" x="0" y="0" width="1920" height="1080"></rect>
            <g id="暂停备份-2" transform="translate(707.000000, 118.000000)">
                <g id="增加" transform="translate(0.300000, 0.000000)">
                    <rect id="矩形" fill="#000000" fill-rule="nonzero" opacity="0" x="0" y="0" width="16" height="16"></rect>
                    <path d="M7.10289781,2.96270463 L10.933453,6.53788946 C11.7409543,7.29155739 11.784595,8.55713515 11.030927,9.3646365 C10.9995654,9.39823825 10.9670547,9.4307489 10.933453,9.46211054 L7.10289781,13.0372954 C6.59820947,13.5083378 5.80722337,13.4810624 5.33618091,12.9763741 C5.12014844,12.7449107 5,12.4400917 5,12.1234763 L5,3.87652371 C5,3.18616777 5.55964406,2.62652371 6.25,2.62652371 C6.56661541,2.62652371 6.87143445,2.74667215 7.10289781,2.96270463 Z" id="矩形" fill="#2172FF"></path>
                </g>
            </g>
        </g>
    </g>
</svg>