<?xml version="1.0" encoding="UTF-8"?>
<svg width="143px" height="168px" viewBox="0 0 143 168" version="1.1" xmlns="http://www.w3.org/2000/svg" xmlns:xlink="http://www.w3.org/1999/xlink">
    <defs>
        <path d="M4,0 L138.153846,0 C140.362985,-4.05812251e-16 142.153846,1.790861 142.153846,4 L142.153846,164 C142.153846,166.209139 140.362985,168 138.153846,168 L4,168 C1.790861,168 2.705415e-16,166.209139 0,164 L0,4 C-2.705415e-16,1.790861 1.790861,4.05812251e-16 4,0 Z" id="path-1"></path>
        <path d="M39.4153846,33.6 C38.7016628,33.6 38.1230769,33.0214141 38.1230769,32.3076923 L38.1230769,26.2769231 L38.1281523,26.0824626 C38.2292384,24.1506541 39.8276362,22.6153846 41.7846154,22.6153846 C43.8068272,22.6153846 45.4461538,24.2547112 45.4461538,26.2769231 C47.4683657,26.2769231 49.1076923,27.9162497 49.1076923,29.9384615 C49.1076923,31.9606734 47.4683657,33.6 45.4461538,33.6 L45.4461538,33.6 L39.4153846,33.6 Z" id="path-3"></path>
        <filter x="-10.4%" y="-10.4%" width="120.9%" height="120.9%" filterUnits="objectBoundingBox" id="filter-4">
            <feOffset dx="-1" dy="1" in="SourceAlpha" result="shadowOffsetInner1"></feOffset>
            <feComposite in="shadowOffsetInner1" in2="SourceAlpha" operator="arithmetic" k2="-1" k3="1" result="shadowInnerInner1"></feComposite>
            <feColorMatrix values="0 0 0 0 1   0 0 0 0 1   0 0 0 0 1  0 0 0 1 0" type="matrix" in="shadowInnerInner1"></feColorMatrix>
        </filter>
        <path d="M30.3692308,32.9538462 C29.6555089,32.9538462 29.0769231,32.3752603 29.0769231,31.6615385 L29.0769231,23.9076923 L29.0818462,23.6947703 C29.1930264,21.2956018 31.1733458,19.3846154 33.6,19.3846154 C36.0980264,19.3846154 38.1230769,21.4096659 38.1230769,23.9076923 C40.6211033,23.9076923 42.6461538,25.9327428 42.6461538,28.4307692 C42.6461538,30.9287956 40.6211033,32.9538462 38.1230769,32.9538462 L38.1230769,32.9538462 L30.3692308,32.9538462 Z" id="path-5"></path>
        <filter x="-8.4%" y="-8.4%" width="116.9%" height="116.9%" filterUnits="objectBoundingBox" id="filter-6">
            <feOffset dx="-1" dy="1" in="SourceAlpha" result="shadowOffsetInner1"></feOffset>
            <feComposite in="shadowOffsetInner1" in2="SourceAlpha" operator="arithmetic" k2="-1" k3="1" result="shadowInnerInner1"></feComposite>
            <feColorMatrix values="0 0 0 0 1   0 0 0 0 1   0 0 0 0 1  0 0 0 1 0" type="matrix" in="shadowInnerInner1"></feColorMatrix>
        </filter>
    </defs>
    <g id="客户SOP" stroke="none" stroke-width="1" fill="none" fill-rule="evenodd">
        <g id="SOP任务创建-客户分层-新进入商机客户阶段备份-2" transform="translate(-340.000000, -612.000000)">
            <g id="编组-13" transform="translate(310.000000, 411.000000)">
                <g id="编组-13" transform="translate(30.000000, 201.000000)">
                    <g id="截屏2021-07-05-上午10.02.52">
                        <mask id="mask-2" fill="white">
                            <use xlink:href="#path-1"></use>
                        </mask>
                        <use id="蒙版" fill="#FFFFFF" xlink:href="#path-1"></use>
                    </g>
                    <g id="编组-11" transform="translate(31.661538, 44.584615)">
                        <path d="M61.1692308,65.2615385 C61.5886561,65.2615385 61.9967674,65.3975756 62.3323077,65.6492308 L62.3323077,65.6492308 L65.52,68.04 C65.7341165,68.2005874 65.8628718,68.4327599 65.897951,68.6783147 C65.9330303,68.9238695 65.8744336,69.1828065 65.7138462,69.3969231 C65.5308027,69.640981 65.243534,69.7846154 64.9384615,69.7846154 L64.9384615,69.7846154 L13.8923077,69.7846154 C13.624662,69.7846154 13.3823543,69.6761305 13.206958,69.5007343 C13.0315618,69.325338 12.9230769,69.0830303 12.9230769,68.8153846 C12.9230769,68.5103122 13.0667113,68.2230435 13.3107692,68.04 L13.3107692,68.04 L16.4984615,65.6492308 C16.8340018,65.3975756 17.2421131,65.2615385 17.6615385,65.2615385 L17.6615385,65.2615385 Z" id="矩形" stroke="#2172FF" stroke-width="1.29230769" fill="#D3E3FF"></path>
                        <ellipse id="椭圆形" fill="#F1F6FF" cx="39.4153846" cy="80.7692308" rx="32.3076923" ry="3.23076923"></ellipse>
                        <path d="M72.3692308,0.646153846 C73.9751049,0.646153846 75.428951,1.29706294 76.4813287,2.34944056 C77.5337063,3.40181819 78.1846154,4.85566434 78.1846154,6.46153846 L78.1846154,6.46153846 L78.1846154,54.2769231 C78.1846154,55.8827972 77.5337063,57.3366433 76.4813287,58.389021 C75.428951,59.4413986 73.9751049,60.0923077 72.3692308,60.0923077 L72.3692308,60.0923077 L6.46153846,60.0923077 C4.85566434,60.0923077 3.40181819,59.4413986 2.34944056,58.389021 C1.29706294,57.3366433 0.646153846,55.8827972 0.646153846,54.2769231 L0.646153846,54.2769231 L0.646153846,6.46153846 C0.646153846,4.85566434 1.29706294,3.40181819 2.34944056,2.34944056 C3.40181819,1.29706294 4.85566434,0.646153846 6.46153846,0.646153846 L6.46153846,0.646153846 Z" id="矩形" stroke="#2172FF" stroke-width="1.29230769" fill="#FFFFFF"></path>
                        <path d="M9.04615385,5.16923077 L69.7846154,5.16923077 C71.9257809,5.16923077 73.6615385,6.90498835 73.6615385,9.04615385 L73.6615385,46.5230769 C73.6615385,48.6642424 71.9257809,50.4 69.7846154,50.4 L9.04615385,50.4 C6.90498835,50.4 5.16923077,48.6642424 5.16923077,46.5230769 L5.16923077,9.04615385 C5.16923077,6.90498835 6.90498835,5.16923077 9.04615385,5.16923077 Z" id="矩形" fill="#D3E3FF"></path>
                        <rect id="矩形" stroke="#2172FF" stroke-width="1.29230769" fill="#D3E3FF" x="35.5384615" y="52.9846154" width="7.75384615" height="3.87692308" rx="1.93846154"></rect>
                        <g id="形状结合备份" stroke-linejoin="round" transform="translate(43.615385, 28.107692) rotate(-45.000000) translate(-43.615385, -28.107692) ">
                            <use fill="#24FAE6" fill-rule="evenodd" xlink:href="#path-3"></use>
                            <use fill="black" fill-opacity="1" filter="url(#filter-4)" xlink:href="#path-3"></use>
                            <use stroke="#2172FF" stroke-width="1.29230769" xlink:href="#path-3"></use>
                        </g>
                        <g id="形状结合" stroke-linejoin="round" transform="translate(35.861538, 26.169231) rotate(-45.000000) translate(-35.861538, -26.169231) ">
                            <use fill="#24FAE6" fill-rule="evenodd" xlink:href="#path-5"></use>
                            <use fill="black" fill-opacity="1" filter="url(#filter-6)" xlink:href="#path-5"></use>
                            <use stroke="#2172FF" stroke-width="1.29230769" xlink:href="#path-5"></use>
                        </g>
                        <g id="编组-10" transform="translate(60.557907, 18.721024) rotate(20.000000) translate(-60.557907, -18.721024) translate(58.057907, 16.221024)" fill="#FFFFFF">
                            <g id="编组-9" transform="translate(0.000000, 0.000000)">
                                <rect id="矩形" x="0" y="1.54270196" width="4.11387189" height="1.02846797" rx="0.514233986"></rect>
                                <rect id="矩形" transform="translate(2.056936, 2.056936) rotate(90.000000) translate(-2.056936, -2.056936) " x="0" y="1.54270196" width="4.11387189" height="1.02846797" rx="0.514233986"></rect>
                            </g>
                        </g>
                        <g id="编组-10备份" transform="translate(25.031528, 15.102141) rotate(80.000000) translate(-25.031528, -15.102141) translate(23.531528, 13.602141)" fill="#FFFFFF">
                            <g id="编组-9" transform="translate(0.000000, 0.000000)">
                                <rect id="矩形" x="0" y="0.933751287" width="2.49000343" height="1" rx="0.5"></rect>
                                <rect id="矩形" transform="translate(1.245002, 1.245002) rotate(90.000000) translate(-1.245002, -1.245002) " x="0" y="0.933751287" width="2.49000343" height="1" rx="0.5"></rect>
                            </g>
                        </g>
                        <g id="编组-10备份" transform="translate(17.517443, 19.334698) rotate(-80.000000) translate(-17.517443, -19.334698) translate(15.517443, 17.334698)" fill="#FFFFFF">
                            <g id="编组-9" transform="translate(-0.000000, 0.000000)">
                                <rect id="矩形" x="0" y="1.31096837" width="3.49591565" height="1" rx="0.5"></rect>
                                <rect id="矩形" transform="translate(1.747958, 1.747958) rotate(90.000000) translate(-1.747958, -1.747958) " x="0" y="1.31096837" width="3.49591565" height="1" rx="0.5"></rect>
                            </g>
                        </g>
                    </g>
                </g>
            </g>
        </g>
    </g>
</svg>