<?xml version="1.0" encoding="UTF-8"?>
<svg width="500px" height="271px" viewBox="0 0 500 271" version="1.1" xmlns="http://www.w3.org/2000/svg" xmlns:xlink="http://www.w3.org/1999/xlink">
    <defs>
        <linearGradient x1="49.3330794%" y1="-88.4880404%" x2="49.3330794%" y2="31.793737%" id="linearGradient-1">
            <stop stop-color="#2172FF" stop-opacity="0.3" offset="0%"></stop>
            <stop stop-color="#2172FF" stop-opacity="0" offset="100%"></stop>
        </linearGradient>
        <linearGradient x1="49.3330794%" y1="-35.1548185%" x2="49.3330794%" y2="64.9554098%" id="linearGradient-2">
            <stop stop-color="#2172FF" stop-opacity="0.304059222" offset="0%"></stop>
            <stop stop-color="#2172FF" stop-opacity="0" offset="100%"></stop>
        </linearGradient>
        <linearGradient x1="34.2433558%" y1="0%" x2="34.2433558%" y2="85.1850582%" id="linearGradient-3">
            <stop stop-color="#ADDAFF" offset="0%"></stop>
            <stop stop-color="#2172FF" offset="100%"></stop>
        </linearGradient>
        <linearGradient x1="49.3330794%" y1="-35.1548185%" x2="49.3330794%" y2="40.082231%" id="linearGradient-4">
            <stop stop-color="#2172FF" stop-opacity="0.304059222" offset="0%"></stop>
            <stop stop-color="#2172FF" stop-opacity="0" offset="100%"></stop>
        </linearGradient>
        <linearGradient x1="49.3330794%" y1="18.6515022%" x2="50%" y2="58.5814818%" id="linearGradient-5">
            <stop stop-color="#2172FF" stop-opacity="0.304059222" offset="0%"></stop>
            <stop stop-color="#2172FF" stop-opacity="0" offset="100%"></stop>
        </linearGradient>
        <linearGradient x1="50%" y1="0%" x2="50%" y2="98.8472465%" id="linearGradient-6">
            <stop stop-color="#FFFFFF" stop-opacity="0.684140079" offset="0%"></stop>
            <stop stop-color="#F0F7FF" offset="100%"></stop>
        </linearGradient>
    </defs>
    <g id="商机设置" stroke="none" stroke-width="1" fill="none" fill-rule="evenodd">
        <g id="icon" transform="translate(-65.000000, -242.000000)">
            <g id="编组-4备份-2" transform="translate(64.000000, 242.000000)">
                <g id="编组">
                    <ellipse id="椭圆形" fill="url(#linearGradient-1)" opacity="0.619708394" cx="250" cy="218.055556" rx="250" ry="52.0833333"></ellipse>
                    <path d="M357.148318,0 C371.462558,0 383.957683,7.77112135 390.62702,19.3156624 C392.707216,18.8469501 394.8721,18.5999571 397.094801,18.5999571 C409.145594,18.5999571 419.496851,25.8602418 423.994479,36.236017 C425.480404,37.8456916 426.388889,39.9973073 426.388889,42.3611111 L426.388889,59.0277778 C426.388889,64.0136818 422.347015,68.0555556 417.361111,68.0555556 L290.277778,68.0555556 C285.291874,68.0555556 281.25,64.0136818 281.25,59.0277778 L281.25,42.3611111 C281.25,39.9973073 282.158485,37.8456916 283.645343,36.2363765 C288.142038,25.8602418 298.493295,18.5999571 310.544088,18.5999571 C314.860606,18.5999571 318.959069,19.5314714 322.648566,21.2040167 C329.004429,8.62669186 342.066677,0 357.148318,0 Z" id="形状结合" fill="url(#linearGradient-2)" opacity="0.389353198"></path>
                    <path d="M268.929089,79.9988703 L286,80 C288.209139,80 290,81.790861 290,84 L290,173 C290,175.209139 288.209139,177 286,177 L214,177 C211.790861,177 210,175.209139 210,173 L210,84 C210,81.790861 211.790861,80 214,80 L231.070911,79.9988703 C230.389827,81.175819 230,82.5423851 230,84 C230,88.3349143 233.447838,91.8645429 237.750821,91.9961932 L238,92 L262,92 C266.418278,92 270,88.418278 270,84 C270,82.5423851 269.610173,81.175819 268.929089,79.9988703 Z M275,146 L225,146 C222.238576,146 220,148.238576 220,151 C220,153.688755 222.122307,155.881818 224.78311,155.99538 L225,156 L275,156 C277.761424,156 280,153.761424 280,151 C280,148.238576 277.761424,146 275,146 Z M275,124 L225,124 C222.238576,124 220,126.238576 220,129 C220,131.688755 222.122307,133.881818 224.78311,133.99538 L225,134 L275,134 C277.761424,134 280,131.761424 280,129 C280,126.238576 277.761424,124 275,124 Z M275,102 L225,102 C222.238576,102 220,104.238576 220,107 C220,109.688755 222.122307,111.881818 224.78311,111.99538 L225,112 L275,112 C277.761424,112 280,109.761424 280,107 C280,104.238576 277.761424,102 275,102 Z M259,77 C262.313708,77 265,79.6862915 265,83 C265,86.3137085 262.313708,89 259,89 L241,89 C237.686292,89 235,86.3137085 235,83 C235,79.6862915 237.686292,77 241,77 L259,77 Z" id="形状" fill="url(#linearGradient-3)" opacity="0.619731105"></path>
                    <path d="M186.888379,98.6111111 C196.202673,98.6111111 204.333296,103.699088 208.673234,111.257698 C210.027192,110.951375 211.435916,110.789654 212.882263,110.789654 C223.356411,110.789654 231.857483,119.270868 231.943782,129.766072 C231.944281,129.797792 231.944444,129.829432 231.944444,129.861111 L231.944444,134.722222 C231.944444,139.708126 227.902571,143.75 222.916667,143.75 L146.527778,143.75 C141.541874,143.75 137.5,139.708126 137.5,134.722222 L137.5,129.861111 L137.501,129.788111 L137.502952,129.587117 C137.683767,119.174627 146.147631,110.789654 156.562181,110.789654 C159.371216,110.789654 162.038338,111.399661 164.439292,112.494927 C168.574376,104.259724 177.074329,98.6111111 186.888379,98.6111111 Z" id="形状结合备份" fill="url(#linearGradient-4)" opacity="0.389353198"></path>
                    <path d="M105.547481,56.25 C117.057873,56.25 126.388889,65.6963131 126.388889,77.3489309 C126.388889,78.8469296 126.234682,80.1242381 125.941461,81.2128418 C126.231748,82.0982815 126.388889,83.0446785 126.388889,84.0277778 L126.388889,84.7222222 C126.388889,89.7081262 122.347015,93.75 117.361111,93.75 L73.6111111,93.75 C68.6252071,93.75 64.5833333,89.7081262 64.5833333,84.7222222 L64.5833333,84.0277778 C64.5833333,83.7960175 64.5920665,83.566297 64.6092218,83.3389274 C64.5923631,83.0568705 64.5833333,82.7575009 64.5833333,82.4417763 C64.5833333,73.6018594 71.6620354,66.4356908 80.3940568,66.4356908 C82.7238213,66.4356908 84.9358927,66.9458215 86.927227,67.8617659 C90.357701,60.9740377 97.4076452,56.25 105.547481,56.25 Z" id="形状结合备份-2" fill="url(#linearGradient-5)" opacity="0.389353198"></path>
                </g>
                <circle id="椭圆形" stroke="url(#linearGradient-6)" stroke-width="0.694444444" fill-opacity="0.27305507" fill="#FFFFFF" cx="277.305556" cy="152.666667" r="29.6527778"></circle>
            </g>
        </g>
    </g>
</svg>