<?xml version="1.0" standalone="no"?><!DOCTYPE svg PUBLIC "-//W3C//DTD SVG 1.1//EN" "http://www.w3.org/Graphics/SVG/1.1/DTD/svg11.dtd"><svg t="1623998894499" class="icon" viewBox="0 0 1088 1024" version="1.1" xmlns="http://www.w3.org/2000/svg" p-id="4887" xmlns:xlink="http://www.w3.org/1999/xlink" width="212.5" height="200"><defs><style type="text/css"></style></defs><path d="M920.768 512c0 161.6-118.912 307.84-356.608 438.848C326.464 819.84 207.616 673.6 207.616 512c0-9.216 0.192-18.368 0.64-27.456l-0.64-329.088 356.544-82.304 356.608 82.304V484.48c-0.256 9.088 0 18.24 0 27.456zM532.48 292.544l14.08 286.848h47.936l14.08-286.848H532.48z m37.76 317.248a41.28 41.28 0 0 0-30.4 11.84 38.208 38.208 0 0 0-12.992 30.4c0 12.416 3.968 22.528 12.992 30.4a41.6 41.6 0 0 0 30.4 12.416 45.632 45.632 0 0 0 31.552-11.84 42.816 42.816 0 0 0 12.416-30.976 41.6 41.6 0 0 0-12.416-30.4 44.8 44.8 0 0 0-31.552-11.84z" p-id="4888"></path></svg>