<?xml version="1.0" encoding="UTF-8"?>
<svg width="30px" height="30px" viewBox="0 0 30 30" version="1.1" xmlns="http://www.w3.org/2000/svg" xmlns:xlink="http://www.w3.org/1999/xlink">
    <g id="页面-1" stroke="none" stroke-width="1" fill="none" fill-rule="evenodd">
        <g id="登录备份" transform="translate(-1053.000000, -457.000000)" fill="#606266" fill-rule="nonzero">
            <g id="密码" transform="translate(1053.000000, 457.000000)">
                <path d="M15,2 C18.7854517,2 21.8690987,5.00478338 21.995941,8.75935025 L22,9 L22.0011864,10.1002591 C24.2828356,10.5639878 26,12.5814613 26,15 L26,15 L26,23 C26,25.7614237 23.7614237,28 21,28 L21,28 L9,28 C6.23857625,28 4,25.7614237 4,23 L4,23 L4,15 C4,12.5811085 5.71766536,10.5633992 7.99981203,10.1000563 L8,9 C8,5.13400675 11.1340068,2 15,2 Z M21,12 L9,12 C7.34314575,12 6,13.3431458 6,15 L6,15 L6,23 C6,24.6568542 7.34314575,26 9,26 L9,26 L21,26 C22.6568542,26 24,24.6568542 24,23 L24,23 L24,15 C24,13.3431458 22.6568542,12 21,12 L21,12 Z M15,4 C12.3112453,4 10.1181819,6.12230671 10.0046195,8.78311038 L10,9 L10,10 L20,10 L20,9 C20,6.23857625 17.7614237,4 15,4 Z" id="形状结合"></path>
            </g>
        </g>
    </g>
</svg>