<?xml version="1.0" encoding="UTF-8"?>
<svg width="220px" height="260px" viewBox="0 0 220 260" version="1.1" xmlns="http://www.w3.org/2000/svg" xmlns:xlink="http://www.w3.org/1999/xlink">
    <defs>
        <path d="M10,0 L114,0 C119.522847,-1.01453063e-15 124,4.4771525 124,10 L124,78 L124,78 L100,98 L10,98 C4.4771525,98 6.76353751e-16,93.5228475 0,88 L0,10 C-6.76353751e-16,4.4771525 4.4771525,1.01453063e-15 10,0 Z" id="path-1"></path>
        <path d="M97,54 C106.388841,54 114,46.3888407 114,37 C114,27.6111593 106.388841,20 97,20 C87.6111593,20 80,27.6111593 80,37 C80,41.1859823 81.5129398,45.0185986 84.0218274,47.9808569 C84.6979336,48.7791394 83.984601,50.214822 81.8818296,52.2879046 C81.4885613,52.6756492 81.48406,53.3087852 81.87179,53.7020679 C82.0597147,53.8926839 82.3162159,54 82.5838914,54 C90.3399791,54 95.1453487,54 97,54 Z" id="path-3"></path>
        <filter x="-5.9%" y="-5.9%" width="111.8%" height="111.8%" filterUnits="objectBoundingBox" id="filter-4">
            <feOffset dx="0" dy="4" in="SourceAlpha" result="shadowOffsetInner1"></feOffset>
            <feComposite in="shadowOffsetInner1" in2="SourceAlpha" operator="arithmetic" k2="-1" k3="1" result="shadowInnerInner1"></feComposite>
            <feColorMatrix values="0 0 0 0 1   0 0 0 0 1   0 0 0 0 1  0 0 0 1 0" type="matrix" in="shadowInnerInner1"></feColorMatrix>
        </filter>
    </defs>
    <g id="客户SOP" stroke="none" stroke-width="1" fill="none" fill-rule="evenodd">
        <g id="icon" transform="translate(-357.000000, -397.000000)">
            <g id="新进入商机阶段客户" transform="translate(357.000000, 397.000000)">
                <g id="编组-12" transform="translate(47.000000, 66.000000)">
                    <g id="编组-10" transform="translate(1.000000, 8.000000)">
                        <g id="矩形" transform="translate(0.000000, 5.000000)">
                            <mask id="mask-2" fill="white">
                                <use xlink:href="#path-1"></use>
                            </mask>
                            <path stroke="#2172FF" stroke-width="2" d="M114,1 C116.485281,1 118.735281,2.00735931 120.363961,3.63603897 C121.992641,5.26471863 123,7.51471863 123,10 L123,10 L123,77.5316251 L99.6379501,97 L10,97 C7.51471863,97 5.26471863,95.9926407 3.63603897,94.363961 C2.00735931,92.7352814 1,90.4852814 1,88 L1,88 L1,10 C1,7.51471863 2.00735931,5.26471863 3.63603897,3.63603897 C5.26471863,2.00735931 7.51471863,1 10,1 L10,1 Z"></path>
                            <path d="M99,96 L99,87 C99,81.4771525 103.477153,77 109,77 L122,77" id="路径" stroke="#2172FF" stroke-width="2" fill="#D3E3FF" mask="url(#mask-2)"></path>
                        </g>
                        <path d="M114,6 C116.485281,6 118.735281,7.00735931 120.363961,8.63603897 C121.992641,10.2647186 123,12.5147186 123,15 L123,15 L123,30 L1,30 L1,15 C1,12.5147186 2.00735931,10.2647186 3.63603897,8.63603897 C5.26471863,7.00735931 7.51471863,6 10,6 L10,6 Z" id="矩形" stroke="#2172FF" stroke-width="2" fill="#D3E3FF"></path>
                        <rect id="矩形" stroke="#2172FF" stroke-width="2" fill="#FFFFFF" x="25" y="1" width="6" height="12" rx="3"></rect>
                        <rect id="矩形备份-5" stroke="#2172FF" stroke-width="2" fill="#FFFFFF" x="93" y="1" width="6" height="12" rx="3"></rect>
                        <path d="M25,44 L99,44 C100.656854,44 102,45.3431458 102,47 L102,51 C102,52.6568542 100.656854,54 99,54 L25,54 C23.3431458,54 22,52.6568542 22,51 L22,47 C22,45.3431458 23.3431458,44 25,44 Z" id="矩形备份-7" fill="#D3E3FF"></path>
                        <g id="椭圆形">
                            <use fill="#24FAE6" fill-rule="evenodd" xlink:href="#path-3"></use>
                            <use fill="black" fill-opacity="1" filter="url(#filter-4)" xlink:href="#path-3"></use>
                            <path stroke="#2172FF" stroke-width="2" d="M97,21 C101.418278,21 105.418278,22.790861 108.313708,25.6862915 C111.209139,28.581722 113,32.581722 113,37 C113,41.418278 111.209139,45.418278 108.313708,48.3137085 C105.418278,51.209139 101.418278,53 97,53 L97,53 L82.5839025,53.0000292 L82.8434475,52.7401746 C83.8536544,51.7126786 84.5282674,50.8282378 84.8894569,50.101293 C85.1475242,49.581896 85.2615522,49.1175841 85.2682484,48.7157429 C85.277236,48.1763952 85.1099242,47.7183021 84.7849136,47.3345603 C82.4236908,44.5466506 81,40.9395595 81,37 C81,32.581722 82.790861,28.581722 85.6862915,25.6862915 C88.581722,22.790861 92.581722,21 97,21 L97,21 Z" stroke-linejoin="square"></path>
                        </g>
                        <polyline id="路径" stroke="#FFFFFF" stroke-width="4" stroke-linecap="round" stroke-linejoin="round" transform="translate(97.000000, 35.000000) rotate(-45.000000) translate(-97.000000, -35.000000) " points="103 39 91 39 91 31"></polyline>
                        <path d="M25,60 L99,60 C100.656854,60 102,61.3431458 102,63 L102,67 C102,68.6568542 100.656854,70 99,70 L25,70 C23.3431458,70 22,68.6568542 22,67 L22,63 C22,61.3431458 23.3431458,60 25,60 Z" id="矩形" fill="#D3E3FF"></path>
                        <path d="M25,76 L67,76 C68.6568542,76 70,77.3431458 70,79 L70,83 C70,84.6568542 68.6568542,86 67,86 L25,86 C23.3431458,86 22,84.6568542 22,83 L22,79 C22,77.3431458 23.3431458,76 25,76 Z" id="矩形备份-6" fill="#D3E3FF"></path>
                    </g>
                    <ellipse id="椭圆形" fill="#F1F6FF" cx="63" cy="129" rx="55" ry="5"></ellipse>
                    <g id="编组-11" transform="translate(9.098750, 5.628713) rotate(-10.000000) translate(-9.098750, -5.628713) translate(1.098750, 2.128713)" fill="#2172FF">
                        <rect id="矩形" transform="translate(9.085196, 2.998654) rotate(77.000000) translate(-9.085196, -2.998654) " x="6.29033207" y="1.92493823" width="5.589727" height="2.14743167" rx="1.07371583"></rect>
                        <rect id="矩形" transform="translate(14.552696, 3.447200) rotate(90.000000) translate(-14.552696, -3.447200) " x="11.7578322" y="2.37348458" width="5.589727" height="2.14743167" rx="1.07371583"></rect>
                        <rect id="矩形" transform="translate(3.584297, 4.059551) rotate(50.000000) translate(-3.584297, -4.059551) " x="0.789433868" y="2.98583469" width="5.589727" height="2.14743167" rx="1.07371583"></rect>
                    </g>
                </g>
            </g>
        </g>
    </g>
</svg>