<?xml version="1.0" encoding="UTF-8"?>
<svg width="220px" height="260px" viewBox="0 0 220 260" version="1.1" xmlns="http://www.w3.org/2000/svg" xmlns:xlink="http://www.w3.org/1999/xlink">
    <defs>
        <circle id="path-1" cx="20" cy="66" r="8"></circle>
        <filter x="-12.5%" y="-12.5%" width="125.0%" height="125.0%" filterUnits="objectBoundingBox" id="filter-2">
            <feOffset dx="0" dy="4" in="SourceAlpha" result="shadowOffsetInner1"></feOffset>
            <feComposite in="shadowOffsetInner1" in2="SourceAlpha" operator="arithmetic" k2="-1" k3="1" result="shadowInnerInner1"></feComposite>
            <feColorMatrix values="0 0 0 0 1   0 0 0 0 1   0 0 0 0 1  0 0 0 1 0" type="matrix" in="shadowInnerInner1"></feColorMatrix>
        </filter>
        <circle id="path-3" cx="50" cy="24" r="24"></circle>
        <filter x="-4.2%" y="-4.2%" width="108.3%" height="108.3%" filterUnits="objectBoundingBox" id="filter-4">
            <feOffset dx="0" dy="-4" in="SourceAlpha" result="shadowOffsetInner1"></feOffset>
            <feComposite in="shadowOffsetInner1" in2="SourceAlpha" operator="arithmetic" k2="-1" k3="1" result="shadowInnerInner1"></feComposite>
            <feColorMatrix values="0 0 0 0 0.637172494   0 0 0 0 0.767921145   0 0 0 0 1  0 0 0 1 0" type="matrix" in="shadowInnerInner1" result="shadowMatrixInner1"></feColorMatrix>
            <feOffset dx="0" dy="4" in="SourceAlpha" result="shadowOffsetInner2"></feOffset>
            <feComposite in="shadowOffsetInner2" in2="SourceAlpha" operator="arithmetic" k2="-1" k3="1" result="shadowInnerInner2"></feComposite>
            <feColorMatrix values="0 0 0 0 1   0 0 0 0 1   0 0 0 0 1  0 0 0 1 0" type="matrix" in="shadowInnerInner2" result="shadowMatrixInner2"></feColorMatrix>
            <feMerge>
                <feMergeNode in="shadowMatrixInner1"></feMergeNode>
                <feMergeNode in="shadowMatrixInner2"></feMergeNode>
            </feMerge>
        </filter>
    </defs>
    <g id="客户SOP" stroke="none" stroke-width="1" fill="none" fill-rule="evenodd">
        <g id="icon" transform="translate(-67.000000, -397.000000)">
            <g id="新添加客户" transform="translate(67.000000, 397.000000)">
                <g id="编组-12" transform="translate(60.000000, 47.000000)">
                    <g id="编组-10" transform="translate(0.000000, 8.000000)">
                        <path d="M90,17 C92.4852814,17 94.7352814,18.0073593 96.363961,19.636039 C97.9926407,21.2647186 99,23.5147186 99,26 L99,26 L99,126 C99,128.485281 97.9926407,130.735281 96.363961,132.363961 C94.7352814,133.992641 92.4852814,135 90,135 L90,135 L10,135 C7.51471863,135 5.26471863,133.992641 3.63603897,132.363961 C2.00735931,130.735281 1,128.485281 1,126 L1,126 L1,26 C1,23.5147186 2.00735931,21.2647186 3.63603897,19.636039 C5.26471863,18.0073593 7.51471863,17 10,17 L10,17 Z" id="矩形" stroke="#2172FF" stroke-width="2" fill="#FFFFFF"></path>
                        <g id="椭圆形">
                            <use fill="#24FAE6" fill-rule="evenodd" xlink:href="#path-1"></use>
                            <use fill="black" fill-opacity="1" filter="url(#filter-2)" xlink:href="#path-1"></use>
                            <circle stroke="#2172FF" stroke-width="2" stroke-linejoin="square" cx="20" cy="66" r="7"></circle>
                        </g>
                        <rect id="矩形备份-5" fill="#D3E3FF" x="12" y="90" width="45" height="12" rx="3"></rect>
                        <text id="NEW" font-family="PingFangSC-Semibold, PingFang SC" font-size="14" font-weight="500" fill="#2172FF">
                            <tspan x="34" y="71">NEW</tspan>
                        </text>
                        <rect id="矩形备份-6" fill="#D3E3FF" x="12" y="108" width="76" height="12" rx="3"></rect>
                        <g id="椭圆形">
                            <use fill="#D3E3FF" fill-rule="evenodd" xlink:href="#path-3"></use>
                            <use fill="black" fill-opacity="1" filter="url(#filter-4)" xlink:href="#path-3"></use>
                            <circle stroke="#2172FF" stroke-width="2" stroke-linejoin="square" cx="50" cy="24" r="23"></circle>
                        </g>
                        <ellipse id="椭圆形" fill="#B6D0FF" cx="61" cy="23.5" rx="4" ry="3.5"></ellipse>
                        <ellipse id="椭圆形备份-2" fill="#B6D0FF" cx="39" cy="23.5" rx="4" ry="3.5"></ellipse>
                        <g id="编组-9" transform="translate(40.000000, 18.000000)">
                            <circle id="椭圆形" fill="#2172FF" cx="2" cy="2" r="2"></circle>
                            <circle id="椭圆形备份" fill="#2172FF" cx="18" cy="2" r="2"></circle>
                            <path d="M7.00008863,7.50165558 C7.59920999,8.69724756 8.71834257,9.50153304 10.0000579,9.50153304 C11.2818171,9.50153304 12.4009823,8.69719261 13.0000886,7.50153304" id="路径" stroke="#2172FF" stroke-width="2" stroke-linecap="round"></path>
                        </g>
                    </g>
                    <ellipse id="椭圆形" fill="#F1F6FF" cx="50" cy="161" rx="38" ry="5"></ellipse>
                    <g id="编组-11" transform="translate(9.500000, 11.500000) rotate(-10.000000) translate(-9.500000, -11.500000) translate(5.000000, 7.000000)" fill="#2172FF">
                        <rect id="矩形" x="0" y="3.57905278" width="8.58972667" height="2.14743167" rx="1.07371583"></rect>
                        <rect id="矩形" transform="translate(4.294863, 4.652769) rotate(90.000000) translate(-4.294863, -4.652769) " x="0" y="3.57905278" width="8.58972667" height="2.14743167" rx="1.07371583"></rect>
                    </g>
                    <g id="编组-11备份" transform="translate(88.000000, 10.000000) rotate(20.000000) translate(-88.000000, -10.000000) translate(84.000000, 6.000000)" fill="#2172FF">
                        <rect id="矩形" x="0" y="3.11855053" width="7.48452127" height="1.87113032" rx="0.935565158"></rect>
                        <rect id="矩形" transform="translate(3.742261, 4.054116) rotate(90.000000) translate(-3.742261, -4.054116) " x="0" y="3.11855053" width="7.48452127" height="1.87113032" rx="0.935565158"></rect>
                    </g>
                    <g id="编组-11备份-2" transform="translate(24.000000, 0.000000)" fill="#90B8FF">
                        <rect id="矩形" x="0" y="2.5" width="6" height="1.5" rx="0.75"></rect>
                        <rect id="矩形" transform="translate(3.000000, 3.250000) rotate(90.000000) translate(-3.000000, -3.250000) " x="0" y="2.5" width="6" height="1.5" rx="0.75"></rect>
                    </g>
                </g>
            </g>
        </g>
    </g>
</svg>