<?xml version="1.0" encoding="UTF-8"?>
<svg width="34px" height="34px" viewBox="0 0 34 34" version="1.1" xmlns="http://www.w3.org/2000/svg" xmlns:xlink="http://www.w3.org/1999/xlink">
    <title>删除</title>
    <g id="素材管理" stroke="none" stroke-width="1" fill="none" fill-rule="evenodd">
        <g id="素材管理-语音" transform="translate(-1786.000000, -390.000000)">
            <g id="编组" transform="translate(659.000000, 276.000000)">
                <g id="编组-8" transform="translate(0.000000, 102.000000)">
                    <g id="删除" transform="translate(1127.000000, 12.000000)">
                        <circle id="椭圆形备份" stroke="#E5E5E5" fill="#FFFFFF" cx="17" cy="17" r="14.5"></circle>
                        <g id="删-除" transform="translate(9.000000, 8.000000)" fill-rule="nonzero">
                            <rect id="矩形" fill="#FFFFFF" opacity="0" x="0" y="0" width="16" height="16"></rect>
                            <path d="M8.08734375,1.33764063 C6.52017187,1.33764063 5.24823437,2.58004688 5.19410937,4.13982813 L1.54067187,4.13982813 C1.13475,4.13982813 0.802625,4.4695 0.802625,4.87789063 C0.802625,5.28382813 1.13229687,5.61596875 1.5406875,5.61596875 L2.35501562,5.61596875 L2.35501562,13.8724688 C2.35501562,15.4224063 3.40553125,16.6894219 4.70454687,16.6894219 L11.3225156,16.6894219 C12.6190781,16.6894219 13.6720469,15.4297969 13.6720469,13.8724688 L13.6720469,5.62089063 L14.4101094,5.62089063 C14.8160469,5.62089063 15.1481719,5.29120313 15.1481719,4.8828125 C15.1481719,4.476875 14.8185,4.14475 14.4101094,4.14475 L10.9756406,4.14475 C10.9288906,2.5800625 9.6545,1.33764063 8.08734375,1.33764063 L8.08734375,1.33764063 Z M6.57676562,4.13982813 C6.63089062,3.34026563 7.28285937,2.72029688 8.08979687,2.72029688 C8.89673437,2.72029688 9.54870312,3.34271875 9.59545312,4.13982813 L6.57676562,4.13982813 Z M4.70207812,15.3092344 C4.24201562,15.3092344 3.73520312,14.7187813 3.73520312,13.8724688 L3.73520312,5.62089063 L12.2869375,5.62089063 L12.2869375,13.8798438 C12.2869375,14.7237031 11.780125,15.316625 11.3200625,15.316625 L4.70207812,15.316625 L4.70207812,15.3092344 Z M5.69354687,13.5354219 C6.03057812,13.5354219 6.30859375,13.198375 6.30859375,12.7752188 L6.30859375,8.43784375 C6.30859375,8.0146875 6.03304687,7.677625 5.69354687,7.677625 C5.35648437,7.677625 5.07848437,8.0146875 5.07848437,8.43784375 L5.07848437,12.7752188 C5.07848437,13.1959063 5.34910937,13.5354219 5.69354687,13.5354219 Z M7.92004687,13.5354219 C8.25709375,13.5354219 8.53509375,13.198375 8.53509375,12.7752188 L8.53509375,8.43784375 C8.53509375,8.0146875 8.25954687,7.677625 7.92004687,7.677625 C7.583,7.677625 7.30498437,8.0146875 7.30498437,8.43784375 L7.30498437,12.7752188 C7.30498437,13.1959063 7.583,13.5354219 7.92004687,13.5354219 L7.92004687,13.5354219 Z M10.2621719,13.5354219 C10.5992187,13.5354219 10.8772344,13.198375 10.8772344,12.7752188 L10.8772344,8.43784375 C10.8772344,8.0146875 10.6016875,7.677625 10.2621719,7.677625 C9.925125,7.677625 9.647125,8.0146875 9.647125,8.43784375 L9.647125,12.7752188 C9.647125,13.1959063 9.91528125,13.5354219 10.2621719,13.5354219 Z" id="形状" fill="#595959"></path>
                        </g>
                    </g>
                </g>
            </g>
        </g>
    </g>
</svg>