<?xml version="1.0" encoding="UTF-8"?>
<svg width="34px" height="34px" viewBox="0 0 34 34" version="1.1" xmlns="http://www.w3.org/2000/svg" xmlns:xlink="http://www.w3.org/1999/xlink">
    <title>编辑</title>
    <g id="用户标签" stroke="none" stroke-width="1" fill="none" fill-rule="evenodd">
        <g transform="translate(-1594.000000, -395.000000)" id="编组-5">
            <g transform="translate(685.000000, 395.000000)">
                <g id="编辑" transform="translate(909.000000, 0.000000)">
                    <circle id="椭圆形" stroke="#E5E5E5" fill="#FFFFFF" cx="17" cy="17" r="14.5"></circle>
                    <g transform="translate(9.000000, 8.000000)" fill-rule="nonzero">
                        <rect id="矩形" fill="#000000" opacity="0" x="0" y="1" width="16" height="16"></rect>
                        <path d="M3.97219464,11.1936445 L5.69612711,11.1936445 L12.7666336,4.12313803 L11.082423,2.4389275 L3.97219464,9.53326712 L3.97219464,11.1936445 Z M12.2025819,1.31876863 L13.8867925,3.00297914 C14.1851472,3.30100219 14.3527891,3.70540735 14.3527891,4.12711023 C14.3527891,4.5488131 14.1851472,4.95321826 13.8867925,5.25124131 L6.816286,12.3217478 C6.519682,12.6201293 6.11684357,12.7886929 5.69612711,12.7904667 L3.61469713,12.7904667 C3.29044139,12.8012897 2.97579026,12.6794361 2.74340017,12.4530432 C2.51101007,12.2266502 2.3809733,11.9152918 2.38328565,11.590864 L2.38328565,9.53326713 C2.3850906,9.11255066 2.55365419,8.70971225 2.85203575,8.41310825 L9.9225422,1.34260178 C10.218519,1.03124566 10.6279585,0.853006127 11.057522,0.848428997 C11.4870854,0.844025711 11.9001613,1.01366752 12.2025819,1.31876863 Z M1.64448858,15.1499503 C1.20573208,15.1499503 0.850049656,14.7942679 0.850049656,14.3555114 C0.850049656,13.9167549 1.20573208,13.5610725 1.64448858,13.5610725 L14.3555114,13.5610725 C14.7942679,13.5610725 15.1499503,13.9167549 15.1499503,14.3555114 C15.1499503,14.7942679 14.7942679,15.1499503 14.3555114,15.1499503 L1.64448858,15.1499503 Z" id="形状" fill="#595959"></path>
                    </g>
                </g>
            </g>
        </g>
    </g>
</svg>