<?xml version="1.0" standalone="no"?><!DOCTYPE svg PUBLIC "-//W3C//DTD SVG 1.1//EN" "http://www.w3.org/Graphics/SVG/1.1/DTD/svg11.dtd"><svg t="1623998910275" class="icon" viewBox="0 0 1088 1024" version="1.1" xmlns="http://www.w3.org/2000/svg" p-id="5019" xmlns:xlink="http://www.w3.org/1999/xlink" width="212.5" height="200"><defs><style type="text/css"></style></defs><path d="M946.624 149.312a32 32 0 0 1 32 32v512a32 32 0 0 1-32 32H606.464v85.376H797.312a32 32 0 1 1 0 64h-448a32 32 0 0 1 0-64h193.152v-85.376H200a32 32 0 0 1-32-32v-512a32 32 0 0 1 32-32h746.624z m-32 384H232v64h682.624v-64z"  p-id="5020"></path></svg>