<?xml version="1.0" encoding="UTF-8"?>
<svg width="16px" height="16px" viewBox="0 0 16 16" version="1.1" xmlns="http://www.w3.org/2000/svg" xmlns:xlink="http://www.w3.org/1999/xlink">
    <title>形状 3</title>
    <g id="公众号列表" stroke="none" stroke-width="1" fill="none" fill-rule="evenodd">
        <g id="公众号列表-展开" transform="translate(-770.000000, -544.000000)" fill-rule="nonzero">
            <g id="Tabs/_Resource/CardTabs/Medium+Selected备份-6" transform="translate(746.000000, 534.000000)">
                <g id="编组-6" transform="translate(24.000000, 7.000000)">
                    <g id="数译_眼睛-显示" transform="translate(0.000000, 3.000000)">
                        <rect id="矩形" fill="#000000" opacity="0" x="0" y="0" width="16" height="16"></rect>
                        <path d="M8,10.3170732 C6.67268623,10.3170732 5.59819414,9.2804878 5.59819414,8 C5.59819414,6.7195122 6.67268623,5.68292684 8,5.68292684 C9.32731377,5.68292684 10.4018059,6.7195122 10.4018059,8 C10.4018059,9.2804878 9.32731377,10.3170732 8,10.3170732 Z M8,6.90243903 C7.36794582,6.90243903 6.86230248,7.3292683 6.86230248,8 C6.86230248,8.6707317 7.30474041,9.09756097 8,9.09756097 C8.63205418,9.09756097 9.13769752,8.6097561 9.13769752,8 C9.13769752,7.3902439 8.63205418,6.90243903 8,6.90243903 L8,6.90243903 Z M8,13 C4.7765237,13 1.99548533,11.0487805 1.04740407,8.18292683 C0.984198644,8.06097561 0.984198644,7.93902439 1.04740407,7.81707317 C2.05869074,4.95121952 4.83972912,3 8,3 C11.2234763,3 14.0045147,4.95121951 14.9525959,7.81707317 C15.0158014,7.93902439 15.0158014,8.06097561 14.9525959,8.18292683 C13.9413092,11.0487805 11.1602709,13 8,13 Z M2.37471784,8 C3.19638827,10.2560976 5.40857788,11.7804878 8,11.7804878 C10.5282167,11.7804878 12.8036117,10.2560975 13.6252822,8 C12.8036117,5.74390244 10.5914221,4.2195122 8,4.2195122 C5.47178329,4.2195122 3.19638826,5.74390245 2.37471784,8 Z" id="形状" fill="#2172FF"></path>
                    </g>
                </g>
            </g>
        </g>
    </g>
</svg>