<?xml version="1.0" encoding="UTF-8"?>
<svg width="20px" height="20px" viewBox="0 0 20 20" version="1.1" xmlns="http://www.w3.org/2000/svg" xmlns:xlink="http://www.w3.org/1999/xlink">
    <g id="页面-1" stroke="none" stroke-width="1" fill="none" fill-rule="evenodd">
        <g id="首页" transform="translate(-30.000000, -237.000000)" fill="#817FFF">
            <g id="站点设置" transform="translate(30.000000, 237.000000)">
                <path d="M10,0 C14.418278,0 18,3.581722 18,8 C18,10.5156656 16.0548594,13.8004992 12.1645782,17.8545006 C12.1360429,17.8842368 12.106898,17.9133817 12.0771618,17.941917 C10.8816972,19.0891028 8.9826038,19.0499651 7.83541796,17.8545005 L7.83541796,17.8545005 L7.50673096,17.5088965 C3.83557699,13.6134212 2,10.4437891 2,8 C2,3.581722 5.581722,0 10,0 Z M10,5 C8.34314575,5 7,6.34314575 7,8 C7,9.65685425 8.34314575,11 10,11 C11.6568542,11 13,9.65685425 13,8 C13,6.34314575 11.6568542,5 10,5 Z" id="形状结合"></path>
            </g>
        </g>
    </g>
</svg>