<?xml version="1.0" encoding="UTF-8"?>
<svg width="16px" height="16px" viewBox="0 0 16 16" version="1.1" xmlns="http://www.w3.org/2000/svg" xmlns:xlink="http://www.w3.org/1999/xlink">
    <g id="商机设置" stroke="none" stroke-width="1" fill="none" fill-rule="evenodd">
        <g id="icon" transform="translate(-1280.000000, -652.000000)" fill-rule="nonzero">
            <g id="增加" transform="translate(1280.000000, 652.000000)">
                <rect id="矩形" fill="#000000" opacity="0" x="0" y="0" width="16" height="16"></rect>
                <path d="M5,2 C5.88854726,2 6.68687122,2.3862919 7.23619452,3.00009834 L12.5,3 C12.7761424,3 13,3.22385763 13,3.5 L13,12.286 L13.561371,13.2480645 C13.7005111,13.4865904 13.619943,13.7927493 13.381417,13.9318895 C13.304949,13.9764958 13.2180088,14 13.1294815,14 L7.8705185,14 C7.59437612,14 7.3705185,13.7761424 7.3705185,13.5 C7.3705185,13.4114727 7.3940227,13.3245325 7.43862905,13.2480645 L7.583,13 L3.5,13 C3.22385763,13 3,12.7761424 3,12.5 L3.00009834,7.23619452 C2.3862919,6.68687122 2,5.88854726 2,5 C2,3.34314575 3.34314575,2 5,2 Z M10.5,11.155 L9.768,12.41 L11.231,12.41 L10.5,11.155 Z M11.41,9.561 L11.41,4.59 L7.97220471,4.58991557 C7.99053181,4.72399278 8,4.86089068 8,5 C8,6.65685425 6.65685425,8 5,8 C4.86089068,8 4.72399278,7.99053181 4.58991557,7.97220471 L4.59,11.41 L8.51,11.41 L10.0681105,8.74038192 C10.2072507,8.50185596 10.5134096,8.42128784 10.7519355,8.56042798 C10.8264373,8.60388737 10.8884301,8.6658801 10.9318895,8.74038192 L11.41,9.561 Z M5,3.59 C4.2212785,3.59 3.59,4.2212785 3.59,5 C3.59,5.7787215 4.2212785,6.41 5,6.41 C5.7787215,6.41 6.41,5.7787215 6.41,5 C6.41,4.2212785 5.7787215,3.59 5,3.59 Z" id="形状" fill="#2172FF"></path>
            </g>
        </g>
    </g>
</svg>