<?xml version="1.0" encoding="UTF-8"?>
<svg width="20px" height="20px" viewBox="0 0 20 20" version="1.1" xmlns="http://www.w3.org/2000/svg" xmlns:xlink="http://www.w3.org/1999/xlink">
    <g id="商机设置" stroke="none" stroke-width="1" fill="none" fill-rule="evenodd">
        <g id="icon" transform="translate(-1445.000000, -652.000000)">
            <g id="编组-5" transform="translate(1445.000000, 652.000000)">
                <circle id="形状结合备份-4" fill="#5392FF" cx="10" cy="10" r="10"></circle>
                <path d="M14.5,4.205 C15.1705082,4.205 15.7219971,4.71458215 15.7883141,5.36759377 L15.795,5.5 L15.795,14.5 C15.795,15.1705082 15.2854178,15.7219971 14.6324062,15.7883141 L14.5,15.795 L5.5,15.795 C4.8294918,15.795 4.27800288,15.2854178 4.21168594,14.6324062 L4.205,14.5 L4.205,5.5 C4.205,4.8294918 4.71458215,4.27800288 5.36759377,4.21168594 L5.5,4.205 L14.5,4.205 Z M14.205,10.795 L5.795,10.795 L5.795,14.205 L14.205,14.205 L14.205,10.795 Z M14.205,5.795 L5.795,5.795 L5.795,9.205 L14.205,9.205 L14.205,5.795 Z M10.4171373,6.71883489 C10.8562037,6.71883489 11.2121373,7.07476852 11.2121373,7.51383489 C11.2121373,7.95290127 10.8562037,8.30883489 10.4171373,8.30883489 L7.47324026,8.30883489 C7.03417389,8.30883489 6.67824026,7.95290127 6.67824026,7.51383489 C6.67824026,7.07476852 7.03417389,6.71883489 7.47324026,6.71883489 L10.4171373,6.71883489 Z" id="形状" fill="#FBFBFB" fill-rule="nonzero"></path>
            </g>
        </g>
    </g>
</svg>