<?xml version="1.0" encoding="UTF-8"?>
<svg width="16px" height="16px" viewBox="0 0 16 16" version="1.1" xmlns="http://www.w3.org/2000/svg" xmlns:xlink="http://www.w3.org/1999/xlink">
    <g id="商机设置" stroke="none" stroke-width="1" fill="none" fill-rule="evenodd">
        <g id="自动跟进" transform="translate(-1648.000000, -295.000000)" fill-rule="nonzero">
            <g id="Tabs/_Resource/CardTabs/Medium+Selected备份-3" transform="translate(1628.000000, 285.000000)">
                <g id="增加" transform="translate(20.000000, 10.000000)">
                    <rect id="矩形" fill="#000000" opacity="0" x="0" y="0" width="16" height="16"></rect>
                    <path d="M13.16875,7.15 L8.75625,7.15 L8.75625,2.7375 C8.75625,2.29375 8.396875,1.934375 7.953125,1.934375 C7.509375,1.934375 7.15,2.29375 7.15,2.7375 L7.15,7.1515625 L2.7375,7.1515625 C2.29375,7.1515625 1.934375,7.5109375 1.934375,7.9546875 C1.934375,8.3984375 2.29375,8.7578125 2.7375,8.7578125 L7.1515625,8.7578125 L7.1515625,13.171875 C7.1515625,13.615625 7.5109375,13.975 7.9546875,13.975 C8.3984375,13.975 8.7578125,13.615625 8.7578125,13.171875 L8.7578125,8.75625 L13.171875,8.75625 C13.615625,8.75625 13.975,8.396875 13.975,7.953125 C13.971875,7.509375 13.6125,7.15 13.16875,7.15 Z" id="路径" fill="#2172FF"></path>
                </g>
            </g>
        </g>
    </g>
</svg>