<?xml version="1.0" encoding="UTF-8"?>
<svg width="24px" height="24px" viewBox="0 0 24 24" version="1.1" xmlns="http://www.w3.org/2000/svg" xmlns:xlink="http://www.w3.org/1999/xlink">
    <g id="商机设置" stroke="none" stroke-width="1" fill="none" fill-rule="evenodd">
        <g id="icon" transform="translate(-94.000000, -645.000000)">
            <g id="关闭" transform="translate(94.000000, 645.000000)">
                <rect id="Rectangle" x="1.71428571" y="1.71428571" width="20.5714286" height="20.5714286"></rect>
                <circle id="椭圆形" stroke="#9B906C" stroke-width="2" cx="12" cy="12" r="11"></circle>
                <path d="M16.1543562,7.84564378 C16.3295003,8.02078787 16.3295003,8.30475255 16.1543562,8.47989664 L12.6342857,11.9992857 L16.1543562,15.5201034 C16.3076073,15.6733544 16.3267637,15.9099213 16.2118254,16.0840013 L16.1543562,16.1543562 C15.9792121,16.3295003 15.6952475,16.3295003 15.5201034,16.1543562 L15.5201034,16.1543562 L11.9992857,12.6342857 L8.47989664,16.1543562 C8.30475255,16.3295003 8.02078787,16.3295003 7.84564378,16.1543562 C7.67049969,15.9792121 7.67049969,15.6952475 7.84564378,15.5201034 L11.3652857,11.9992857 L7.84564378,8.47989664 C7.6923927,8.32664556 7.67323632,8.09007872 7.78817463,7.9159987 L7.84564378,7.84564378 C8.02078787,7.67049969 8.30475255,7.67049969 8.47989664,7.84564378 L8.47989664,7.84564378 L11.9992857,11.3652857 L15.5201034,7.84564378 C15.6952475,7.67049969 15.9792121,7.67049969 16.1543562,7.84564378 Z" id="Combined-Shape" stroke="#9B906C" fill="#9B906C"></path>
            </g>
        </g>
    </g>
</svg>