<?xml version="1.0" standalone="no"?><!DOCTYPE svg PUBLIC "-//W3C//DTD SVG 1.1//EN" "http://www.w3.org/Graphics/SVG/1.1/DTD/svg11.dtd"><svg t="1624004511471" class="icon" viewBox="0 0 1024 1024" version="1.1" xmlns="http://www.w3.org/2000/svg" p-id="5811" xmlns:xlink="http://www.w3.org/1999/xlink" width="200" height="200"><defs><style type="text/css"></style></defs><path d="M578.784 64.64a18.976 18.976 0 0 1 23.616 15.744l0.192 2.848v760.96h83.008V346.976c0-11.264 9.408-19.808 20.064-19.2l2.944 0.384 204.288 44.032a19.168 19.168 0 0 1 14.88 15.872l0.224 2.944V908.8a19.104 19.104 0 0 1-15.904 18.944l-3.072 0.256H114.976a19.04 19.04 0 0 1-18.72-16.064L96 908.832V206.08c0-7.616 4.512-14.464 11.264-17.504l3.008-1.056 468.512-122.88zM464 544h-192a48 48 0 0 0-4.608 95.776L272 640h192a48 48 0 0 0 4.608-95.776L464 544z m0-224h-192a48 48 0 0 0-4.608 95.776L272 416h192a48 48 0 0 0 4.608-95.776L464 320z"  p-id="5812"></path></svg>