<?xml version="1.0" standalone="no"?><!DOCTYPE svg PUBLIC "-//W3C//DTD SVG 1.1//EN" "http://www.w3.org/Graphics/SVG/1.1/DTD/svg11.dtd"><svg t="1623207857977" class="icon" viewBox="0 0 1024 1024" version="1.1" xmlns="http://www.w3.org/2000/svg" p-id="1344" xmlns:xlink="http://www.w3.org/1999/xlink" width="200" height="200"><defs><style type="text/css"></style></defs><path d="M716.8 102.4a153.6 153.6 0 0 1 153.6 153.6v512a153.6 153.6 0 0 1-153.6 153.6H307.2a153.6 153.6 0 0 1-153.6-153.6V256a153.6 153.6 0 0 1 153.6-153.6h409.6z m-25.6 102.4h-102.4A76.8 76.8 0 0 0 512 281.6v185.1904a25.6 25.6 0 0 0 38.7584 21.9648l76.0832-45.6704a25.6 25.6 0 0 1 26.3168 0l76.0832 45.6704a25.6 25.6 0 0 0 38.7584-22.016V281.6A76.8 76.8 0 0 0 691.2 204.8z" p-id="1345"></path></svg>