<?xml version="1.0" standalone="no"?><!DOCTYPE svg PUBLIC "-//W3C//DTD SVG 1.1//EN" "http://www.w3.org/Graphics/SVG/1.1/DTD/svg11.dtd"><svg t="1624008898318" class="icon" viewBox="0 0 1024 1024" version="1.1" xmlns="http://www.w3.org/2000/svg" p-id="2830" xmlns:xlink="http://www.w3.org/1999/xlink" width="200" height="200"><defs><style type="text/css"></style></defs><path d="M891.904 128a64 64 0 0 1 64 64v576a64 64 0 0 1-64 64H607.552l-72.96 72.96a32 32 0 0 1-40.768 3.712l-4.48-3.648L416.384 832H158.784a64 64 0 0 1-64-64V192a64 64 0 0 1 64-64h733.056z m-376.96 513.792a60.48 60.48 0 0 0-42.24 16.128 54.784 54.784 0 0 0-16.896 41.472c0 16.896 5.632 30.72 16.896 41.472a60.736 60.736 0 0 0 42.24 16.896 58.752 58.752 0 0 0 42.24-16.128 54.528 54.528 0 0 0 17.664-42.24 56.384 56.384 0 0 0-16.896-41.472 59.776 59.776 0 0 0-43.008-16.128z m13.824-443.136c-56.32 0-101.12 16.128-134.4 48.384-33.28 31.744-49.92 76.288-49.92 133.632 0 54.848 77.632 59.136 86.784 7.424l5.12-42.624 2.112-11.776c2.56-11.968 5.888-18.88 12.8-28.288 14.272-20.992 38.4-31.488 72.128-31.488 26.624 0 47.104 7.168 61.44 21.504 14.336 15.36 21.504 35.328 21.504 59.904 0 19.456-6.912 37.632-20.736 54.528l-9.216 10.752-23.36 21.248c-36.224 33.792-58.368 59.2-66.496 76.288-10.24 19.968-15.36 45.056-15.36 75.264v10.752h88.32v-10.752c0-17.92 3.84-34.56 11.52-49.92 5.76-11.84 13.44-22.4 23.104-31.68l36.16-31.872 21.12-19.2 9.856-9.472 6.528-6.848c18.944-25.088 28.416-56.576 28.416-94.464 0-47.104-15.36-83.968-46.08-110.592-30.208-27.136-70.656-40.704-121.344-40.704z"  p-id="2831"></path></svg>