<?xml version="1.0" encoding="UTF-8"?>
<svg width="143px" height="168px" viewBox="0 0 143 168" version="1.1" xmlns="http://www.w3.org/2000/svg" xmlns:xlink="http://www.w3.org/1999/xlink">
    <defs>
        <path d="M4,0 L138.153846,0 C140.362985,-4.05812251e-16 142.153846,1.790861 142.153846,4 L142.153846,164 C142.153846,166.209139 140.362985,168 138.153846,168 L4,168 C1.790861,168 2.705415e-16,166.209139 0,164 L0,4 C-2.705415e-16,1.790861 1.790861,4.05812251e-16 4,0 Z" id="path-1"></path>
        <path d="M6.46153846,0 L73.6615385,0 C77.2301476,-1.54372129e-15 80.1230769,2.89292931 80.1230769,6.46153846 L80.1230769,50.4 L80.1230769,50.4 L64.6153846,63.3230769 L6.46153846,63.3230769 C2.89292931,63.3230769 -4.51149842e-16,60.4301476 0,56.8615385 L0,6.46153846 C-1.325207e-15,2.89292931 2.89292931,2.43189971e-15 6.46153846,0 Z" id="path-3"></path>
        <path d="M62.6769231,34.8923077 C68.7435586,34.8923077 73.6615385,29.9743279 73.6615385,23.9076923 C73.6615385,17.8410567 68.7435586,12.9230769 62.6769231,12.9230769 C56.6102875,12.9230769 51.6923077,17.8410567 51.6923077,23.9076923 C51.6923077,26.6124809 52.6698996,29.0889407 54.2910269,31.0030153 C54.7278955,31.5188286 54.2669729,32.4465004 52.9082591,33.7860306 C52.6541473,34.0365734 52.6512388,34.4456766 52.901772,34.6997977 C53.0232003,34.822965 53.1889395,34.8923077 53.361899,34.8923077 C58.373525,34.8923077 61.478533,34.8923077 62.6769231,34.8923077 Z" id="path-5"></path>
        <filter x="-6.8%" y="-6.8%" width="113.7%" height="113.7%" filterUnits="objectBoundingBox" id="filter-6">
            <feOffset dx="0" dy="3" in="SourceAlpha" result="shadowOffsetInner1"></feOffset>
            <feComposite in="shadowOffsetInner1" in2="SourceAlpha" operator="arithmetic" k2="-1" k3="1" result="shadowInnerInner1"></feComposite>
            <feColorMatrix values="0 0 0 0 1   0 0 0 0 1   0 0 0 0 1  0 0 0 1 0" type="matrix" in="shadowInnerInner1"></feColorMatrix>
        </filter>
    </defs>
    <g id="客户SOP" stroke="none" stroke-width="1" fill="none" fill-rule="evenodd">
        <g id="SOP任务创建-客户分层-新添加客户备份-2" transform="translate(-340.000000, -612.000000)">
            <g id="编组-13" transform="translate(310.000000, 411.000000)">
                <g id="商机" transform="translate(30.000000, 201.000000)">
                    <mask id="mask-2" fill="white">
                        <use xlink:href="#path-1"></use>
                    </mask>
                    <use id="蒙版" fill="#FFFFFF" xlink:href="#path-1"></use>
                    <g id="编组-12" mask="url(#mask-2)">
                        <g transform="translate(30.369231, 43.292308)">
                            <g id="编组-10" stroke-width="1" fill="none" transform="translate(0.646154, 5.169231)">
                                <g id="矩形" transform="translate(0.000000, 3.230769)">
                                    <mask id="mask-4" fill="white">
                                        <use xlink:href="#path-3"></use>
                                    </mask>
                                    <path stroke="#2172FF" stroke-width="1.29230769" d="M73.6615385,0.646153846 C75.2674126,0.646153846 76.7212587,1.29706294 77.7736364,2.34944056 C78.826014,3.40181819 79.4769231,4.85566434 79.4769231,6.46153846 L79.4769231,6.46153846 L79.4769231,50.0973577 L64.3814447,62.6769231 L6.46153846,62.6769231 C4.85566434,62.6769231 3.40181819,62.026014 2.34944056,60.9736364 C1.29706294,59.9212587 0.646153846,58.4674126 0.646153846,56.8615385 L0.646153846,56.8615385 L0.646153846,6.46153846 C0.646153846,4.85566434 1.29706294,3.40181819 2.34944056,2.34944056 C3.40181819,1.29706294 4.85566434,0.646153846 6.46153846,0.646153846 L6.46153846,0.646153846 Z"></path>
                                    <path d="M63.9692308,62.0307692 L63.9692308,56.2153846 C63.9692308,52.6467755 66.8621601,49.7538462 70.4307692,49.7538462 L78.8307692,49.7538462" id="路径" stroke="#2172FF" stroke-width="1.29230769" fill="#D3E3FF" mask="url(#mask-4)"></path>
                                </g>
                                <path d="M73.6615385,3.87692308 C75.2674126,3.87692308 76.7212587,4.52783217 77.7736364,5.5802098 C78.826014,6.63258742 79.4769231,8.08643357 79.4769231,9.69230769 L79.4769231,9.69230769 L79.4769231,19.3846154 L0.646153846,19.3846154 L0.646153846,9.69230769 C0.646153846,8.08643357 1.29706294,6.63258742 2.34944056,5.5802098 C3.40181819,4.52783217 4.85566434,3.87692308 6.46153846,3.87692308 L6.46153846,3.87692308 Z" id="矩形" stroke="#2172FF" stroke-width="1.29230769" fill="#D3E3FF"></path>
                                <rect id="矩形" stroke="#2172FF" stroke-width="1.29230769" fill="#FFFFFF" x="16.1538462" y="0.646153846" width="3.87692308" height="7.75384615" rx="1.93846154"></rect>
                                <rect id="矩形备份-5" stroke="#2172FF" stroke-width="1.29230769" fill="#FFFFFF" x="60.0923077" y="0.646153846" width="3.87692308" height="7.75384615" rx="1.93846154"></rect>
                                <path d="M16.1538462,28.4307692 L63.9692308,28.4307692 C65.0398135,28.4307692 65.9076923,29.298648 65.9076923,30.3692308 L65.9076923,32.9538462 C65.9076923,34.0244289 65.0398135,34.8923077 63.9692308,34.8923077 L16.1538462,34.8923077 C15.0832634,34.8923077 14.2153846,34.0244289 14.2153846,32.9538462 L14.2153846,30.3692308 C14.2153846,29.298648 15.0832634,28.4307692 16.1538462,28.4307692 Z" id="矩形备份-7" fill="#D3E3FF"></path>
                                <g id="椭圆形">
                                    <use fill="#24FAE6" fill-rule="evenodd" xlink:href="#path-5"></use>
                                    <use fill="black" fill-opacity="1" filter="url(#filter-6)" xlink:href="#path-5"></use>
                                    <path stroke="#2172FF" stroke-width="1.29230769" d="M62.6769231,13.5692308 C65.5318104,13.5692308 68.1164258,14.7264025 69.9873193,16.597296 C71.8582129,18.4681896 73.0153846,21.052805 73.0153846,23.9076923 C73.0153846,26.7625796 71.8582129,29.347195 69.9873193,31.2180886 C68.1164258,33.0889821 65.5318104,34.2461538 62.6769231,34.2461538 L62.6769231,34.2461538 L53.361899,34.2461538 C54.2533891,33.3042575 54.6414768,32.7961445 54.8516491,32.3731431 C55.0184003,32.0375328 55.0920799,31.7375159 55.0964067,31.4778646 C53.2783618,28.8235178 52.3384615,26.4765276 52.3384615,23.9076923 C52.3384615,21.052805 53.4956333,18.4681896 55.3665268,16.597296 C57.2374204,14.7264025 59.8220358,13.5692308 62.6769231,13.5692308 Z" stroke-linejoin="square"></path>
                                </g>
                                <polyline id="路径" stroke="#FFFFFF" stroke-width="2.58461538" stroke-linecap="round" stroke-linejoin="round" transform="translate(62.676923, 22.615385) rotate(-45.000000) translate(-62.676923, -22.615385) " points="66.5538462 25.2 58.8 25.2 58.8 20.0307692"></polyline>
                                <path d="M16.1538462,38.7692308 L63.9692308,38.7692308 C65.0398135,38.7692308 65.9076923,39.6371096 65.9076923,40.7076923 L65.9076923,43.2923077 C65.9076923,44.3628904 65.0398135,45.2307692 63.9692308,45.2307692 L16.1538462,45.2307692 C15.0832634,45.2307692 14.2153846,44.3628904 14.2153846,43.2923077 L14.2153846,40.7076923 C14.2153846,39.6371096 15.0832634,38.7692308 16.1538462,38.7692308 Z" id="矩形" fill="#D3E3FF"></path>
                                <path d="M16.1538462,49.1076923 L43.2923077,49.1076923 C44.3628904,49.1076923 45.2307692,49.9755711 45.2307692,51.0461538 L45.2307692,53.6307692 C45.2307692,54.701352 44.3628904,55.5692308 43.2923077,55.5692308 L16.1538462,55.5692308 C15.0832634,55.5692308 14.2153846,54.701352 14.2153846,53.6307692 L14.2153846,51.0461538 C14.2153846,49.9755711 15.0832634,49.1076923 16.1538462,49.1076923 Z" id="矩形备份-6" fill="#D3E3FF"></path>
                            </g>
                            <ellipse id="椭圆形" fill="#F1F6FF" cx="40.7076923" cy="82.7076923" rx="35.5384615" ry="3.23076923"></ellipse>
                            <g id="编组-11" stroke-width="1" fill="none" transform="translate(6.246345, 3.814416) rotate(-10.000000) translate(-6.246345, -3.814416) translate(0.746345, 1.314416)">
                                <rect id="矩形" fill="#2172FF" transform="translate(5.870434, 1.937592) rotate(77.000000) translate(-5.870434, -1.937592) " x="4.06452226" y="1.24380624" width="3.6118236" height="1.38757123" rx="0.693785615"></rect>
                                <rect id="矩形" fill="#2172FF" transform="translate(9.403280, 2.227422) rotate(90.000000) translate(-9.403280, -2.227422) " x="7.59736853" y="1.53363619" width="3.6118236" height="1.38757123" rx="0.693785615"></rect>
                                <rect id="矩形" fill="#2172FF" transform="translate(2.316008, 2.623094) rotate(50.000000) translate(-2.316008, -2.623094) " x="0.51009573" y="1.92930857" width="3.6118236" height="1.38757123" rx="0.693785615"></rect>
                            </g>
                        </g>
                    </g>
                </g>
            </g>
        </g>
    </g>
</svg>