<?xml version="1.0" standalone="no"?><!DOCTYPE svg PUBLIC "-//W3C//DTD SVG 1.1//EN" "http://www.w3.org/Graphics/SVG/1.1/DTD/svg11.dtd"><svg t="1624004449992" class="icon" viewBox="0 0 1024 1024" version="1.1" xmlns="http://www.w3.org/2000/svg" p-id="5679" xmlns:xlink="http://www.w3.org/1999/xlink" width="200" height="200"><defs><style type="text/css"></style></defs><path d="M496 64c235.264 0 426.624 188.064 431.904 422.08l0.096 9.92v348a84 84 0 0 1-78.688 83.84l-5.312 0.16H496C257.408 928 64 734.592 64 496S257.408 64 496 64z m64 480h-224a48 48 0 0 0-4.608 95.776L336 640h224a48 48 0 0 0 4.608-95.776L560 544z m128-192h-352a48 48 0 0 0-4.608 95.776L336 448h352a48 48 0 0 0 4.608-95.776L688 352z"  p-id="5680"></path></svg>