<?xml version="1.0" encoding="UTF-8"?>
<svg width="44px" height="44px" viewBox="0 0 44 44" version="1.1" xmlns="http://www.w3.org/2000/svg" xmlns:xlink="http://www.w3.org/1999/xlink">
    <g id="页面-1" stroke="none" stroke-width="1" fill="none" fill-rule="evenodd" opacity="0.752044678">
        <g id="视频" transform="translate(-777.000000, -713.000000)" fill-rule="nonzero">
            <g id="卡片/视频" transform="translate(659.000000, 595.000000)">
                <g id="视频备份-8" transform="translate(118.000000, 118.000000)">
                    <rect id="矩形" fill="#000000" opacity="0" x="0" y="0" width="44" height="44"></rect>
                    <path d="M1.83333333,21.0833333 C1.83333333,10.4522 10.4522,1.83333333 21.0833333,1.83333333 C31.7144667,1.83333333 40.3333333,10.4522 40.3333333,21.0833333 C40.3333333,31.7144667 31.7144667,40.3333333 21.0833333,40.3333333 C10.4522,40.3333333 1.83333333,31.7144667 1.83333333,21.0833333 M16.90865,12.3926 C15.6715167,11.71115 14.6666667,12.2989167 14.6666667,13.7105833 L14.6666667,28.4548 C14.6666667,29.8562 15.6702333,30.4555167 16.90865,29.7727833 L30.4106,22.3204667 C31.6451667,21.6377333 31.6477333,20.5289334 30.4106,19.8449167 L16.90865,12.3926 Z" id="形状" fill="#FFFFFF"></path>
                </g>
            </g>
        </g>
    </g>
</svg>