<?xml version="1.0" encoding="UTF-8"?>
<svg width="30px" height="30px" viewBox="0 0 30 30" version="1.1" xmlns="http://www.w3.org/2000/svg" xmlns:xlink="http://www.w3.org/1999/xlink">
    <g id="商机设置" stroke="none" stroke-width="1" fill="none" fill-rule="evenodd">
        <g id="icon" transform="translate(-1108.000000, -645.000000)">
            <g id="编组-4" transform="translate(1108.000000, 645.000000)">
                <circle id="椭圆形备份" stroke="#E5E5E5" fill="#FFFFFF" cx="15" cy="15" r="14.5"></circle>
                <g id="设置" transform="translate(7.000000, 7.000000)" fill-rule="nonzero">
                    <rect id="矩形" fill="#000000" opacity="0" x="0" y="0" width="16" height="16"></rect>
                    <path d="M8.56265625,15.5973438 L7.45,15.5973438 C6.7434375,15.5973438 6.16875,15.0225 6.16875,14.3160938 L6.16875,14.025 C5.91764202,13.9405862 5.67268107,13.8388846 5.435625,13.720625 L5.2315625,13.9246875 C4.981875,14.1745313 4.65359375,14.299375 4.32546875,14.299375 C3.99734375,14.299375 3.66921875,14.1745313 3.419375,13.9246875 L2.6325,13.1378125 C2.39046875,12.8957813 2.2571875,12.5740625 2.2571875,12.2317188 C2.2571875,11.889375 2.39046875,11.5676563 2.6325,11.325625 L2.84109375,11.1170313 C2.72708642,10.8866765 2.62873843,10.6488977 2.54671875,10.4053125 L2.265625,10.4053125 C1.5590625,10.4053125 0.984375,9.83046875 0.984375,9.1240625 L0.984375,8.01140625 C0.984375,7.30484375 1.55921875,6.73015625 2.265625,6.73015625 L2.54546875,6.73015625 C2.62864592,6.48279263 2.72861806,6.24139775 2.8446875,6.00765625 L2.63796875,5.8009375 C2.3959375,5.55890625 2.26265625,5.2371875 2.26265625,4.89484375 C2.26265625,4.55265625 2.3959375,4.23078125 2.63796875,3.98875 L3.4246875,3.20203125 C3.66671875,2.96 3.9884375,2.82671875 4.33078125,2.82671875 C4.67296875,2.82671875 4.99484375,2.96 5.236875,3.20203125 L5.4428125,3.40796875 C5.6765625,3.29171875 5.9178125,3.1915625 6.16515625,3.10828125 L6.16515625,2.81609375 C6.16515625,2.10953125 6.74,1.53484375 7.44640625,1.53484375 L8.5590625,1.53484375 C9.265625,1.53484375 9.8403125,2.1096875 9.8403125,2.81609375 L9.8403125,3.10703125 C10.0839063,3.18890625 10.3215625,3.28703125 10.5521875,3.4009375 L10.7617188,3.19140625 C11.00375,2.949375 11.3254688,2.81609375 11.6678125,2.81609375 C12.0101563,2.81609375 12.331875,2.949375 12.5739063,3.19140625 L13.360625,3.978125 C13.8601563,4.47765625 13.8601563,5.290625 13.360625,5.79015625 L13.1573438,5.9934375 C13.2759375,6.23046875 13.3776563,6.4753125 13.4623438,6.72625 L13.765625,6.72625 C14.4721875,6.72625 15.046875,7.30109375 15.046875,8.0075 L15.046875,9.12015625 C15.046875,9.82671875 14.4720313,10.4014062 13.765625,10.4014062 L13.4634375,10.4014062 C13.3802603,10.6487699 13.2802882,10.8901647 13.1642188,11.1239062 L13.3709375,11.330625 C13.6129688,11.5726562 13.74625,11.894375 13.74625,12.2367188 C13.74625,12.5790625 13.6129688,12.9007812 13.3709375,13.1428125 L12.5840625,13.9295313 C12.0845313,14.4290625 11.2715625,14.4290625 10.7720313,13.9295313 L10.5660938,13.7235938 C10.332427,13.8398422 10.0910825,13.9399717 9.84375,14.0232813 L9.84375,14.3154688 C9.8440625,15.0225 9.26921875,15.5973438 8.56265625,15.5973438 L8.56265625,15.5973438 Z M5.32421875,12.285625 C5.4396875,12.285625 5.5559375,12.316875 5.65984375,12.3807812 C6.06153614,12.6282224 6.49996008,12.8103321 6.95875,12.9203125 C7.246875,12.989375 7.45,13.2470312 7.45,13.5432812 L7.45,14.3160937 L8.56265625,14.3160937 L8.56265625,13.5421875 C8.56265625,13.2460937 8.765625,12.9885937 9.0534375,12.9192187 C9.50890065,12.8096925 9.94424615,12.6290367 10.3434375,12.3839062 C10.5960937,12.2289062 10.921875,12.2675 11.1314062,12.4770312 L11.678125,13.02375 L12.465,12.2370312 L11.9176563,11.6896875 C11.7082813,11.4803125 11.6696875,11.1546875 11.824375,10.9020313 C12.0695313,10.5015625 12.249375,10.0675 12.3585938,9.61171875 C12.4276563,9.32359375 12.6853125,9.12046875 12.9815625,9.12046875 L13.765625,9.12046875 L13.765625,8.0078125 L12.9807812,8.0078125 C12.6846875,8.0078125 12.4271875,7.80484375 12.3578125,7.51703125 C12.2473437,7.05796875 12.0654687,6.62109375 11.8173437,6.2184375 C11.6615625,5.96578125 11.6996875,5.6390625 11.9096875,5.42921875 L12.4545312,4.884375 L11.6676562,4.0975 L11.1184375,4.64671875 C10.909375,4.85578125 10.5845312,4.89453125 10.3320312,4.74078125 C9.9349184,4.49870858 9.50240584,4.32019962 9.05015625,4.21171875 C8.76203125,4.14265625 8.55890625,3.885 8.55890625,3.58875 L8.55890625,2.8159375 L7.44625,2.8159375 L7.44625,3.5896875 C7.44625,3.88578125 7.24328125,4.14328125 6.95546875,4.21265625 C6.5000056,4.32218254 6.0646601,4.50283827 5.66546875,4.74796875 C5.4128125,4.90296875 5.08703125,4.864375 4.8775,4.65484375 L4.33078125,4.108125 L3.54390625,4.89484375 L4.09125,5.4421875 C4.300625,5.6515625 4.33921875,5.9771875 4.18453125,6.22984375 C3.939375,6.6303125 3.75953125,7.064375 3.6503125,7.52015625 C3.58125,7.80828125 3.32359375,8.01140625 3.02734375,8.01140625 L2.265625,8.01140625 L2.265625,9.1240625 L3.028125,9.1240625 C3.32421875,9.1240625 3.58171875,9.32703125 3.6509375,9.61484375 C3.75969286,10.0670066 3.93852193,10.4993701 4.1809375,10.89625 C4.335,11.14875 4.29625,11.4739062 4.08703125,11.6829687 L3.5384375,12.2315625 L4.3253125,13.0184375 L4.87078125,12.4729687 C4.99115173,12.3529344 5.15422674,12.2855578 5.32421875,12.285625 Z" id="形状" fill="#616161"></path>
                    <path d="M8.015625,11.5771875 C6.3553125,11.5771875 5.00453125,10.2264063 5.00453125,8.56609375 C5.00453125,6.90578125 6.3553125,5.555 8.015625,5.555 C9.6759375,5.555 11.0267188,6.90578125 11.0267188,8.56609375 C11.0267188,10.2264063 9.6759375,11.5771875 8.015625,11.5771875 Z M8.015625,6.83625 C7.061875,6.83625 6.28578125,7.6121875 6.28578125,8.56609375 C6.28578125,9.52 7.061875,10.2957813 8.015625,10.2957813 C8.969375,10.2957813 9.74546875,9.51984375 9.74546875,8.5659375 C9.74546875,7.61203125 8.969375,6.83625 8.015625,6.83625 Z" id="形状" fill="#616161"></path>
                </g>
            </g>
        </g>
    </g>
</svg>