<?xml version="1.0" standalone="no"?><!DOCTYPE svg PUBLIC "-//W3C//DTD SVG 1.1//EN" "http://www.w3.org/Graphics/SVG/1.1/DTD/svg11.dtd"><svg t="1624007567906" class="icon" viewBox="0 0 1024 1024" version="1.1" xmlns="http://www.w3.org/2000/svg" p-id="3061" xmlns:xlink="http://www.w3.org/1999/xlink" width="200" height="200"><defs><style type="text/css"></style></defs><path d="M960 355.2c0 76.224-48.544 143.456-119.488 165.472-70.944 22.016-147.52-6.4-188.512-69.92-31.104 48.288-83.68 77.28-140 77.248-56.32 0.032-108.896-28.96-140-77.248-40.96 63.52-117.568 91.936-188.512 69.92C112.544 498.656 63.968 431.424 64 355.2c0-17.472 15.392-88.832 46.272-214.08C115.936 114.72 138.656 96 164.928 96h694.144c26.24 0 48.96 18.752 54.656 45.12C944.576 266.336 960 337.696 960 355.2z m-588 179.84a219.2 219.2 0 0 0 280 0 219.2 219.2 0 0 0 252 19.744v298.88c0 56.864-32.512 106.336-80 106.336H200c-47.488 0-80-49.472-80-106.336v-298.88a219.232 219.232 0 0 0 252-19.712zM336 672c-12.736 0-24.96 4.704-33.92 13.12-9.024 8.416-14.08 19.808-14.08 31.68v134.4c0 24.736 21.504 44.8 48 44.8s48-20.064 48-44.8v-134.4c0-24.736-21.504-44.8-48-44.8z"  p-id="3062"></path></svg>