<?xml version="1.0" standalone="no"?><!DOCTYPE svg PUBLIC "-//W3C//DTD SVG 1.1//EN" "http://www.w3.org/Graphics/SVG/1.1/DTD/svg11.dtd"><svg t="1623998207800" class="icon" viewBox="0 0 1024 1024" version="1.1" xmlns="http://www.w3.org/2000/svg" p-id="3831" xmlns:xlink="http://www.w3.org/1999/xlink" width="200" height="200"><defs><style type="text/css"></style></defs><path d="M512 0a512 512 0 1 1 0 1024A512 512 0 0 1 512 0zM320 512a64 64 0 0 0-63.552 56.512L256 576v192l0.448 7.488a64 64 0 0 0 56.064 56.064L320 832h192l7.488-0.448a64 64 0 0 0 56.064-56.064L576 768l-0.448-7.488a64 64 0 0 0-56.064-56.064L512 704H384V576l-0.448-7.488A64 64 0 0 0 320 512z m448-256H576l-7.488 0.448a64 64 0 0 0-56.064 56.064L512 320l0.448 7.488a64 64 0 0 0 56.064 56.064L576 384h128v128l0.448 7.488a64 64 0 0 0 127.104 0L832 512V320l-0.448-7.488a64 64 0 0 0-56.064-56.064L768 256z"  p-id="3832"></path></svg>