<?xml version="1.0" encoding="UTF-8"?>
<svg width="30px" height="30px" viewBox="0 0 30 30" version="1.1" xmlns="http://www.w3.org/2000/svg" xmlns:xlink="http://www.w3.org/1999/xlink">
    <g id="商机设置" stroke="none" stroke-width="1" fill="none" fill-rule="evenodd">
        <g id="自动跟进" transform="translate(-1800.000000, -968.000000)">
            <g id="编组-8备份-5" transform="translate(310.000000, 942.000000)">
                <g id="编组-7备份" transform="translate(1488.000000, 24.000000)">
                    <g id="删除备份-2" transform="translate(2.000000, 2.000000)">
                        <circle id="椭圆形备份" stroke="#E5E5E5" fill="#FFFFFF" cx="15" cy="15" r="14.5"></circle>
                        <g id="转发" transform="translate(7.000000, 7.000000)" fill-rule="nonzero">
                            <rect id="矩形" fill="#000000" opacity="0" x="0" y="0" width="16" height="16"></rect>
                            <g id="编组" transform="translate(0.500000, 0.500000)" fill="#595959">
                                <path d="M7.06470177,0.75 C7.49306287,0.75 7.84295428,1.09776039 7.84295431,1.52589363 C7.84295431,1.91891038 7.55033431,2.24336258 7.17034669,2.29470869 L7.06470177,2.30178727 L4.18311824,2.30178727 C3.68491618,2.30178727 3.20663402,2.49984523 2.85450678,2.85191105 C2.54135366,3.16512868 2.35017343,3.57746455 2.31152248,4.01512907 L2.30423787,4.18029642 L2.30423787,10.81517 C2.30423787,11.3132553 2.50232069,11.7914307 2.85447316,12.1435218 C3.16750504,12.4564991 3.58018831,12.6477645 4.01793434,12.6864041 L4.18311824,12.6936792 L10.8191489,12.6936792 C11.8069216,12.6936792 12.6174224,11.9309096 12.6923731,10.9619852 L12.6980293,10.81517 L12.6980293,7.71874455 C12.6980293,7.4405304 12.8461808,7.18316202 13.0850706,7.04716691 C13.3263608,6.90643885 13.6250289,6.90643885 13.8629587,7.04716691 C14.0729767,7.16965609 14.2117917,7.37980742 14.2432139,7.61606997 L14.25,7.71874455 L14.25,10.8174368 C14.25,12.6498436 12.8142431,14.1471369 11.0053013,14.2449204 L10.8168818,14.25 L4.18311824,14.25 C2.35043396,14.25 0.852881021,12.8144935 0.755080475,11.0058277 L0.75,10.8174368 L0.75,4.18256321 C0.75,2.35015636 2.1857569,0.852863132 3.99469868,0.755079591 L4.18311824,0.75 L7.06470177,0.75 Z" id="形状结合"></path>
                                <path d="M13.5,2.35840325 C13.8104668,2.66887006 13.8104668,3.17223622 13.5,3.48270303 L8.20710678,8.77559625 C7.81658249,9.16612054 7.18341751,9.16612054 6.79289322,8.77559625 L4.5,6.48270303 C4.18953319,6.17223622 4.18953319,5.66887006 4.5,5.35840325 C4.81046874,5.04793451 5.31383638,5.04792917 5.62431171,5.35839132 L7.5,7.234 L7.5,7.234 L12.3756949,2.3583979 C12.6861655,2.04793318 13.1895323,2.04793557 13.5,2.35840325 Z" id="路径"></path>
                            </g>
                        </g>
                    </g>
                </g>
            </g>
        </g>
    </g>
</svg>