<?xml version="1.0" encoding="UTF-8"?>
<svg width="20px" height="20px" viewBox="0 0 20 20" version="1.1" xmlns="http://www.w3.org/2000/svg" xmlns:xlink="http://www.w3.org/1999/xlink">
    <g id="首页" stroke="none" stroke-width="1" fill="none" fill-rule="evenodd">
        <g id="首页一" transform="translate(-1119.000000, -289.000000)">
            <g id="编组-5备份-3" transform="translate(1119.000000, 289.000000)">
                <rect id="矩形" fill="#FF410D" x="0" y="0" width="20" height="20" rx="4"></rect>
                <g id="编组-6" transform="translate(4.500000, 4.000000)">
                    <path d="M0,2 C0,0.8954305 0.8954305,0 2,0 L6,0 C7.1045695,0 8,0.8954305 8,2 L8,10 C8,11.1045695 7.1045695,12 6,12 L2,12 C0.8954305,12 0,11.1045695 0,10" id="路径" stroke="#FFFFFF" stroke-width="2" stroke-linecap="round" transform="translate(4.000000, 6.000000) scale(-1, 1) translate(-4.000000, -6.000000) "></path>
                    <path d="M6,5 L11,5 C11.5522847,5 12,5.44771525 12,6 C12,6.55228475 11.5522847,7 11,7 L6,7 C5.44771525,7 5,6.55228475 5,6 C5,5.44771525 5.44771525,5 6,5 Z" id="矩形" fill="#FFFFFF"></path>
                    <polyline id="路径" stroke="#FFFFFF" stroke-width="2" stroke-linecap="round" stroke-linejoin="round" transform="translate(10.500000, 6.121320) rotate(45.000000) translate(-10.500000, -6.121320) " points="9 4.62132034 12 4.62132034 12 7.62132034"></polyline>
                </g>
            </g>
        </g>
    </g>
</svg>