<?xml version="1.0" encoding="UTF-8"?>
<svg width="80px" height="80px" viewBox="0 0 80 80" version="1.1" xmlns="http://www.w3.org/2000/svg" xmlns:xlink="http://www.w3.org/1999/xlink">
    <g id="客户SOP" stroke="none" stroke-width="1" fill="none" fill-rule="evenodd">
        <g id="icon" transform="translate(-211.000000, -219.000000)">
            <g id="内容及推送规则" transform="translate(211.000000, 219.000000)">
                <g id="编组-4" transform="translate(21.000000, 19.000000)">
                    <circle id="椭圆形" fill="#90B8FF" cx="19" cy="36.1" r="5.7"></circle>
                    <path d="M4.75,36.1 C2.12664744,36.1 3.21268032e-16,33.9733526 0,31.35 C-3.21268032e-16,28.7266474 2.12664744,26.6 4.75,26.6 L4.75,18.05 C4.75,10.1799423 11.1299423,3.8 19,3.8 C26.8700577,3.8 33.25,10.1799423 33.25,18.05 L33.25,26.6 C35.8733526,26.6 38,28.7266474 38,31.35 C38,33.9733526 35.8733526,36.1 33.25,36.1 L4.75,36.1 Z" id="形状结合" fill="#2172FF"></path>
                    <rect id="矩形" fill="#2172FF" x="16.15" y="0" width="5.7" height="7.6" rx="2.85"></rect>
                </g>
            </g>
        </g>
    </g>
</svg>