<?xml version="1.0" standalone="no"?><!DOCTYPE svg PUBLIC "-//W3C//DTD SVG 1.1//EN" "http://www.w3.org/Graphics/SVG/1.1/DTD/svg11.dtd"><svg t="1624008142292" class="icon" viewBox="0 0 1024 1024" version="1.1" xmlns="http://www.w3.org/2000/svg" p-id="2740" xmlns:xlink="http://www.w3.org/1999/xlink" width="200" height="200"><defs><style type="text/css"></style></defs><path d="M632.8 96v132.064c0 61.184 48.832 111.36 110.112 114.496l6.176 0.16H880v547.52c0 36.864-28.992 67.04-65.696 69.6L809.28 960H214.752c-37.376 0-67.968-28.576-70.56-64.768L144 890.24V165.792C144 128.96 172.992 98.72 209.728 96.16L214.72 96h418.048z m82.464 682.56H308.704a48 48 0 0 0-4.608 95.776l4.608 0.224h406.56a48 48 0 0 0 4.608-95.776l-4.608-0.224z m0-192H308.704a48 48 0 0 0-4.608 95.776l4.608 0.224h406.56a48 48 0 0 0 4.608-95.776l-4.608-0.224z m0-192H308.704a48 48 0 0 0-4.608 95.776l4.608 0.224h406.56a48 48 0 0 0 4.608-95.776l-4.608-0.224zM678.304 96L880 297.824h-130.912c-37.408 0-68-28.576-70.592-64.768l-0.192-4.992V96z"  p-id="2741"></path></svg>