<?xml version="1.0" encoding="UTF-8"?>
<svg width="34px" height="34px" viewBox="0 0 34 34" version="1.1" xmlns="http://www.w3.org/2000/svg" xmlns:xlink="http://www.w3.org/1999/xlink">
    <title>删除</title>
    <g id="素材管理" stroke="none" stroke-width="1" fill="none" fill-rule="evenodd">
        <g id="素材管理-视频-新建" transform="translate(-1736.000000, -506.000000)">
            <g id="编组" transform="translate(659.000000, 276.000000)">
                <g id="编组-8备份" transform="translate(0.000000, 218.000000)">
                    <g id="查看" transform="translate(1077.000000, 12.000000)">
                        <circle id="椭圆形备份" stroke="#E5E5E5" fill="#FFFFFF" cx="17" cy="17" r="14.5"></circle>
                        <g id="查看编辑-置灰" transform="translate(9.000000, 9.000000)" fill-rule="nonzero">
                            <rect id="矩形" fill="#000000" opacity="0" x="0" y="1" width="16" height="16"></rect>
                            <path d="M15.9,12.7 C14.8,10.9 13.4,10 12,10 C10.5,10 9.2,10.9 8.1,12.7 C8,12.9 8,13.1 8.1,13.2 C9.2,15 10.6,15.9 12,15.9 C13.5,15.9 14.8,15 15.9,13.2 C16,13.1 16,12.8 15.9,12.7 Z M9.1,12.9 C10.9,10.2 13.1,10.2 14.9,12.9 C13.1,15.6 10.9,15.6 9.1,12.9 Z M12,11.5 C11.2,11.5 10.5,12.2 10.5,13 C10.5,13.8 11.2,14.5 12,14.5 C12.8,14.5 13.5,13.8 13.5,13 C13.5,12.2 12.8,11.5 12,11.5 Z M12,13.5 C11.7,13.5 11.5,13.3 11.5,13 C11.5,12.7 11.7,12.5 12,12.5 C12.3,12.5 12.5,12.7 12.5,13 C12.5,13.3 12.3,13.5 12,13.5 Z M2.9,3.4 C2.5,3.4 2.2,3.7 2.2,4 C2.2,4.3 2.5,4.6 2.8,4.6 L10.9,4.6 C11.3,4.6 11.6,4.3 11.6,4 C11.6,3.7 11.3,3.4 10.9,3.4 L2.9,3.4 L2.9,3.4 Z M7.1,7.4 L2.9,7.4 C2.5,7.4 2.2,7.7 2.2,8 C2.2,8.3 2.5,8.6 2.8,8.6 L7,8.6 C7.4,8.6 7.6,8.3 7.6,8 C7.6,7.7 7.5,7.4 7.1,7.4 Z M4.5,12.7 C4.9,12.7 5.1,12.4 5.1,12 C5.1,11.6 4.8,11.3 4.5,11.3 L2.9,11.3 C2.5,11.3 2.3,11.6 2.3,12 C2.3,12.4 2.6,12.7 2.9,12.7 L4.5,12.7 Z M5.4,14.7 L3,14.7 C2.1,14.7 1.3,13.9 1.3,13 L1.3,3 C1.3,2.1 2.1,1.3 3,1.3 L12.2,1.3 C13.1,1.3 13.9,2.1 13.9,3 L13.9,5.3 C13.9,5.7 14.2,5.9 14.6,5.9 C15,5.9 15.3,5.6 15.3,5.3 L15.3,3 C15.3,1.3 14,0 12.3,0 L3,0 C1.3,0 0,1.3 0,3 L0,13 C0,14.7 1.3,16 3,16 L5.4,16 C5.8,16 6,15.7 6,15.3 C6,14.9 5.8,14.7 5.4,14.7 Z" id="形状" fill="#595959"></path>
                        </g>
                    </g>
                </g>
            </g>
        </g>
    </g>
</svg>