<?xml version="1.0" standalone="no"?><!DOCTYPE svg PUBLIC "-//W3C//DTD SVG 1.1//EN" "http://www.w3.org/Graphics/SVG/1.1/DTD/svg11.dtd"><svg t="1624003164740" class="icon" viewBox="0 0 1056 1024" version="1.1" xmlns="http://www.w3.org/2000/svg" p-id="5283" xmlns:xlink="http://www.w3.org/1999/xlink" width="206.25" height="200"><defs><style type="text/css"></style></defs><path d="M802.272 96c58.56 0 106.432 43.936 109.568 98.336L912 200V928l-384-104L144 928V200c0-55.104 45.92-100.864 103.68-103.84L253.76 96H802.24z m-260.096 139.616a32 32 0 0 0-41.024 11.264l-1.856 3.264-48.48 98.272a32 32 0 0 1-20.256 16.704l-3.84 0.8-108.48 15.744a32 32 0 0 0-20.416 51.616l2.688 2.976 78.496 76.48a32 32 0 0 1 9.6 24.448l-0.416 3.904-18.528 108a32 32 0 0 0 43.04 35.296l3.392-1.568 97.024-50.976a32 32 0 0 1 26.208-1.6l3.552 1.6 97.024 50.976a32 32 0 0 0 46.848-30.016l-0.416-3.712-18.56-108a32 32 0 0 1 6.592-25.44l2.624-2.88 78.496-76.48a32 32 0 0 0-14.08-53.856l-3.68-0.768-108.448-15.744a32 32 0 0 1-22.144-14.08l-1.92-3.424-48.512-98.272a32 32 0 0 0-14.528-14.528z"  p-id="5284"></path></svg>