<?xml version="1.0" encoding="UTF-8"?>
<svg width="20px" height="20px" viewBox="0 0 20 20" version="1.1" xmlns="http://www.w3.org/2000/svg" xmlns:xlink="http://www.w3.org/1999/xlink">
    <g id="页面-1" stroke="none" stroke-width="1" fill="none" fill-rule="evenodd">
        <g id="首页-统计" transform="translate(-547.000000, -600.000000)">
            <g id="编组-5备份-7" transform="translate(547.000000, 600.000000)">
                <rect id="矩形" fill="#FF410D" x="0" y="0" width="20" height="20" rx="4"></rect>
                <path d="M10,3 C11.9242463,3 13.4841561,4.53442981 13.4841561,6.42724491 C13.4841561,7.80608585 12.6563827,8.99474798 11.4629979,9.53861845 C14.6235643,10.2009711 17,12.9705648 17,16.2953466 C17,16.6845159 16.6899679,17 16.307524,17 C15.92508,17 15.615048,16.6845159 15.615048,16.2953466 C15.615048,13.5117353 13.5005206,11.2036793 10.7504261,10.8441565 L10.5955542,11.1140059 L11.3361251,13.8905328 L10.0450537,15.4089902 L8.73990313,13.8905328 L9.48047403,11.1140059 L9.32062361,10.8353191 C6.53598367,11.1640397 4.38495205,13.4878106 4.38495205,16.2953466 C4.38495205,16.6845159 4.07491997,17 3.69247602,17 C3.31003208,17 3,16.6845159 3,16.2953466 C3,12.9705648 5.37643566,10.2009711 8.53698,9.53741166 C7.34321607,8.99417179 6.5158439,7.80575167 6.5158439,6.42724491 C6.5158439,4.53442981 8.07575372,3 10,3 Z M10,4.40930674 C8.8303324,4.40930674 7.90079595,5.32365988 7.90079595,6.42724491 C7.90079595,7.53082993 8.8303324,8.44518307 10,8.44518307 C11.1696676,8.44518307 12.0992041,7.53082993 12.0992041,6.42724491 C12.0992041,5.32365988 11.1696676,4.40930674 10,4.40930674 Z" id="形状" fill="#FFFFFF" fill-rule="nonzero"></path>
            </g>
        </g>
    </g>
</svg>