<?xml version="1.0" encoding="UTF-8"?>
<svg width="16px" height="16px" viewBox="0 0 16 16" version="1.1" xmlns="http://www.w3.org/2000/svg" xmlns:xlink="http://www.w3.org/1999/xlink">
    <title>语音</title>
    <defs>
        <filter id="filter-1">
            <feColorMatrix in="SourceGraphic" type="matrix" values="0 0 0 0 0.062745 0 0 0 0 0.062745 0 0 0 0 0.062745 0 0 0 1.000000 0"></feColorMatrix>
        </filter>
    </defs>
    <g id="消息群发" stroke="none" stroke-width="1" fill="none" fill-rule="evenodd">
        <g id="消息群发-新增群发-语音已选择" transform="translate(-779.000000, -608.000000)">
            <g id="编组-5" transform="translate(600.000000, 275.000000)">
                <g id="语音" transform="translate(139.000000, 297.000000)" filter="url(#filter-1)">
                    <g transform="translate(40.000000, 36.000000)">
                        <rect id="矩形" fill="#000000" fill-rule="nonzero" opacity="0" x="0" y="0" width="16" height="16"></rect>
                        <path d="M10.5438501,1.20509454 C10.408392,1.06488886 10.2217991,0.985710505 10.0268464,0.985710505 C9.83189379,0.985710505 9.6453009,1.06488886 9.50984277,1.20509454 C9.24971073,1.48181438 9.24971073,1.91314361 9.50984277,2.18986345 C12.6789624,5.36517388 12.6789624,10.5068062 9.50984277,13.6821166 C9.22184378,13.9704742 9.22184378,14.437614 9.50984277,14.7259716 C9.79820038,15.0139706 10.2653402,15.0139706 10.5536978,14.7259716 C14.2622936,10.9803452 14.2578981,4.94531482 10.5438501,1.20509454 L10.5438501,1.20509454 Z" id="路径" fill="#999999" fill-rule="nonzero"></path>
                        <path d="M7.30396041,3.79503677 C7.02359606,3.54427128 6.59955586,3.54427128 6.31919151,3.79503677 C6.06384392,4.07363493 6.06384392,4.50120751 6.31919151,4.77980567 C8.13445983,6.60455221 8.13445983,9.55301081 6.31919151,11.3777573 C6.06842601,11.6581217 6.06842601,12.0821619 6.31919151,12.3625263 C6.59778967,12.6178739 7.02536226,12.6178739 7.30396041,12.3625263 C9.61782447,9.97538392 9.61782447,6.18217911 7.30396041,3.79503677 L7.30396041,3.79503677 Z M2.97097722,7.15309874 C2.74004761,7.38235232 2.61017088,7.69429456 2.61017088,8.01969538 C2.61017088,8.34509619 2.74004761,8.65703843 2.97097722,8.88629202 C3.32217443,9.24058213 3.85247658,9.34787963 4.31378018,9.15798503 C4.77508377,8.96809043 5.07616691,8.51855504 5.07616691,8.01969538 C5.07616691,7.52083571 4.77508377,7.07130032 4.31378018,6.88140572 C3.85247658,6.69151113 3.32217443,6.79880862 2.97097722,7.15309874 L2.97097722,7.15309874 Z" id="形状" fill="#999999" fill-rule="nonzero"></path>
                    </g>
                </g>
            </g>
        </g>
    </g>
</svg>