<?xml version="1.0" encoding="UTF-8"?>
<svg width="16px" height="16px" viewBox="0 0 16 16" version="1.1" xmlns="http://www.w3.org/2000/svg" xmlns:xlink="http://www.w3.org/1999/xlink">
    <title>编组 6</title>
    <g id="公众号列表" stroke="none" stroke-width="1" fill="none" fill-rule="evenodd">
        <g id="公众号列表-展开" transform="translate(-983.000000, -544.000000)">
            <g id="Tabs/_Resource/CardTabs/Medium+Selected备份-7" transform="translate(959.000000, 534.000000)">
                <g id="编组-6" transform="translate(24.000000, 7.000000)">
                    <g id="形状-3" transform="translate(0.000000, 3.000000)">
                        <rect id="矩形" x="0" y="0" width="16" height="16"></rect>
                        <g id="编组-7" transform="translate(2.000000, 2.000000)" stroke="#2172FF" stroke-width="1.2">
                            <path d="M1,3 L4,3 L4,3 L4,1 C4,0.44771525 4.44771525,1.01453063e-16 5,0 L7,0 C7.55228475,-1.01453063e-16 8,0.44771525 8,1 L8,3 L8,3 L11,3 C11.5522847,3 12,3.44771525 12,4 L12,6 L12,6 L0,6 L0,4 C-6.76353751e-17,3.44771525 0.44771525,3 1,3 Z" id="矩形" stroke-linejoin="round"></path>
                            <path d="M1,6 L11,6 L11,11 C11,11.5522847 10.5522847,12 10,12 L2,12 C1.44771525,12 1,11.5522847 1,11 L1,6 L1,6 Z" id="矩形"></path>
                        </g>
                        <g id="编组-18" transform="translate(5.900000, 10.000000)" fill="#2172FF">
                            <rect id="矩形" x="-9.09272657e-14" y="0" width="1.2" height="4" rx="0.6"></rect>
                            <rect id="矩形备份" x="3" y="0" width="1.2" height="4" rx="0.6"></rect>
                        </g>
                    </g>
                </g>
            </g>
        </g>
    </g>
</svg>