<?xml version="1.0" encoding="UTF-8"?>
<svg width="500px" height="271px" viewBox="0 0 500 271" version="1.1" xmlns="http://www.w3.org/2000/svg" xmlns:xlink="http://www.w3.org/1999/xlink">
    <defs>
        <linearGradient x1="49.3330794%" y1="-88.4880404%" x2="49.3330794%" y2="31.793737%" id="linearGradient-1">
            <stop stop-color="#2172FF" stop-opacity="0.3" offset="0%"></stop>
            <stop stop-color="#2172FF" stop-opacity="0" offset="100%"></stop>
        </linearGradient>
        <linearGradient x1="49.3330794%" y1="-45.8543327%" x2="49.3330794%" y2="100%" id="linearGradient-2">
            <stop stop-color="#2172FF" stop-opacity="0.3" offset="0%"></stop>
            <stop stop-color="#2172FF" stop-opacity="0" offset="100%"></stop>
        </linearGradient>
        <linearGradient x1="49.3330794%" y1="-47.9383113%" x2="49.3330794%" y2="64.6891977%" id="linearGradient-3">
            <stop stop-color="#2172FF" stop-opacity="0.3" offset="0%"></stop>
            <stop stop-color="#2172FF" stop-opacity="0" offset="100%"></stop>
        </linearGradient>
        <linearGradient x1="50%" y1="-58.9182943%" x2="50%" y2="77.7699382%" id="linearGradient-4">
            <stop stop-color="#2172FF" stop-opacity="0.3" offset="0%"></stop>
            <stop stop-color="#2172FF" stop-opacity="0" offset="100%"></stop>
        </linearGradient>
        <linearGradient x1="34.2433558%" y1="0%" x2="34.2433558%" y2="85.1850582%" id="linearGradient-5">
            <stop stop-color="#ADDAFF" offset="0%"></stop>
            <stop stop-color="#2172FF" offset="100%"></stop>
        </linearGradient>
        <linearGradient x1="50%" y1="0%" x2="50%" y2="98.8472465%" id="linearGradient-6">
            <stop stop-color="#FFFFFF" stop-opacity="0.684140079" offset="0%"></stop>
            <stop stop-color="#F0F7FF" offset="100%"></stop>
        </linearGradient>
    </defs>
    <g id="商机设置" stroke="none" stroke-width="1" fill="none" fill-rule="evenodd">
        <g id="icon" transform="translate(-1235.000000, -242.000000)">
            <g id="未创建规则" transform="translate(1235.000000, 242.000000)">
                <g id="编组">
                    <ellipse id="椭圆形" fill="url(#linearGradient-1)" opacity="0.619708394" cx="250" cy="218.055556" rx="250" ry="52.0833333"></ellipse>
                    <path d="M357.148318,0 C371.462558,0 383.957683,7.77112135 390.62702,19.3156624 C392.707216,18.8469501 394.8721,18.5999571 397.094801,18.5999571 C409.145594,18.5999571 419.496851,25.8602418 423.994479,36.236017 C425.480404,37.8456916 426.388889,39.9973073 426.388889,42.3611111 L426.388889,59.0277778 C426.388889,64.0136818 422.347015,68.0555556 417.361111,68.0555556 L290.277778,68.0555556 C285.291874,68.0555556 281.25,64.0136818 281.25,59.0277778 L281.25,42.3611111 C281.25,39.9973073 282.158485,37.8456916 283.645343,36.2363765 C288.142038,25.8602418 298.493295,18.5999571 310.544088,18.5999571 C314.860606,18.5999571 318.959069,19.5314714 322.648566,21.2040167 C329.004429,8.62669186 342.066677,0 357.148318,0 Z" id="形状结合" fill="url(#linearGradient-2)" opacity="0.389353198"></path>
                    <path d="M186.888379,98.6111111 C196.202673,98.6111111 204.333296,103.699088 208.673234,111.257698 C210.027192,110.951375 211.435916,110.789654 212.882263,110.789654 C223.356411,110.789654 231.857483,119.270868 231.943782,129.766072 C231.944281,129.797792 231.944444,129.829432 231.944444,129.861111 L231.944444,134.722222 C231.944444,139.708126 227.902571,143.75 222.916667,143.75 L146.527778,143.75 C141.541874,143.75 137.5,139.708126 137.5,134.722222 L137.5,129.861111 L137.501,129.788111 L137.502952,129.587117 C137.683767,119.174627 146.147631,110.789654 156.562181,110.789654 C159.371216,110.789654 162.038338,111.399661 164.439292,112.494927 C168.574376,104.259724 177.074329,98.6111111 186.888379,98.6111111 Z" id="形状结合备份" fill="url(#linearGradient-3)" opacity="0.389353198"></path>
                    <path d="M105.547481,56.25 C117.057873,56.25 126.388889,65.6963131 126.388889,77.3489309 C126.388889,78.8469296 126.234682,80.1242381 125.941461,81.2128418 C126.231748,82.0982815 126.388889,83.0446785 126.388889,84.0277778 L126.388889,84.7222222 C126.388889,89.7081262 122.347015,93.75 117.361111,93.75 L73.6111111,93.75 C68.6252071,93.75 64.5833333,89.7081262 64.5833333,84.7222222 L64.5833333,84.0277778 C64.5833333,83.7960175 64.5920665,83.566297 64.6092218,83.3389274 C64.5923631,83.0568705 64.5833333,82.7575009 64.5833333,82.4417763 C64.5833333,73.6018594 71.6620354,66.4356908 80.3940568,66.4356908 C82.7238213,66.4356908 84.9358927,66.9458215 86.927227,67.8617659 C90.357701,60.9740377 97.4076452,56.25 105.547481,56.25 Z" id="形状结合备份-2" fill="url(#linearGradient-4)" opacity="0.389353198"></path>
                </g>
                <path d="M215,75 L285,75 C290.522847,75 295,79.4771525 295,85 L295,165 C295,170.522847 290.522847,175 285,175 L215,175 C209.477153,175 205,170.522847 205,165 L205,85 C205,79.4771525 209.477153,75 215,75 Z" id="矩形" fill="url(#linearGradient-5)" opacity="0.619731105"></path>
                <path d="M230,91 L270,91 C272.209139,91 274,92.790861 274,95 C274,97.209139 272.209139,99 270,99 L230,99 C227.790861,99 226,97.209139 226,95 C226,92.790861 227.790861,91 230,91 Z" id="矩形" fill="#FFFFFF"></path>
                <path d="M230,107 L270,107 C272.209139,107 274,108.790861 274,111 C274,113.209139 272.209139,115 270,115 L230,115 C227.790861,115 226,113.209139 226,111 C226,108.790861 227.790861,107 230,107 Z" id="矩形备份" fill="#FFFFFF"></path>
                <rect id="矩形备份-2" fill="#FFFFFF" x="222" y="127" width="28" height="8" rx="4"></rect>
                <path d="M300.538106,122.347222 C303.203647,122.347222 305.616842,123.427646 307.363651,125.174455 C309.11046,126.921265 310.190884,129.334459 310.190884,132 C310.190884,133.164185 309.980286,134.318769 309.569262,135.407983 L309.569262,135.407983 L297.116432,168.407983 C296.40742,170.286864 295.153734,171.848063 293.57525,172.939541 C291.996765,174.031019 290.093482,174.652778 288.085276,174.652778 L288.085276,174.652778 L211.914724,174.652778 C209.906518,174.652778 208.003235,174.031019 206.42475,172.939541 C204.846266,171.848063 203.59258,170.286864 202.883568,168.407983 L202.883568,168.407983 L190.430738,135.407983 C189.48965,132.914098 189.6485,130.274858 190.666094,128.023817 C191.683688,125.772775 193.560026,123.909933 196.05391,122.968845 C197.143124,122.55782 198.297708,122.347222 199.461894,122.347222 L199.461894,122.347222 Z" id="矩形" stroke="url(#linearGradient-6)" stroke-width="0.694444444" fill-opacity="0.27305507" fill="#FFFFFF"></path>
            </g>
        </g>
    </g>
</svg>