<?xml version="1.0" encoding="UTF-8"?>
<svg width="34px" height="34px" viewBox="0 0 34 34" version="1.1" xmlns="http://www.w3.org/2000/svg" xmlns:xlink="http://www.w3.org/1999/xlink">
    <g id="页面-1" stroke="none" stroke-width="1" fill="none" fill-rule="evenodd">
        <g id="分组样式" transform="translate(-288.000000, -44.000000)">
            <g id="删除备份" transform="translate(288.000000, 44.000000)">
                <path d="M17,2 C25.2842712,2 32,8.71572875 32,17 C32,25.2842712 25.2842712,32 17,32 C8.71572875,32 2,25.2842712 2,17 C2,8.71572875 8.71572875,2 17,2 Z M17,3 C9.2680135,3 3,9.2680135 3,17 C3,24.7319865 9.2680135,31 17,31 C24.7319865,31 31,24.7319865 31,17 C31,9.2680135 24.7319865,3 17,3 Z" id="椭圆形备份" fill="#E5E5E5" fill-rule="nonzero"></path>
                <g id="编组-3" transform="translate(9.100000, 10.000000)" fill="#595959">
                    <path d="M7.795,0 C8.23406638,2.68850616e-17 8.59,0.355933624 8.59,0.795 L8.59,6.205 L14,6.205 C14.4390664,6.205 14.795,6.56093362 14.795,7 C14.795,7.43906638 14.4390664,7.795 14,7.795 L8.59,7.794 L8.59,13.205 C8.59,13.6440664 8.23406638,14 7.795,14 C7.35593362,14 7,13.6440664 7,13.205 L7,7.794 L1.59,7.795 C1.15093362,7.795 0.795,7.43906638 0.795,7 C0.795,6.56093362 1.15093362,6.205 1.59,6.205 L7,6.204 L7,0.795 C7,0.355933624 7.35593362,-2.68850616e-17 7.795,0 Z" id="形状结合"></path>
                </g>
            </g>
        </g>
    </g>
</svg>