<?xml version="1.0" encoding="UTF-8"?>
<svg width="34px" height="35px" viewBox="0 0 34 35" version="1.1" xmlns="http://www.w3.org/2000/svg" xmlns:xlink="http://www.w3.org/1999/xlink">
    <g id="页面-1" stroke="none" stroke-width="1" fill="none" fill-rule="evenodd">
        <g id="分组样式" transform="translate(-947.000000, -252.000000)" fill-rule="nonzero">
            <g id="卡片/网页备份-4" transform="translate(758.000000, 19.183361)">
                <g id="编组-2" transform="translate(14.000000, 184.000000)">
                    <g id="编组-14" transform="translate(1.000000, 13.000000)">
                        <g id="编辑" transform="translate(174.000000, 36.000000)">
                            <path d="M17,2 C25.2842712,2 32,8.71572875 32,17 C32,25.2842712 25.2842712,32 17,32 C8.71572875,32 2,25.2842712 2,17 C2,8.71572875 8.71572875,2 17,2 Z M17,3 C9.2680135,3 3,9.2680135 3,17 C3,24.7319865 9.2680135,31 17,31 C24.7319865,31 31,24.7319865 31,17 C31,9.2680135 24.7319865,3 17,3 Z" id="椭圆形" fill="#E5E5E5"></path>
                            <g transform="translate(9.000000, 8.848345)" fill="#595959" id="形状">
                                <path d="M3.97219464,10.3452991 L5.69612711,10.3452991 L12.7666336,3.27479266 L11.082423,1.59058213 L3.97219464,8.68492176 L3.97219464,10.3452991 Z M12.2025819,0.470423258 L13.8867925,2.15463377 C14.1851472,2.45265682 14.3527891,2.85706198 14.3527891,3.27876486 C14.3527891,3.70046774 14.1851472,4.10487289 13.8867925,4.40289595 L6.816286,11.4734024 C6.519682,11.771784 6.11684357,11.9403476 5.69612711,11.9421214 L3.61469713,11.9421214 C3.29044139,11.9529444 2.97579026,11.8310907 2.74340017,11.6046978 C2.51101007,11.3783049 2.3809733,11.0669464 2.38328565,10.7425186 L2.38328565,8.68492176 C2.3850906,8.2642053 2.55365419,7.86136688 2.85203575,7.56476288 L9.9225422,0.494256414 C10.218519,0.182900291 10.6279585,0.00466075989 11.057522,8.3629574e-05 C11.4870854,-0.00431965631 11.9001613,0.165322157 12.2025819,0.470423258 Z M1.64448858,14.301605 C1.20573208,14.301605 0.850049656,13.9459226 0.850049656,13.5071661 C0.850049656,13.0684096 1.20573208,12.7127271 1.64448858,12.7127271 L14.3555114,12.7127271 C14.7942679,12.7127271 15.1499503,13.0684096 15.1499503,13.5071661 C15.1499503,13.9459225 14.7942679,14.301605 14.3555114,14.301605 L1.64448858,14.301605 Z"></path>
                            </g>
                        </g>
                    </g>
                </g>
            </g>
        </g>
    </g>
</svg>