<?xml version="1.0" standalone="no"?><!DOCTYPE svg PUBLIC "-//W3C//DTD SVG 1.1//EN" "http://www.w3.org/Graphics/SVG/1.1/DTD/svg11.dtd"><svg t="1623998413068" class="icon" viewBox="0 0 1024 1024" version="1.1" xmlns="http://www.w3.org/2000/svg" p-id="4095" xmlns:xlink="http://www.w3.org/1999/xlink" width="200" height="200"><defs><style type="text/css"></style></defs><path d="M832 0a128 128 0 0 1 128 128v768a128 128 0 0 1-128 128H192a128 128 0 0 1-128-128V128a128 128 0 0 1 128-128zM256 704h-0.832A64 64 0 1 0 256 704z m508.8 0h-313.6C414.08 704 384 732.672 384 768s30.08 64 67.2 64h313.6c37.12 0 67.2-28.672 67.2-64s-30.08-64-67.2-64zM256 448h-0.832A64 64 0 1 0 256 448z m508.8 0h-313.6C414.08 448 384 476.672 384 512s30.08 64 67.2 64h313.6C801.92 576 832 547.328 832 512s-30.08-64-67.2-64zM256 192h-0.832A64 64 0 1 0 256 192z m508.8 0h-313.6C414.08 192 384 220.672 384 256s30.08 64 67.2 64h313.6C801.92 320 832 291.328 832 256s-30.08-64-67.2-64z"  p-id="4096"></path></svg>