<?xml version="1.0" standalone="no"?><!DOCTYPE svg PUBLIC "-//W3C//DTD SVG 1.1//EN" "http://www.w3.org/Graphics/SVG/1.1/DTD/svg11.dtd"><svg t="1623998570567" class="icon" viewBox="0 0 1024 1024" version="1.1" xmlns="http://www.w3.org/2000/svg" p-id="4491" xmlns:xlink="http://www.w3.org/1999/xlink" width="200" height="200"><defs><style type="text/css"></style></defs><path d="M926.336 375.232c20.16 0 36.48 16.448 36.48 36.8v546.048a36.672 36.672 0 0 1-36.48 36.8H603.648a24.256 24.256 0 0 1-24.32-24.512V399.744c0-13.504 10.88-24.512 24.32-24.512h322.688z m-437.888 0c13.44 0 24.32 11.008 24.32 24.512v570.624c0 13.568-10.88 24.512-24.32 24.512H165.824a36.672 36.672 0 0 1-36.544-36.8V412.032c0-20.352 16.32-36.8 36.48-36.8h322.688z m238.784-306.24a60.672 60.672 0 0 1 76.8 25.728l51.392 89.856h118.144c9.664 0 18.944 3.84 25.792 10.752a36.928 36.928 0 0 1 10.752 26.048v69.312a36.672 36.672 0 0 1-36.544 36.8H100.48A36.672 36.672 0 0 1 64 290.688V221.44c0-20.352 16.384-36.8 36.48-36.8h118.208L270.08 94.72l3.84-6.016a60.608 60.608 0 0 1 79.36-16.384L537.024 179.2l183.744-106.944z"  p-id="4492"></path></svg>