<?xml version="1.0" standalone="no"?><!DOCTYPE svg PUBLIC "-//W3C//DTD SVG 1.1//EN" "http://www.w3.org/Graphics/SVG/1.1/DTD/svg11.dtd"><svg t="1624004271309" class="icon" viewBox="0 0 1024 1024" version="1.1" xmlns="http://www.w3.org/2000/svg" p-id="5415" xmlns:xlink="http://www.w3.org/1999/xlink" width="200" height="200"><defs><style type="text/css"></style></defs><path d="M403.68 118.144c111.744 0 202.976 104.864 202.976 235.328 0 62.88-18.24 118.816-52.48 160.736l-10.24 12.032c-11.808 14.208-23.968 31.168-23.968 50.88 0 23.296 11.424 46.592 29.664 58.24 1.216 0.64 2.88 1.344 4.832 2.08l6.72 2.4 15.456 4.832 16.32 4.672c84.384 27.968 152.8 72.224 196.16 130.464 11.392 18.656 20.48 39.616 20.48 62.912 0 56.224-42.496 99.456-98.816 102.368l-6.08 0.128H102.624A102.816 102.816 0 0 1 0 842.72c0-16.576 3.616-33.12 12.416-48.064l3.52-5.536h-2.24c43.328-58.24 116.288-104.832 202.976-135.104 13.664 0 25.088-4.672 36.48-11.648l1.408-1.184a8.032 8.032 0 0 1 1.472-0.8l1.664-0.352v-2.336c18.24-13.984 29.664-34.944 29.664-58.24 0-25.632-13.696-51.264-34.24-62.912-31.904-41.92-52.416-97.856-52.416-160.736 0-130.496 91.2-237.664 202.976-237.664z m257.696 51.264c100.352 0 180.16 95.52 180.16 209.696 0 55.904-18.24 104.832-47.872 142.08l-6.176 6.4c-10.816 11.616-23.488 27.808-23.488 47.2 0 20.992 9.12 39.616 25.088 51.264 1.408 0.704 3.296 1.504 5.504 2.272l7.296 2.432 11.968 3.392 14.016 3.552c75.264 23.296 134.56 65.248 173.312 114.176 13.696 16.32 20.544 34.944 22.816 60.576 0 49.408-38.176 88-87.936 90.688l-5.568 0.16h-66.144c6.848-18.624 11.392-34.944 11.392-55.904 0-37.28-13.664-72.224-36.48-102.528-50.08-64.48-125.056-116.256-213.12-147.168l-12.672-4.256-9.12-4.672h-2.24a42.24 42.24 0 0 1-18.272-4.64c-2.272 0-2.272 0-2.272-2.336 1.824-5.6 6.56-11.2 10.72-15.584l2.944-3.072v-2.336l4.576-4.64c43.328-58.24 68.416-128.128 68.416-200.352 0-67.584-18.24-128.16-52.48-179.424a144.192 144.192 0 0 1 45.632-6.976z"  p-id="5416"></path></svg>