<?xml version="1.0" encoding="UTF-8"?>
<svg width="40px" height="48px" viewBox="0 0 40 48" version="1.1" xmlns="http://www.w3.org/2000/svg" xmlns:xlink="http://www.w3.org/1999/xlink">
    <!-- Generator: Sketch 52.5 (67469) - http://www.bohemiancoding.com/sketch -->
    <desc>Created with Sketch.</desc>
    <g id="Page-1" stroke="none" stroke-width="1" fill="none" fill-rule="evenodd">
        <g id="文件-从素材库选择--" transform="translate(-345.000000, -461.000000)" fill-rule="nonzero">
            <g id="Group-6">
                <g id="Group-4-Copy" transform="translate(307.000000, 427.000000)">
                    <g id="pdf文档-copy-4">
                        <g id="Group" transform="translate(38.000000, 34.000000)">
                            <path d="M4,0 L25.0016785,0 L40,15.0108643 L40,44 C40,46.209139 38.209139,48 36,48 L4,48 C1.790861,48 2.705415e-16,46.209139 0,44 L-8.8817842e-16,4 C-1.15871992e-15,1.790861 1.790861,4.05812251e-16 4,0 Z" id="Rectangle" fill="#D4CFFB"></path>
                            <rect id="Rectangle" fill="#FFFFFF" x="7" y="0" width="5" height="4"></rect>
                            <rect id="Rectangle-Copy" fill="#FFFFFF" x="12" y="4" width="5" height="4"></rect>
                            <rect id="Rectangle-Copy-2" fill="#FFFFFF" x="7" y="8" width="5" height="4"></rect>
                            <rect id="Rectangle-Copy-3" fill="#FFFFFF" x="12" y="12" width="5" height="4"></rect>
                            <rect id="Rectangle-Copy-4" fill="#FFFFFF" x="7" y="16" width="5" height="4"></rect>
                            <rect id="Rectangle-Copy-5" fill="#FFFFFF" x="12" y="20" width="5" height="4"></rect>
                            <rect id="Rectangle-Copy-6" fill="#FFFFFF" x="7" y="24" width="5" height="4"></rect>
                            <polygon id="Rectangle" fill="#EBE8FF" points="25 0 40 15 25 15"></polygon>
                            <path d="M7,24 L17,24 L17,32.5 C17,33.6045695 16.1045695,34.5 15,34.5 L9,34.5 C7.8954305,34.5 7,33.6045695 7,32.5 L7,24 Z" id="Rectangle" fill="#FFFFFF"></path>
                        </g>
                    </g>
                </g>
            </g>
        </g>
    </g>
</svg>