<?xml version="1.0" encoding="UTF-8"?>
<svg width="24px" height="24px" viewBox="0 0 24 24" version="1.1" xmlns="http://www.w3.org/2000/svg" xmlns:xlink="http://www.w3.org/1999/xlink">
    <g id="首页" stroke="none" stroke-width="1" fill="none" fill-rule="evenodd">
        <g id="首页一" transform="translate(-1490.000000, -461.000000)">
            <g id="编组-14" transform="translate(1490.000000, 461.000000)">
                <g id="编组-13" transform="translate(1.000000, 1.000000)">
                    <path d="M2,6 L4,6 C5.1045695,6 6,6.8954305 6,8 L6,14 C6,15.1045695 5.1045695,16 4,16 L2,16 C0.8954305,16 1.3527075e-16,15.1045695 0,14 L0,8 C-1.3527075e-16,6.8954305 0.8954305,6 2,6 Z" id="矩形" fill="#2172FF"></path>
                    <g id="编组-11" transform="translate(17.500000, 10.949747) rotate(45.000000) translate(-17.500000, -10.949747) translate(14.000000, 7.449747)" stroke="#2172FF" stroke-linecap="round" stroke-width="2">
                        <path d="M3,7 C3,5.34314575 1.65685425,4 0,4" id="路径"></path>
                        <path d="M7,7 C7,3.13400675 3.86599325,0 0,0" id="路径"></path>
                    </g>
                    <path d="M4,6 L8.8,2.4 C9.6836556,1.7372583 10.9372583,1.9163444 11.6,2.8 C11.8596443,3.14619234 12,3.56725957 12,4 L12,18 C12,19.1045695 11.1045695,20 10,20 C9.56725957,20 9.14619234,19.8596443 8.8,19.6 L4,16 L4,16 L4,6 Z" id="矩形备份-8" fill="#2172FF"></path>
                </g>
            </g>
        </g>
    </g>
</svg>