<?xml version="1.0" encoding="UTF-8"?>
<svg width="66px" height="20px" viewBox="0 0 66 20" version="1.1" xmlns="http://www.w3.org/2000/svg" xmlns:xlink="http://www.w3.org/1999/xlink">
    <g id="商机设置" stroke="none" stroke-width="1" fill="none" fill-rule="evenodd">
        <g id="自动跟进-已使用" transform="translate(-493.000000, -459.000000)">
            <g id="编组-5备份" transform="translate(494.000000, 459.693218)">
                <path d="M55,-0.25 C57.554317,-0.25 59.866817,0.785341516 61.5407377,2.45926227 C63.2146585,4.13318303 64.25,6.44568303 64.25,9 C64.25,11.554317 63.2146585,13.866817 61.5407377,15.5407377 C59.866817,17.2146585 57.554317,18.25 55,18.25 L55,18.25 L9.00000867,18.25 C6.44913717,18.25 4.13975645,17.216055 2.46809361,15.5443922 C0.796430766,13.8727293 -0.2375142,11.5633486 -0.23751396,9.01213049 C-0.233963288,6.45130824 0.803467411,4.13642705 2.47846568,2.46143523 C4.15452391,0.785383442 6.46898508,-0.25 9.02499759,-0.25 L9.02499759,-0.25 Z" id="矩形" stroke="#2172FF" stroke-width="0.5" fill="#2172FF"></path>
                <path d="M9,1 C13.418278,1 17,4.581722 17,9 C17,13.418278 13.418278,17 9,17 C4.581722,17 1,13.418278 1,9 C1,4.581722 4.581722,1 9,1 Z M9,5 C11.209139,5 13,6.790861 13,9 C13,11.209139 11.209139,13 9,13 C6.790861,13 5,11.209139 5,9 C5,6.790861 6.790861,5 9,5 Z" id="形状" fill="#F8FCFF"></path>
                <text id="已使用" font-family="PingFangSC-Semibold, PingFang SC" font-size="12" font-weight="500" fill="#FFFFFF">
                    <tspan x="21.6321793" y="13.3067821">已使用</tspan>
                </text>
            </g>
        </g>
    </g>
</svg>