<?xml version="1.0" standalone="no"?><!DOCTYPE svg PUBLIC "-//W3C//DTD SVG 1.1//EN" "http://www.w3.org/Graphics/SVG/1.1/DTD/svg11.dtd"><svg t="1623998447870" class="icon" viewBox="0 0 1024 1024" version="1.1" xmlns="http://www.w3.org/2000/svg" p-id="4359" xmlns:xlink="http://www.w3.org/1999/xlink" width="200" height="200"><defs><style type="text/css"></style></defs><path d="M904.64 64c14.272 0 26.624 5.248 37.12 15.744a49.984 49.984 0 0 1 15.552 36.352v793.92a50.048 50.048 0 0 1-15.616 36.352 50.56 50.56 0 0 1-37.12 15.68H115.84a49.152 49.152 0 0 1-36.608-15.68 50.752 50.752 0 0 1-15.168-36.352V116.096c0-13.76 5.12-25.92 15.168-36.352A49.024 49.024 0 0 1 115.84 64h788.864z m-79.488 79.04H195.328a50.112 50.112 0 0 0-37.504 15.68 52.864 52.864 0 0 0-15.232 38.208v316.16c0 17.28 4.352 33.728 12.992 49.344 8.64 15.552 20.992 29.44 37.12 41.728 16 12.288 35.392 22.016 57.984 29.184 22.656 7.232 48 11.072 75.968 11.712 39.872 0.64 72.192-4.8 96.896-16.128a233.472 233.472 0 0 0 64.32-43.136c18.176-17.408 35.2-36.224 50.944-56.576 15.808-20.416 34.56-39.552 56.32-57.472 21.696-17.984 48.512-33.088 80.384-45.376 31.872-12.288 73.088-18.752 123.712-19.328l12.032-0.576 3.584 0.192 2.56 0.32 22.272 0.64 19.52-0.128 18.624-0.448V196.928a52.928 52.928 0 0 0-15.168-38.208 50.112 50.112 0 0 0-37.504-15.68zM313.216 222.08c12.544 0 24.448 2.368 35.776 7.168a90.816 90.816 0 0 1 49.088 49.408c4.8 11.328 7.168 23.68 7.168 36.8 0 12.544-2.368 24.448-7.168 35.456a91.328 91.328 0 0 1-84.864 56.128 91.456 91.456 0 0 1-92.032-91.648c0-13.12 2.432-25.408 7.168-36.736a90.88 90.88 0 0 1 49.152-49.344 90.24 90.24 0 0 1 35.712-7.232z" p-id="4360"></path></svg>