<?xml version="1.0" encoding="UTF-8"?>
<svg width="24px" height="24px" viewBox="0 0 24 24" version="1.1" xmlns="http://www.w3.org/2000/svg" xmlns:xlink="http://www.w3.org/1999/xlink">
    <g id="商机设置" stroke="none" stroke-width="1" fill="none" fill-rule="evenodd">
        <g id="icon" transform="translate(-1197.000000, -648.000000)">
            <g id="编组-2" transform="translate(1197.000000, 648.000000)">
                <rect id="矩形" fill="#D8D8D8" opacity="0" x="0" y="0" width="24" height="24"></rect>
                <g id="编组-6备份-6" transform="translate(1.000000, 1.000000)">
                    <circle id="椭圆形" fill="#F6F6F6" cx="11" cy="11" r="11"></circle>
                    <path d="M11.7637363,13.293956 L11.7637363,13.0604396 C11.7637363,12.717033 11.8324176,12.4148352 11.9835165,12.1401099 C12.1071429,11.8928571 12.2994505,11.6593407 12.5467033,11.4395604 C13.206044,10.8763736 13.5906593,10.5192308 13.7142857,10.3681319 C14.043956,9.92857143 14.2225275,9.36538462 14.2225275,8.69230769 C14.2225275,7.86813187 13.9478022,7.20879121 13.4120879,6.72802198 C12.8626374,6.23351648 12.1483516,6 11.2554945,6 C10.2527473,6 9.45604396,6.28846154 8.87912088,6.87912088 C8.28846154,7.45604396 8,8.23901099 8,9.24175824 L9.45604396,9.24175824 C9.45604396,8.63736264 9.57967033,8.15659341 9.82692308,7.82692308 C10.1016484,7.44230769 10.5549451,7.25 11.1730769,7.25 C11.6675824,7.25 12.0521978,7.38736264 12.3269231,7.66208791 C12.5879121,7.93681319 12.7252747,8.30769231 12.7252747,8.78846154 C12.7252747,9.1456044 12.6016484,9.47527473 12.3543956,9.79120879 L12.1208791,10.0521978 C11.2692308,10.8076923 10.7472527,11.3708791 10.5549451,11.7554945 C10.3763736,12.1126374 10.293956,12.5521978 10.293956,13.0604396 L10.293956,13.293956 L11.7637363,13.293956 Z M11.021978,16 C11.2967033,16 11.543956,15.9038462 11.75,15.7252747 C11.9423077,15.532967 12.0384615,15.2994505 12.0384615,15.010989 C12.0384615,14.7225275 11.9423077,14.489011 11.75,14.3104396 C11.5576923,14.1181319 11.3104396,14.0357143 11.021978,14.0357143 C10.7335165,14.0357143 10.5,14.1181319 10.3214286,14.3104396 C10.1153846,14.489011 10.0192308,14.7225275 10.0192308,15.010989 C10.0192308,15.2857143 10.1153846,15.5192308 10.3214286,15.7115385 C10.5,15.9038462 10.7335165,16 11.021978,16 Z" id="?" fill="#999999" fill-rule="nonzero"></path>
                </g>
            </g>
        </g>
    </g>
</svg>