<?xml version="1.0" encoding="UTF-8"?>
<svg width="32px" height="32px" viewBox="0 0 32 32" version="1.1" xmlns="http://www.w3.org/2000/svg" xmlns:xlink="http://www.w3.org/1999/xlink">
    <defs>
        <filter id="filter-1">
            <feColorMatrix in="SourceGraphic" type="matrix" values="0 0 0 0 0.000000 0 0 0 0 0.094118 0 0 0 0 0.290196 0 0 0 1.000000 0"></feColorMatrix>
        </filter>
    </defs>
    <g id="页面-" stroke="none" stroke-width="1" fill="none" fill-rule="evenodd" opacity="0.497144">
        <g id="侧边导航" transform="translate(-343.000000, -216.000000)">
            <g id="导航/侧边导航-营销" transform="translate(329.000000, 23.000000)">
                <g id="系统首页" transform="translate(14.000000, 193.000000)" filter="url(#filter-1)">
                    <g fill="#606266" id="形状结合">
                        <path d="M26.4,24 C27.7254834,24 28.8,25.0745166 28.8,26.4 C28.8,27.7254834 27.7254834,28.8 26.4,28.8 L5.6,28.8 C4.2745166,28.8 3.2,27.7254834 3.2,26.4 C3.2,25.0745166 4.2745166,24 5.6,24 L26.4,24 Z M24,3.2 C26.6509668,3.2 28.8,5.3490332 28.8,8 L28.8,17.6 C28.8,20.2509668 26.6509668,22.4 24,22.4 L8,22.4 C5.3490332,22.4 3.2,20.2509668 3.2,17.6 L3.2,8 C3.2,5.3490332 5.3490332,3.2 8,3.2 L24,3.2 Z M22.4,14.4 L9.6,14.4 C8.7163444,14.4 8,15.1163444 8,16 C8,16.8345636 8.63896152,17.5198898 9.45436739,17.5934613 L9.6,17.6 L22.4,17.6 C23.2836556,17.6 24,16.8836556 24,16 C24,15.1163444 23.2836556,14.4 22.4,14.4 Z"></path>
                    </g>
                </g>
            </g>
        </g>
    </g>
</svg>