<?xml version="1.0" standalone="no"?><!DOCTYPE svg PUBLIC "-//W3C//DTD SVG 1.1//EN" "http://www.w3.org/Graphics/SVG/1.1/DTD/svg11.dtd"><svg t="1623207673224" class="icon" viewBox="0 0 1024 1024" version="1.1" xmlns="http://www.w3.org/2000/svg" p-id="1128" xmlns:xlink="http://www.w3.org/1999/xlink" width="200" height="200"><defs><style type="text/css"></style></defs><path d="M844.8 768a76.8 76.8 0 0 1 0 153.6h-665.6a76.8 76.8 0 0 1 0-153.6h665.6zM768 102.4a153.6 153.6 0 0 1 153.6 153.6v307.2a153.6 153.6 0 0 1-153.6 153.6H256a153.6 153.6 0 0 1-153.6-153.6V256a153.6 153.6 0 0 1 153.6-153.6h512z m-51.2 358.4H307.2a51.2 51.2 0 0 0-5.9904 102.0416L307.2 563.2h409.6a51.2 51.2 0 0 0 0-102.4z" p-id="1129"></path></svg>