<?xml version="1.0" encoding="UTF-8"?>
<svg width="64px" height="18px" viewBox="0 0 64 18" version="1.1" xmlns="http://www.w3.org/2000/svg" xmlns:xlink="http://www.w3.org/1999/xlink">
    <g id="商机设置" stroke="none" stroke-width="1" fill="none" fill-rule="evenodd">
        <g id="icon" transform="translate(-219.000000, -722.000000)">
            <g id="编组-5备份" transform="translate(219.000000, 722.000000)">
                <path d="M9.02499759,0 L55,0 C59.9705627,-9.13077564e-16 64,4.02943725 64,9 C64,13.9705627 59.9705627,18 55,18 L9.00000867,18 C4.03633685,18 0.0124857996,13.9761489 0.0124857996,9.01247713 C0.0124857996,9.00831808 0.0124886865,9.00415904 0.0124944604,9 C0.0193977644,4.02741743 4.05241023,-8.62907359e-16 9.02499759,0 Z" id="矩形" fill="#2172FF"></path>
                <g id="编组-6" transform="translate(1.000000, 1.000000)" fill="#F8FCFF">
                    <path d="M8,0 C12.418278,0 16,3.581722 16,8 C16,12.418278 12.418278,16 8,16 C3.581722,16 0,12.418278 0,8 C0,3.581722 3.581722,0 8,0 Z M12.7693292,5.02118653 C12.4088361,4.66069339 11.8415978,4.6329397 11.449271,4.93794205 L11.3550542,5.02112506 L7.20875954,9.16669891 L4.88877965,6.84611452 L4.79449249,6.76284465 C4.40225238,6.45785949 3.83509521,6.48558541 3.4746582,6.84602242 C3.11417424,7.20650638 3.0864447,7.77373744 3.39146959,8.16602865 L3.4746582,8.26023598 L6.50246899,11.2880468 L6.59667633,11.3712354 C6.9562766,11.6508415 7.46287494,11.6508415 7.82247522,11.3712354 L7.91668255,11.2880468 L12.7693292,6.4354001 C13.1598535,6.0448758 13.1598535,5.41171083 12.7693292,5.02118653 Z" id="形状"></path>
                </g>
                <text id="使用中" font-family="PingFangSC-Semibold, PingFang SC" font-size="12" font-weight="500" fill="#FFFFFF">
                    <tspan x="21.6321793" y="13.3067821">使用中</tspan>
                </text>
            </g>
        </g>
    </g>
</svg>