<?xml version="1.0" encoding="UTF-8"?>
<svg width="80px" height="80px" viewBox="0 0 80 80" version="1.1" xmlns="http://www.w3.org/2000/svg" xmlns:xlink="http://www.w3.org/1999/xlink">
    <g id="客户SOP" stroke="none" stroke-width="1" fill="none" fill-rule="evenodd">
        <g id="icon" transform="translate(-62.000000, -219.000000)">
            <g id="客户分层" transform="translate(62.000000, 219.000000)">
                <g id="编组-3" transform="translate(14.000000, 4.000000)">
                    <path d="M19.5160087,35.5506335 L38.5766208,29.6725193 C40.1598962,29.184252 41.8392134,30.0719315 42.3274807,31.6552069 C42.5051157,32.2312134 42.5051157,32.8473727 42.3274807,33.4233792 L36.4493665,52.4839913 C35.8646026,54.3801708 34.3801708,55.8646026 32.4839913,56.4493665 L13.4233792,62.3274807 C11.8401038,62.815748 10.1607866,61.9280685 9.67251933,60.3447931 C9.49488431,59.7687866 9.49488431,59.1526273 9.67251933,58.5766208 L15.5506335,39.5160087 C16.1353974,37.6198292 17.6198292,36.1353974 19.5160087,35.5506335 Z" id="矩形" fill="#D3E3FF" transform="translate(26.000000, 46.000000) rotate(45.000000) translate(-26.000000, -46.000000) "></path>
                    <path d="M19.5160087,25.5506335 L38.5766208,19.6725193 C40.1598962,19.184252 41.8392134,20.0719315 42.3274807,21.6552069 C42.5051157,22.2312134 42.5051157,22.8473727 42.3274807,23.4233792 L36.4493665,42.4839913 C35.8646026,44.3801708 34.3801708,45.8646026 32.4839913,46.4493665 L13.4233792,52.3274807 C11.8401038,52.815748 10.1607866,51.9280685 9.67251933,50.3447931 C9.49488431,49.7687866 9.49488431,49.1526273 9.67251933,48.5766208 L15.5506335,29.5160087 C16.1353974,27.6198292 17.6198292,26.1353974 19.5160087,25.5506335 Z" id="矩形" fill="#90B8FF" transform="translate(26.000000, 36.000000) rotate(45.000000) translate(-26.000000, -36.000000) "></path>
                    <path d="M19.5160087,15.5506335 L38.5766208,9.67251933 C40.1598962,9.18425203 41.8392134,10.0719315 42.3274807,11.6552069 C42.5051157,12.2312134 42.5051157,12.8473727 42.3274807,13.4233792 L36.4493665,32.4839913 C35.8646026,34.3801708 34.3801708,35.8646026 32.4839913,36.4493665 L13.4233792,42.3274807 C11.8401038,42.815748 10.1607866,41.9280685 9.67251933,40.3447931 C9.49488431,39.7687866 9.49488431,39.1526273 9.67251933,38.5766208 L15.5506335,19.5160087 C16.1353974,17.6198292 17.6198292,16.1353974 19.5160087,15.5506335 Z" id="矩形" fill="#2172FF" transform="translate(26.000000, 26.000000) rotate(45.000000) translate(-26.000000, -26.000000) "></path>
                </g>
            </g>
        </g>
    </g>
</svg>