<?xml version="1.0" encoding="UTF-8"?>
<svg width="143px" height="168px" viewBox="0 0 143 168" version="1.1" xmlns="http://www.w3.org/2000/svg" xmlns:xlink="http://www.w3.org/1999/xlink">
    <defs>
        <path d="M4,0 L138.153846,0 C140.362985,-4.05812251e-16 142.153846,1.790861 142.153846,4 L142.153846,164 C142.153846,166.209139 140.362985,168 138.153846,168 L4,168 C1.790861,168 2.705415e-16,166.209139 0,164 L0,4 C-2.705415e-16,1.790861 1.790861,4.05812251e-16 4,0 Z" id="path-1"></path>
        <circle id="path-3" cx="12.9230769" cy="42.6461538" r="5.16923077"></circle>
        <filter x="-14.5%" y="-14.5%" width="129.0%" height="129.0%" filterUnits="objectBoundingBox" id="filter-4">
            <feOffset dx="0" dy="3" in="SourceAlpha" result="shadowOffsetInner1"></feOffset>
            <feComposite in="shadowOffsetInner1" in2="SourceAlpha" operator="arithmetic" k2="-1" k3="1" result="shadowInnerInner1"></feComposite>
            <feColorMatrix values="0 0 0 0 1   0 0 0 0 1   0 0 0 0 1  0 0 0 1 0" type="matrix" in="shadowInnerInner1"></feColorMatrix>
        </filter>
        <circle id="path-5" cx="32.3076923" cy="15.5076923" r="15.5076923"></circle>
        <filter x="-4.8%" y="-4.8%" width="109.7%" height="109.7%" filterUnits="objectBoundingBox" id="filter-6">
            <feOffset dx="0" dy="-3" in="SourceAlpha" result="shadowOffsetInner1"></feOffset>
            <feComposite in="shadowOffsetInner1" in2="SourceAlpha" operator="arithmetic" k2="-1" k3="1" result="shadowInnerInner1"></feComposite>
            <feColorMatrix values="0 0 0 0 0.637172494   0 0 0 0 0.767921145   0 0 0 0 1  0 0 0 1 0" type="matrix" in="shadowInnerInner1" result="shadowMatrixInner1"></feColorMatrix>
            <feOffset dx="0" dy="3" in="SourceAlpha" result="shadowOffsetInner2"></feOffset>
            <feComposite in="shadowOffsetInner2" in2="SourceAlpha" operator="arithmetic" k2="-1" k3="1" result="shadowInnerInner2"></feComposite>
            <feColorMatrix values="0 0 0 0 1   0 0 0 0 1   0 0 0 0 1  0 0 0 1 0" type="matrix" in="shadowInnerInner2" result="shadowMatrixInner2"></feColorMatrix>
            <feMerge>
                <feMergeNode in="shadowMatrixInner1"></feMergeNode>
                <feMergeNode in="shadowMatrixInner2"></feMergeNode>
            </feMerge>
        </filter>
    </defs>
    <g id="客户SOP" stroke="none" stroke-width="1" fill="none" fill-rule="evenodd">
        <g id="SOP任务创建-客户分层-新进入商机客户阶段备份" transform="translate(-340.000000, -612.000000)">
            <g id="编组-13" transform="translate(310.000000, 411.000000)">
                <g id="编组-17" transform="translate(30.000000, 201.000000)">
                    <mask id="mask-2" fill="white">
                        <use xlink:href="#path-1"></use>
                    </mask>
                    <use id="蒙版" fill="#FFFFFF" xlink:href="#path-1"></use>
                    <g id="编组-12" mask="url(#mask-2)">
                        <g transform="translate(38.769231, 30.369231)">
                            <g id="编组-10" stroke-width="1" fill="none" transform="translate(0.000000, 5.169231)">
                                <path d="M58.1538462,10.9846154 C59.7597203,10.9846154 61.2135664,11.6355245 62.2659441,12.6879021 C63.3183217,13.7402797 63.9692308,15.1941259 63.9692308,16.8 L63.9692308,16.8 L63.9692308,81.4153846 C63.9692308,83.0212587 63.3183217,84.4751049 62.2659441,85.5274825 C61.2135664,86.5798601 59.7597203,87.2307692 58.1538462,87.2307692 L58.1538462,87.2307692 L6.46153846,87.2307692 C4.85566434,87.2307692 3.40181819,86.5798601 2.34944056,85.5274825 C1.29706294,84.4751049 0.646153846,83.0212587 0.646153846,81.4153846 L0.646153846,81.4153846 L0.646153846,16.8 C0.646153846,15.1941259 1.29706294,13.7402797 2.34944056,12.6879021 C3.40181819,11.6355245 4.85566434,10.9846154 6.46153846,10.9846154 L6.46153846,10.9846154 Z" id="矩形" stroke="#2172FF" stroke-width="1.29230769" fill="#FFFFFF"></path>
                                <g id="椭圆形">
                                    <use fill="#24FAE6" fill-rule="evenodd" xlink:href="#path-3"></use>
                                    <use fill="black" fill-opacity="1" filter="url(#filter-4)" xlink:href="#path-3"></use>
                                    <circle stroke="#2172FF" stroke-width="1.29230769" stroke-linejoin="square" cx="12.9230769" cy="42.6461538" r="4.52307692"></circle>
                                </g>
                                <rect id="矩形备份-5" fill="#D3E3FF" x="7.75384615" y="58.1538462" width="29.0769231" height="7.75384615" rx="1.93846154"></rect>
                                <text id="NEW" font-family="PingFangSC-Semibold, PingFang SC" font-size="9.04615385" font-weight="500" fill="#2172FF">
                                    <tspan x="24.5538462" y="46.1846154">NEW</tspan>
                                </text>
                                <rect id="矩形备份-6" fill="#D3E3FF" x="7.75384615" y="69.7846154" width="49.1076923" height="7.75384615" rx="1.93846154"></rect>
                                <g id="椭圆形">
                                    <use fill="#D3E3FF" fill-rule="evenodd" xlink:href="#path-5"></use>
                                    <use fill="black" fill-opacity="1" filter="url(#filter-6)" xlink:href="#path-5"></use>
                                    <circle stroke="#2172FF" stroke-width="1.29230769" stroke-linejoin="square" cx="32.3076923" cy="15.5076923" r="14.8615385"></circle>
                                </g>
                                <ellipse id="椭圆形" fill="#B6D0FF" cx="39.4153846" cy="15.1846154" rx="2.58461538" ry="2.26153846"></ellipse>
                                <ellipse id="椭圆形备份-2" fill="#B6D0FF" cx="25.2" cy="15.1846154" rx="2.58461538" ry="2.26153846"></ellipse>
                                <g id="编组-9" transform="translate(25.846154, 11.630769)">
                                    <circle id="椭圆形" fill="#2172FF" cx="1.29230769" cy="1.29230769" r="1.29230769"></circle>
                                    <circle id="椭圆形备份" fill="#2172FF" cx="11.6307692" cy="1.29230769" r="1.29230769"></circle>
                                    <path d="M4.52313419,4.84722361 C4.91025876,5.61975996 5.63339058,6.13945212 6.46157589,6.13945212 C7.2897895,6.13945212 8.01294243,5.61972445 8.40005727,4.84714443" id="路径" stroke="#2172FF" stroke-width="1.29230769" stroke-linecap="round"></path>
                                </g>
                            </g>
                            <ellipse id="椭圆形" fill="#F1F6FF" cx="32.3076923" cy="104.030769" rx="24.5538462" ry="3.23076923"></ellipse>
                            <g id="编组-11" stroke-width="1" fill="none" transform="translate(6.245396, 7.505645) rotate(-10.000000) translate(-6.245396, -7.505645) translate(3.245396, 4.505645)">
                                <rect id="矩形" fill="#2172FF" x="0" y="2.31261872" width="5.55028492" height="1.38757123" rx="0.693785615"></rect>
                                <rect id="矩形" fill="#2172FF" transform="translate(2.775142, 3.006404) rotate(90.000000) translate(-2.775142, -3.006404) " x="0" y="2.31261872" width="5.55028492" height="1.38757123" rx="0.693785615"></rect>
                            </g>
                            <g id="编组-11备份" stroke-width="1" fill="none" transform="translate(56.639956, 6.822932) rotate(20.000000) translate(-56.639956, -6.822932) translate(54.139956, 3.822932)">
                                <rect id="矩形" fill="#2172FF" x="0" y="2.01506342" width="4.8361522" height="1.20903805" rx="0.604519025"></rect>
                                <rect id="矩形" fill="#2172FF" transform="translate(2.418076, 2.619582) rotate(90.000000) translate(-2.418076, -2.619582) " x="0" y="2.01506342" width="4.8361522" height="1.20903805" rx="0.604519025"></rect>
                            </g>
                            <g id="编组-11备份-2" stroke-width="1" fill="none" transform="translate(15.507692, 0.000000)">
                                <rect id="矩形" fill="#90B8FF" x="0" y="1.61538462" width="3.87692308" height="1" rx="0.5"></rect>
                                <rect id="矩形" fill="#90B8FF" transform="translate(1.938462, 2.100000) rotate(90.000000) translate(-1.938462, -2.100000) " x="0" y="1.61538462" width="3.87692308" height="1" rx="0.5"></rect>
                            </g>
                        </g>
                    </g>
                </g>
            </g>
        </g>
    </g>
</svg>