<?xml version="1.0" standalone="no"?><!DOCTYPE svg PUBLIC "-//W3C//DTD SVG 1.1//EN" "http://www.w3.org/Graphics/SVG/1.1/DTD/svg11.dtd"><svg t="1623998433411" class="icon" viewBox="0 0 1024 1024" version="1.1" xmlns="http://www.w3.org/2000/svg" p-id="4227" xmlns:xlink="http://www.w3.org/1999/xlink" width="200" height="200"><defs><style type="text/css"></style></defs><path d="M512 0c133.12 0 240.941176 102.761412 240.941176 229.496471 0 80.414118-43.429647 151.190588-109.206588 192.150588C812.092235 474.292706 933.647059 625.242353 933.647059 803.117176c0 221.786353-843.294118 221.786353-843.294118 0C90.352941 625.242353 211.907765 474.232471 380.205176 421.647059 314.548706 380.626824 271.058824 309.910588 271.058824 229.436235 271.058824 102.821647 378.88 0 512 0z m21.805176 487.604706h-43.610352a45.176471 45.176471 0 0 0-36.864 19.094588l-18.672942 26.322824a45.176471 45.176471 0 0 0-6.023529 39.936l61.921882 192.150588a22.588235 22.588235 0 0 0 42.947765 0l61.921882-192.150588a45.176471 45.176471 0 0 0-6.144-39.936l-18.612706-26.322824a45.176471 45.176471 0 0 0-36.864-19.094588z"  p-id="4228"></path></svg>