<?xml version="1.0" encoding="UTF-8"?>
<svg width="500px" height="271px" viewBox="0 0 500 271" version="1.1" xmlns="http://www.w3.org/2000/svg" xmlns:xlink="http://www.w3.org/1999/xlink">
    <defs>
        <linearGradient x1="49.3330794%" y1="-88.4880404%" x2="49.3330794%" y2="31.793737%" id="linearGradient-1">
            <stop stop-color="#2172FF" stop-opacity="0.3" offset="0%"></stop>
            <stop stop-color="#2172FF" stop-opacity="0" offset="100%"></stop>
        </linearGradient>
        <linearGradient x1="49.3330794%" y1="-45.8543327%" x2="49.3330794%" y2="100%" id="linearGradient-2">
            <stop stop-color="#2172FF" stop-opacity="0.3" offset="0%"></stop>
            <stop stop-color="#2172FF" stop-opacity="0" offset="100%"></stop>
        </linearGradient>
        <linearGradient x1="49.3330794%" y1="-47.9383113%" x2="49.3330794%" y2="64.6891977%" id="linearGradient-3">
            <stop stop-color="#2172FF" stop-opacity="0.3" offset="0%"></stop>
            <stop stop-color="#2172FF" stop-opacity="0" offset="100%"></stop>
        </linearGradient>
        <linearGradient x1="50%" y1="-58.9182943%" x2="50%" y2="77.7699382%" id="linearGradient-4">
            <stop stop-color="#2172FF" stop-opacity="0.3" offset="0%"></stop>
            <stop stop-color="#2172FF" stop-opacity="0" offset="100%"></stop>
        </linearGradient>
        <linearGradient x1="34.2433558%" y1="0%" x2="34.2433558%" y2="85.1850582%" id="linearGradient-5">
            <stop stop-color="#ADDAFF" offset="0%"></stop>
            <stop stop-color="#2172FF" offset="100%"></stop>
        </linearGradient>
        <linearGradient x1="50%" y1="0%" x2="50%" y2="98.8472465%" id="linearGradient-6">
            <stop stop-color="#FFFFFF" stop-opacity="0.684140079" offset="0%"></stop>
            <stop stop-color="#F0F7FF" offset="100%"></stop>
        </linearGradient>
    </defs>
    <g id="商机设置" stroke="none" stroke-width="1" fill="none" fill-rule="evenodd">
        <g id="icon" transform="translate(-675.000000, -242.000000)">
            <g id="未设置" transform="translate(675.000000, 242.000000)">
                <g id="编组">
                    <ellipse id="椭圆形" fill="url(#linearGradient-1)" opacity="0.619708394" cx="250" cy="218.055556" rx="250" ry="52.0833333"></ellipse>
                    <path d="M357.148318,0 C371.462558,0 383.957683,7.77112135 390.62702,19.3156624 C392.707216,18.8469501 394.8721,18.5999571 397.094801,18.5999571 C409.145594,18.5999571 419.496851,25.8602418 423.994479,36.236017 C425.480404,37.8456916 426.388889,39.9973073 426.388889,42.3611111 L426.388889,59.0277778 C426.388889,64.0136818 422.347015,68.0555556 417.361111,68.0555556 L290.277778,68.0555556 C285.291874,68.0555556 281.25,64.0136818 281.25,59.0277778 L281.25,42.3611111 C281.25,39.9973073 282.158485,37.8456916 283.645343,36.2363765 C288.142038,25.8602418 298.493295,18.5999571 310.544088,18.5999571 C314.860606,18.5999571 318.959069,19.5314714 322.648566,21.2040167 C329.004429,8.62669186 342.066677,0 357.148318,0 Z" id="形状结合" fill="url(#linearGradient-2)" opacity="0.389353198"></path>
                    <path d="M186.888379,98.6111111 C196.202673,98.6111111 204.333296,103.699088 208.673234,111.257698 C210.027192,110.951375 211.435916,110.789654 212.882263,110.789654 C223.356411,110.789654 231.857483,119.270868 231.943782,129.766072 C231.944281,129.797792 231.944444,129.829432 231.944444,129.861111 L231.944444,134.722222 C231.944444,139.708126 227.902571,143.75 222.916667,143.75 L146.527778,143.75 C141.541874,143.75 137.5,139.708126 137.5,134.722222 L137.5,129.861111 L137.501,129.788111 L137.502952,129.587117 C137.683767,119.174627 146.147631,110.789654 156.562181,110.789654 C159.371216,110.789654 162.038338,111.399661 164.439292,112.494927 C168.574376,104.259724 177.074329,98.6111111 186.888379,98.6111111 Z" id="形状结合备份" fill="url(#linearGradient-3)" opacity="0.389353198"></path>
                    <path d="M105.547481,56.25 C117.057873,56.25 126.388889,65.6963131 126.388889,77.3489309 C126.388889,78.8469296 126.234682,80.1242381 125.941461,81.2128418 C126.231748,82.0982815 126.388889,83.0446785 126.388889,84.0277778 L126.388889,84.7222222 C126.388889,89.7081262 122.347015,93.75 117.361111,93.75 L73.6111111,93.75 C68.6252071,93.75 64.5833333,89.7081262 64.5833333,84.7222222 L64.5833333,84.0277778 C64.5833333,83.7960175 64.5920665,83.566297 64.6092218,83.3389274 C64.5923631,83.0568705 64.5833333,82.7575009 64.5833333,82.4417763 C64.5833333,73.6018594 71.6620354,66.4356908 80.3940568,66.4356908 C82.7238213,66.4356908 84.9358927,66.9458215 86.927227,67.8617659 C90.357701,60.9740377 97.4076452,56.25 105.547481,56.25 Z" id="形状结合备份-2" fill="url(#linearGradient-4)" opacity="0.389353198"></path>
                </g>
                <path d="M260.55999,79.8610805 C265.998926,81.0199102 271.109228,83.0625252 275.732278,85.8308347 C273.990922,90.2939358 274.92999,95.5667614 278.543723,99.1804948 C282.245131,102.881903 287.687113,103.777288 292.216409,101.86224 C295.115878,106.410197 297.293087,111.460882 298.588636,116.853109 C293.956821,118.666183 290.676754,123.184877 290.676754,128.472222 C290.676754,133.759568 293.956821,138.278262 298.586725,140.091646 C297.293119,145.483427 295.115988,150.533994 292.217607,155.083202 C287.687113,153.167156 282.245131,154.062541 278.543723,157.76395 C274.929916,161.377756 273.990884,166.650722 275.730729,171.11355 C271.109228,173.881919 265.998926,175.924534 260.55999,177.083364 C258.576726,172.83846 254.259014,169.89698 249.251996,169.89698 C244.380652,169.89698 240.161765,172.68121 238.109893,176.740135 C232.694043,175.410245 227.625795,173.198012 223.068026,170.26533 C224.384799,165.995835 223.347426,161.151108 219.960268,157.76395 C216.622076,154.425758 211.868153,153.369903 207.644811,154.599621 C204.773877,149.97729 202.642085,144.851127 201.413617,139.384857 C205.238768,137.25958 207.827237,133.169192 207.827237,128.472222 C207.827237,123.775252 205.238768,119.684864 201.414991,117.558726 C202.642255,112.092745 204.774216,106.966387 207.645189,102.344013 C211.868153,103.574541 216.622076,102.518687 219.960268,99.1804948 C223.347426,95.7933369 224.384799,90.9486099 223.069007,86.6795367 C227.625795,83.7464329 232.694043,81.5341997 238.110622,80.2040232 C240.162184,84.2635113 244.380894,87.047464 249.251996,87.047464 C254.185486,87.047464 258.449766,84.1917415 260.471567,80.048344 L260.55999,79.8610805 Z M250.4328,112.172517 C241.251026,112.172517 233.807727,119.591116 233.807727,128.742421 C233.807727,137.893726 241.251026,145.312324 250.4328,145.312324 C259.614574,145.312324 267.057872,137.893726 267.057872,128.742421 C267.057872,119.591116 259.614574,112.172517 250.4328,112.172517 Z" id="形状结合" fill="url(#linearGradient-5)" opacity="0.619731105"></path>
                <circle id="椭圆形" stroke="url(#linearGradient-6)" stroke-width="0.694444444" fill-opacity="0.27305507" fill="#FFFFFF" cx="277.305556" cy="152.666667" r="29.6527778"></circle>
            </g>
        </g>
    </g>
</svg>