<?xml version="1.0" encoding="UTF-8"?>
<svg width="16px" height="16px" viewBox="0 0 16 16" version="1.1" xmlns="http://www.w3.org/2000/svg" xmlns:xlink="http://www.w3.org/1999/xlink">
    <title>编组 6</title>
    <defs>
        <filter id="filter-1">
            <feColorMatrix in="SourceGraphic" type="matrix" values="0 0 0 0 0.129412 0 0 0 0 0.447059 0 0 0 0 1.000000 0 0 0 1.000000 0"></feColorMatrix>
        </filter>
    </defs>
    <g id="公众号列表" stroke="none" stroke-width="1" fill="none" fill-rule="evenodd">
        <g id="公众号列表-展开" transform="translate(-1150.000000, -544.000000)">
            <g id="Tabs/_Resource/CardTabs/Medium+Selected备份-8" transform="translate(1126.000000, 534.000000)">
                <g id="编组-6" transform="translate(24.000000, 7.000000)">
                    <g id="形状-3" transform="translate(0.000000, 3.000000)">
                        <rect id="矩形" x="0" y="0" width="16" height="16"></rect>
                        <g filter="url(#filter-1)" id="二维码">
                            <g transform="translate(1.000000, 1.000000)">
                                <rect id="矩形" fill="#000000" fill-rule="nonzero" opacity="0" x="0" y="0" width="14" height="14"></rect>
                                <path d="M5.03125,7.65625 L2.40625,7.65625 C1.684375,7.65625 1.09375,8.246875 1.09375,8.96875 L1.09375,11.59375 C1.09375,12.315625 1.684375,12.90625 2.40625,12.90625 L5.03125,12.90625 C5.753125,12.90625 6.34375,12.315625 6.34375,11.59375 L6.34375,8.96875 C6.34375,8.246875 5.753125,7.65625 5.03125,7.65625 Z M5.46875,11.59375 C5.46875,11.834375 5.271875,12.03125 5.03125,12.03125 L2.40625,12.03125 C2.165625,12.03125 1.96875,11.834375 1.96875,11.59375 L1.96875,8.96875 C1.96875,8.728125 2.165625,8.53125 2.40625,8.53125 L5.03125,8.53125 C5.271875,8.53125 5.46875,8.728125 5.46875,8.96875 L5.46875,11.59375 Z M5.03125,1.09375 L2.40625,1.09375 C1.684375,1.09375 1.09375,1.684375 1.09375,2.40625 L1.09375,5.03125 C1.09375,5.753125 1.684375,6.34375 2.40625,6.34375 L5.03125,6.34375 C5.753125,6.34375 6.34375,5.753125 6.34375,5.03125 L6.34375,2.40625 C6.34375,1.684375 5.753125,1.09375 5.03125,1.09375 Z M5.46875,5.03125 C5.46875,5.271875 5.271875,5.46875 5.03125,5.46875 L2.40625,5.46875 C2.165625,5.46875 1.96875,5.271875 1.96875,5.03125 L1.96875,2.40625 C1.96875,2.165625 2.165625,1.96875 2.40625,1.96875 L5.03125,1.96875 C5.271875,1.96875 5.46875,2.165625 5.46875,2.40625 L5.46875,5.03125 Z M12.25,7.65625 C12.009375,7.65625 11.8125,7.853125 11.8125,8.09375 L11.8125,12.46875 C11.8125,12.709375 12.009375,12.90625 12.25,12.90625 C12.490625,12.90625 12.6875,12.709375 12.6875,12.46875 L12.6875,8.09375 C12.6875,7.853125 12.490625,7.65625 12.25,7.65625 Z M11.59375,1.09375 L8.96875,1.09375 C8.246875,1.09375 7.65625,1.684375 7.65625,2.40625 L7.65625,5.03125 C7.65625,5.753125 8.246875,6.34375 8.96875,6.34375 L11.59375,6.34375 C12.315625,6.34375 12.90625,5.753125 12.90625,5.03125 L12.90625,2.40625 C12.90625,1.684375 12.315625,1.09375 11.59375,1.09375 Z M12.03125,5.03125 C12.03125,5.271875 11.834375,5.46875 11.59375,5.46875 L8.96875,5.46875 C8.728125,5.46875 8.53125,5.271875 8.53125,5.03125 L8.53125,2.40625 C8.53125,2.165625 8.728125,1.96875 8.96875,1.96875 L11.59375,1.96875 C11.834375,1.96875 12.03125,2.165625 12.03125,2.40625 L12.03125,5.03125 Z M8.3125,8.3125 C8.071875,8.3125 7.875,8.509375 7.875,8.75 L7.875,12.46875 C7.875,12.709375 8.071875,12.90625 8.3125,12.90625 C8.553125,12.90625 8.75,12.709375 8.75,12.46875 L8.75,8.75 C8.75,8.509375 8.553125,8.3125 8.3125,8.3125 Z M10.28125,9.625 C10.040625,9.625 9.84375,9.821875 9.84375,10.0625 L9.84375,12.46875 C9.84375,12.709375 10.040625,12.90625 10.28125,12.90625 C10.521875,12.90625 10.71875,12.709375 10.71875,12.46875 L10.71875,10.0625 C10.71875,9.821875 10.521875,9.625 10.28125,9.625 Z" id="形状" stroke="#2172FF" stroke-width="0.2" fill="#4A576A" fill-rule="nonzero"></path>
                            </g>
                        </g>
                    </g>
                </g>
            </g>
        </g>
    </g>
</svg>