<?xml version="1.0" encoding="UTF-8"?>
<svg width="20px" height="20px" viewBox="0 0 20 20" version="1.1" xmlns="http://www.w3.org/2000/svg" xmlns:xlink="http://www.w3.org/1999/xlink">
    <g id="页面-1" stroke="none" stroke-width="1" fill="none" fill-rule="evenodd">
        <g id="首页-统计" transform="translate(-547.000000, -315.000000)">
            <g id="编组-5备份-5" transform="translate(547.000000, 315.000000)">
                <rect id="矩形" fill="#2172FF" x="0" y="0" width="20" height="20" rx="4"></rect>
                <path d="M14.1441403,3.9 L15.7778115,8.29995299 C15.7487746,8.76797078 15.536607,9.18791833 15.2128092,9.49871584 C14.8501042,9.84685849 14.3482403,10.0592713 13.7955627,10.0592713 C13.321246,10.0592713 12.8845652,9.9029417 12.5408802,9.63850321 C12.3185883,9.46746716 12.130042,9.24723651 11.9916841,8.98908412 C11.853451,9.24746309 11.6650561,9.46773863 11.4430544,9.63863853 C11.0997857,9.90289145 10.6629469,10.0592713 10.188479,10.0592713 C9.71416224,10.0592713 9.27748143,9.9029417 8.93379644,9.63850321 C8.71150457,9.46746716 8.52295829,9.24723651 8.38460395,8.98908426 C8.24636996,9.24746281 8.05797411,9.46773773 7.83597165,9.63863777 C7.4927017,9.9028909 7.05586367,10.0592713 6.58139525,10.0592713 C6.13309957,10.0592713 5.72015973,9.77069207 5.38308084,9.45533329 C5.00811277,9.10452676 4.59673434,8.66030167 4.577874,8.39458683 L4.577874,8.39458683 L5.71255201,4.29534981 L14.1441403,3.9 Z" id="形状" stroke="#FFFFFF" stroke-width="1.8"></path>
            </g>
        </g>
    </g>
</svg>