<?xml version="1.0" encoding="UTF-8"?>
<svg width="20px" height="20px" viewBox="0 0 20 20" version="1.1" xmlns="http://www.w3.org/2000/svg" xmlns:xlink="http://www.w3.org/1999/xlink">
    <g id="客户SOP" stroke="none" stroke-width="1" fill="none" fill-rule="evenodd">
        <g id="执行结果看版-有数据-滑动" transform="translate(-1830.000000, -938.000000)">
            <g id="编组" transform="translate(1840.000000, 948.000000) scale(-1, -1) translate(-1840.000000, -948.000000) translate(1830.000000, 938.000000)">
                <rect id="矩形" stroke="#979797" stroke-width="0.555555556" fill="#D8D8D8" opacity="0" x="0.277777778" y="0.277777778" width="19.4444444" height="19.4444444"></rect>
                <path d="M12.1938209,0.717527644 C12.6654576,1.03821302 12.8117787,1.66732578 12.5300664,2.16322749 L8.14366436,9.88466603 L8.14366436,9.88466603 L12.5469781,17.8497026 C12.822572,18.348217 12.6688429,18.9748218 12.1938209,19.2891826 C11.7648169,19.5730896 11.1868885,19.4554652 10.9029816,19.0264613 C10.8893437,19.0058535 10.8765313,18.9847111 10.8645747,18.9630843 L6.13871339,10.4150141 C5.95155405,10.076483 5.95392942,9.66497809 6.14498443,9.32863017 L10.8601139,1.02775366 C11.1142054,0.580431464 11.6828135,0.423787027 12.1301357,0.677878515 C12.1518879,0.690234358 12.1731335,0.703461458 12.1938209,0.717527644 Z" id="路径-3" stroke="#999999" fill="#999999" fill-rule="nonzero"></path>
            </g>
        </g>
    </g>
</svg>