<?xml version="1.0" encoding="UTF-8"?>
<svg width="24px" height="24px" viewBox="0 0 24 24" version="1.1" xmlns="http://www.w3.org/2000/svg" xmlns:xlink="http://www.w3.org/1999/xlink">
    <defs>
        <path d="M11.3451308,7.47416806 L4.65308848,7.47416806 C4.34501948,7.47416806 4.09571508,7.22419588 4.09571508,6.91530169 L4.09571508,6.91530169 C4.09571508,6.6064075 4.34501948,6.35643533 4.65308848,6.35643533 L11.3469115,6.35643533 C11.6549805,6.35643533 11.9042849,6.6064075 11.9042849,6.91530169 L11.9042849,6.91530169 C11.9025042,7.22419588 11.6531998,7.47416806 11.3451308,7.47416806 L11.3451308,7.47416806 Z M11.3451308,4.44771921 L4.65308848,4.44771921 C4.34501948,4.44771921 4.09571508,4.19774704 4.09571508,3.88885285 L4.09571508,3.88885285 C4.09571508,3.57995866 4.34501948,3.32998649 4.65308848,3.32998649 L11.3469115,3.32998649 C11.6549805,3.32998649 11.9042849,3.57995866 11.9042849,3.88885285 L11.9042849,3.88885285 C11.9025042,4.19774704 11.6531998,4.44771921 11.3451308,4.44771921 L11.3451308,4.44771921 Z M14.7160824,12.7128707 L12.6575403,12.7128707 L12.6575403,13.153893 C12.6575403,13.4627872 12.4082359,13.7127594 12.1001669,13.7127594 L12.1001669,13.7127594 C11.7920979,13.7127594 11.5427935,13.4627872 11.5427935,13.153893 L11.5427935,12.7128707 L4.45542571,12.7128707 L4.45542571,13.153893 C4.45542571,13.4627872 4.20612131,13.7127594 3.89805231,13.7127594 L3.89805231,13.7127594 C3.58998331,13.7127594 3.34067891,13.4627872 3.34067891,13.153893 L3.34067891,12.7128707 L1.28213689,12.7128707 C0.573400111,12.7128707 0,12.1379347 0,11.4272995 L0,1.28557119 C0,0.574936004 0.573400111,0 1.28213689,0 L14.7178631,0 C15.4265999,0 16,0.574936004 16,1.28557119 L16,11.4272995 C15.9982193,12.1361491 15.4248191,12.7128707 14.7160824,12.7128707 L14.7160824,12.7128707 Z M1.28213689,11.4272995 L3.34245965,11.4272995 L3.34245965,11.1380459 C3.34245965,10.8291518 3.59176405,10.5791796 3.89983306,10.5791796 L3.89983306,10.5791796 C4.20790206,10.5791796 4.45720646,10.8291518 4.45720646,11.1380459 L4.45720646,11.4272995 L11.5445743,11.4272995 L11.5445743,11.1380459 C11.5445743,10.8291518 11.7938787,10.5791796 12.1019477,10.5791796 L12.1019477,10.5791796 C12.4100167,10.5791796 12.6593211,10.8291518 12.6593211,11.1380459 L12.6593211,11.4272995 L14.7196439,11.4272995 L14.7196439,11.4272995 L14.7196439,9.67570872 L1.28213689,9.67570872 L1.28213689,11.4272995 L1.28213689,11.4272995 L1.28213689,11.4272995 Z M14.7160824,1.28557119 L1.28213689,1.28557119 L1.28213689,1.28557119 L1.28213689,8.56333254 L14.7178631,8.56333254 L14.7178631,1.28557119 L14.7160824,1.28557119 L14.7160824,1.28557119 Z" id="path-1"></path>
    </defs>
    <g id="客户SOP" stroke="none" stroke-width="1" fill="none" fill-rule="evenodd">
        <g id="执行结果看版-有数据" transform="translate(-736.000000, -900.000000)">
            <g id="编组-9" transform="translate(342.000000, 876.000000)">
                <g id="日期" transform="translate(394.000000, 24.000000)">
                    <g id="↳Color/Caption" transform="translate(4.000000, 5.000000)">
                        <mask id="mask-2" fill="white">
                            <use xlink:href="#path-1"></use>
                        </mask>
                        <use id="Mask" fill="#2172FF" transform="translate(8.000000, 6.856380) scale(1, -1) translate(-8.000000, -6.856380) " xlink:href="#path-1"></use>
                    </g>
                </g>
            </g>
        </g>
    </g>
</svg>