<?xml version="1.0" standalone="no"?><!DOCTYPE svg PUBLIC "-//W3C//DTD SVG 1.1//EN" "http://www.w3.org/Graphics/SVG/1.1/DTD/svg11.dtd"><svg t="1623998846684" class="icon" viewBox="0 0 1088 1024" version="1.1" xmlns="http://www.w3.org/2000/svg" p-id="4755" xmlns:xlink="http://www.w3.org/1999/xlink" width="212.5" height="200"><defs><style type="text/css"></style></defs><path d="M913.024 634.624l89.6 45.568a27.84 27.84 0 1 1 0.384 49.408l-418.56 225.984a26.496 26.496 0 0 1-13.248 3.392 28.352 28.352 0 0 1-13.44-3.392L143.744 729.6a28.16 28.16 0 0 1 0.64-49.6l89.28-44.928 300.16 163.904 0.128 0.128c11.648 6.208 24.448 9.408 37.248 9.408a76.8 76.8 0 0 0 37.376-9.6l304.512-164.288z m-0.192-200.64l89.6 45.632a28.032 28.032 0 0 1 13.44 15.36 27.776 27.776 0 0 1-10.816 32.64c-0.64 0.512-1.344 0.96-2.176 1.408l-64.192 34.688-80 43.2-274.368 148.16a26.496 26.496 0 0 1-13.184 3.456 28.352 28.352 0 0 1-13.44-3.456L324.224 627.584l-36.416-19.84-144.128-78.72a42.24 42.24 0 0 1-3.456-2.304L138.112 524.928a26.112 26.112 0 0 1-8.32-14.208l-0.256-1.536a177.28 177.28 0 0 1-0.32-2.496l-0.128-1.408a28.288 28.288 0 0 1 15.232-25.792l89.28-44.992 190.912 104.32 109.184 59.584 0.192 0.128c11.648 6.144 24.448 9.344 37.248 9.344a76.8 76.8 0 0 0 37.376-9.6l113.088-61.056 191.232-103.232zM562.944 68.032a27.968 27.968 0 0 1 25.152 0l414.4 210.944a27.84 27.84 0 1 1 0.384 49.408l-418.56 225.984a26.496 26.496 0 0 1-13.184 3.456 28.352 28.352 0 0 1-13.44-3.392L143.616 328.32a28.16 28.16 0 0 1 0.64-49.6z"  p-id="4756"></path></svg>