<?xml version="1.0" standalone="no"?><!DOCTYPE svg PUBLIC "-//W3C//DTD SVG 1.1//EN" "http://www.w3.org/Graphics/SVG/1.1/DTD/svg11.dtd"><svg t="1624009048465" class="icon" viewBox="0 0 1024 1024" version="1.1" xmlns="http://www.w3.org/2000/svg" p-id="2964" xmlns:xlink="http://www.w3.org/1999/xlink" width="200" height="200"><defs><style type="text/css"></style></defs><path d="M648.384 518.272a209.152 209.152 0 0 0 129.984 44.928c37.888 0 73.408-9.984 104-27.392v265.664c0 50.56-30.144 94.528-74.24 94.528H228.672c-44.096 0-74.24-43.968-74.24-94.528V535.808a209.536 209.536 0 0 0 104 27.392c49.152 0 94.336-16.832 129.92-44.928A209.152 209.152 0 0 0 518.4 563.2c49.216 0 94.4-16.832 129.984-44.928z m-329.92 121.984c-3.904-0.448-6.976-1.28-7.936 6.464l-0.256 4.608-0.128 6.016-7.936 2.112-7.68 3.008-7.296 3.776-1.92-1.984-3.456-3.328c-6.272-5.376-9.792-4.8-12.8-2.56l-15.68 15.04c-2.56 2.944-3.52 6.464 1.792 13.12l3.2 3.648 1.984 1.984-4.16 7.232-3.328 7.552-2.432 7.744-3.84-0.128-4.864 0.128c-8.192 0.64-10.304 3.52-10.88 7.296l-0.128 2.304-0.256 19.328c0.192 3.904 2.112 7.04 10.56 8l8.704 0.384 2.176 7.936 2.944 7.68 3.84 7.296-2.112 2.048-3.328 3.456c-5.376 6.336-4.8 9.856-2.56 12.864l15.04 15.68c2.944 2.56 6.464 3.52 13.184-1.792l3.584-3.2 2.112-1.984 7.168 4.16 7.552 3.2 7.808 2.56-0.128 3.84 0.128 4.864c0.64 8.256 3.52 10.304 7.296 10.88l21.632 0.448c3.904-0.256 7.04-2.112 8-10.56l0.32-4.8 0.128-3.84 7.872-2.176 7.68-3.008 7.36-3.84 4.928 5.12 3.328 3.2c4.608 3.968 6.656 3.2 8.576 1.28l3.008-3.328 12.416-12.032 4.288-3.648c1.344-1.6 1.536-3.712-1.664-7.808l-3.008-3.456-4.928-5.12 4.096-7.168 3.328-7.552 2.496-7.744 6.016 0.064 4.608-0.128c6.016-0.512 6.976-2.496 6.912-5.184l-0.192-4.48 0.256-17.28 0.512-5.632c-0.192-2.112-1.536-3.712-6.72-4.352l-4.608-0.256-6.016-0.128-2.112-7.872-2.944-7.68-3.84-7.36 8.32-8.256c3.84-4.608 3.072-6.656 1.152-8.576l-3.328-3.008-12.032-12.48-1.28-1.536c-2.432-3.136-4.032-5.952-10.304-1.28l-3.52 3.008-5.12 4.928-7.232-4.096-7.552-3.328-7.744-2.56 0.064-5.952-0.128-4.608c-0.448-6.016-2.496-6.976-5.184-6.912l-4.48 0.192-19.328-0.448z m-25.344 61.12A48 48 0 1 1 359.68 770.56 48 48 0 0 1 293.12 701.44zM840.704 128c24.32 0 45.44 16.64 50.752 40.064l12.48 49.152 13.312 54.4 7.488 32.448 5.376 25.28 2.368 12.864 1.472 9.664a58.368 58.368 0 0 1 0.448 6.528 153.92 153.92 0 0 1-110.976 147.072 157.248 157.248 0 0 1-175.04-62.08A156.48 156.48 0 0 1 518.4 512c-52.288 0-101.12-25.728-129.984-68.672a157.248 157.248 0 0 1-175.04 62.144A153.92 153.92 0 0 1 102.4 358.4l0.128-2.88 0.96-8.064 3.2-18.112 7.616-35.264 18.56-76.8 12.48-49.216A51.84 51.84 0 0 1 196.096 128h644.608z"  p-id="2965"></path></svg>