<?xml version="1.0" encoding="UTF-8"?>
<svg width="16px" height="16px" viewBox="0 0 16 16" version="1.1" xmlns="http://www.w3.org/2000/svg" xmlns:xlink="http://www.w3.org/1999/xlink">
    <title>形状 3</title>
    <g id="公众号列表" stroke="none" stroke-width="1" fill="none" fill-rule="evenodd">
        <g id="公众号列表-展开" transform="translate(-623.000000, -544.000000)">
            <g id="Tabs/_Resource/CardTabs/Medium+Selected备份-5" transform="translate(596.000000, 534.000000)">
                <g id="编组-6" transform="translate(27.000000, 7.000000)">
                    <g id="形状-3" transform="translate(0.000000, 3.000000)">
                        <rect id="矩形" x="0" y="0" width="16" height="16"></rect>
                        <path d="M13.3181818,15 L2.68181817,15 C2.02886362,15 1.5,14.4779167 1.5,13.8333333 L1.5,2.16725 C1.5,1.52266668 2.02886362,1 2.68181817,1 L13.3181818,1 C13.9705455,1 14.5,1.52266668 14.5,2.16725 L14.5,13.8333333 C14.5,14.4779167 13.9705455,15 13.3181818,15 Z M13.3181818,2.16666668 L2.68181817,2.16666668 L2.68181817,13.8339167 L13.3181818,13.8339167 L13.3181818,2.16666668 Z M4.74999999,7.41666667 L11.25,7.41666667 C11.4130909,7.41666667 11.5454545,7.54733333 11.5454545,7.70833333 L11.5454545,8.29225 C11.5454545,8.45325 11.4130909,8.58391668 11.25,8.58391668 L4.74999999,8.58391668 C4.58690908,8.58391668 4.45454545,8.45325 4.45454545,8.29225 L4.45454545,7.70833333 C4.45454545,7.54733333 4.58690908,7.41666667 4.74999999,7.41666667 Z M4.74999999,10.3339167 L9.25000001,10.3339167 C9.41309092,10.3339167 9.54545455,10.4645833 9.54545455,10.6255833 L9.54545455,11.2089167 C9.54545455,11.3699167 9.41309092,11.5005833 9.25000001,11.5005833 L4.74999999,11.5005833 C4.58690908,11.5005833 4.45454545,11.3699167 4.45454545,11.2089167 L4.45454545,10.6255833 C4.45454545,10.4645833 4.58690908,10.3339167 4.74999999,10.3339167 Z M11.25,5.66725001 L4.74999999,5.66725001 C4.58690908,5.66725001 4.45454545,5.53658334 4.45454545,5.37558334 L4.45454545,4.79166667 C4.45454545,4.63066667 4.58690908,4.49999999 4.74999999,4.49999999 L11.25,4.49999999 C11.4130909,4.49999999 11.5454545,4.63066667 11.5454545,4.79166667 L11.5454545,5.37558334 C11.5454545,5.53658334 11.4130909,5.66725001 11.25,5.66725001 Z" id="形状" fill="#2172FF" fill-rule="nonzero"></path>
                    </g>
                </g>
            </g>
        </g>
    </g>
</svg>