<?xml version="1.0" standalone="no"?><!DOCTYPE svg PUBLIC "-//W3C//DTD SVG 1.1//EN" "http://www.w3.org/Graphics/SVG/1.1/DTD/svg11.dtd"><svg t="1623313492417" class="icon" viewBox="0 0 1024 1024" version="1.1" xmlns="http://www.w3.org/2000/svg" p-id="3371" xmlns:xlink="http://www.w3.org/1999/xlink" width="200" height="200"><defs><style type="text/css"></style></defs><path d="M838.4 761.6a76.8 76.8 0 1 1 0 153.6H172.8a76.8 76.8 0 1 1 0-153.6h665.6zM761.6 96a153.6 153.6 0 0 1 153.6 153.6v307.2a153.6 153.6 0 0 1-153.6 153.6h-512A153.6 153.6 0 0 1 96 556.8V249.6A153.6 153.6 0 0 1 249.6 96h512z m-51.2 358.4H300.8a51.2 51.2 0 0 0-4.672 102.176l4.672 0.224h409.6a51.2 51.2 0 1 0 0-102.4z"  p-id="3372"></path></svg>