<?xml version="1.0" standalone="no"?><!DOCTYPE svg PUBLIC "-//W3C//DTD SVG 1.1//EN" "http://www.w3.org/Graphics/SVG/1.1/DTD/svg11.dtd"><svg t="1623998828558" class="icon" viewBox="0 0 1024 1024" version="1.1" xmlns="http://www.w3.org/2000/svg" p-id="4623" xmlns:xlink="http://www.w3.org/1999/xlink" width="200" height="200"><defs><style type="text/css"></style></defs><path d="M813.176471 51.621647a180.705882 180.705882 0 0 1 180.705882 180.705882v327.017412a180.705882 180.705882 0 0 1-180.705882 180.705883h-60.235295l29.093648 110.772705a48.188235 48.188235 0 0 1-72.463059 52.886589L451.764706 740.111059H210.823529a180.705882 180.705882 0 0 1-180.705882-180.705883V232.327529a180.705882 180.705882 0 0 1 180.705882-180.705882h602.352942zM575.126588 453.210353H328.402824a57.344 57.344 0 1 0 0 114.688h246.723764a57.344 57.344 0 1 0 0-114.688z m120.470588-229.496471H328.402824a57.344 57.344 0 1 0 0 114.748236h367.194352a57.344 57.344 0 1 0 0-114.748236z"  p-id="4624"></path></svg>