<?xml version="1.0" encoding="UTF-8"?>
<svg width="30px" height="30px" viewBox="0 0 30 30" version="1.1" xmlns="http://www.w3.org/2000/svg" xmlns:xlink="http://www.w3.org/1999/xlink">
    <g id="页面-1" stroke="none" stroke-width="1" fill="none" fill-rule="evenodd">
        <g id="登录备份" transform="translate(-1053.000000, -345.000000)" fill="#606266" fill-rule="nonzero">
            <g id="账号" transform="translate(1053.000000, 345.000000)">
                <path d="M15,2 C19.418278,2 23,5.581722 23,10 C23,12.8865746 21.4711975,15.4160783 19.1791149,16.8229887 C23.1816274,18.4667396 26,22.4042367 26,27 C26,27.5522847 25.5522847,28 25,28 C24.4477153,28 24,27.5522847 24,27 C24,22.0294373 19.9705627,18 15,18 C10.0294373,18 6,22.0294373 6,27 C6,27.5522847 5.55228475,28 5,28 C4.44771525,28 4,27.5522847 4,27 C4,22.4042367 6.81837259,18.4667396 10.8210237,16.8216027 C8.52880246,15.4160783 7,12.8865746 7,10 C7,5.581722 10.581722,2 15,2 Z M15,4 C11.6862915,4 9,6.6862915 9,10 C9,13.3137085 11.6862915,16 15,16 C18.3137085,16 21,13.3137085 21,10 C21,6.6862915 18.3137085,4 15,4 Z" id="形状结合"></path>
            </g>
        </g>
    </g>
</svg>