<?xml version="1.0" encoding="UTF-8"?>
<svg width="30px" height="30px" viewBox="0 0 30 30" version="1.1" xmlns="http://www.w3.org/2000/svg" xmlns:xlink="http://www.w3.org/1999/xlink">
    <g id="页面-1" stroke="none" stroke-width="1" fill="none" fill-rule="evenodd">
        <g id="登录备份" transform="translate(-1053.000000, -261.000000)" fill="#606266" fill-rule="nonzero">
            <g id="编组-8" transform="translate(1053.000000, 261.000000)">
                <path d="M15.529032,3.14510593 L24.029032,5.4765345 C24.8977708,5.71481714 25.5,6.50447206 25.5,7.40529709 L25.5,15.2519369 C25.5,18.9446806 23.4875919,22.3439496 20.25,24.12 L15.9619137,26.4723216 C15.3627539,26.8010036 14.6372461,26.8010036 14.0380863,26.4723216 L9.75,24.12 C6.5124081,22.3439496 4.5,18.9446806 4.5,15.2519369 L4.5,7.40529709 C4.5,6.50447206 5.10222918,5.71481714 5.97096798,5.4765345 L14.470968,3.14510593 C14.817261,3.05012271 15.182739,3.05012271 15.529032,3.14510593 Z M15,5.07386851 L6.5,7.40529709 L6.5,15.2519369 C6.5,18.1189448 8.01201235,20.765452 10.4636401,22.2245912 L10.7119137,22.3665115 L15,24.7188331 L19.2880863,22.3665115 C21.8017191,20.9876044 23.3948163,18.3891004 23.4949812,15.5378669 L23.5,15.2519369 L23.5,7.40529709 L15,5.07386851 Z M20.1051673,11.2507208 L20.1923882,11.3284271 C20.5550179,11.6910568 20.58092,12.2629022 20.2700945,12.6554199 L20.1923882,12.7426407 L15.2426407,17.6923882 C14.880011,18.0550179 14.3081656,18.08092 13.9156479,17.7700945 L13.8284271,17.6923882 L10.2928932,14.1568542 C9.90236893,13.76633 9.90236893,13.133165 10.2928932,12.7426407 C10.6555229,12.380011 11.2273683,12.3541089 11.619886,12.6649343 L11.7071068,12.7426407 L14.5346278,15.5710678 L18.7781746,11.3284271 C19.1408043,10.9657974 19.7126497,10.9398953 20.1051673,11.2507208 Z" id="形状结合"></path>
            </g>
        </g>
    </g>
</svg>