<?xml version="1.0" encoding="UTF-8"?>
<svg width="24px" height="24px" viewBox="0 0 24 24" version="1.1" xmlns="http://www.w3.org/2000/svg" xmlns:xlink="http://www.w3.org/1999/xlink">
    <g id="首页" stroke="none" stroke-width="1" fill="none" fill-rule="evenodd">
        <g id="首页一" transform="translate(-1490.000000, -889.000000)">
            <g id="编组-9" transform="translate(1490.000000, 885.000000)">
                <g id="编组-15" transform="translate(0.000000, 4.000000)">
                    <rect id="矩形" fill="#2172FF" x="2" y="2" width="20" height="20" rx="4"></rect>
                    <path d="M12,15.5 L9.67897539,16.7202349 C9.1901308,16.9772357 8.58550365,16.7892891 8.32850284,16.3004446 C8.22616377,16.1057841 8.19084909,15.882816 8.22802594,15.6660584 L8.67130219,13.0815595 L8.67130219,13.0815595 L6.79355384,11.2512072 C6.39807026,10.865706 6.38997795,10.2325927 6.77547916,9.83710915 C6.92898777,9.67962551 7.13013018,9.57713834 7.34776721,9.54551383 L9.94275162,9.16844052 L9.94275162,9.16844052 L11.1032639,6.81698575 C11.3476862,6.32173209 11.9473121,6.11839309 12.4425657,6.36281539 C12.6397783,6.46014562 12.7994058,6.61977315 12.8967361,6.81698575 L14.0572484,9.16844052 L14.0572484,9.16844052 L16.6522328,9.54551383 C17.1987777,9.62493144 17.5774591,10.1323743 17.4980415,10.6789192 C17.466417,10.8965562 17.3639298,11.0976986 17.2064462,11.2512072 L15.3286978,13.0815595 L15.3286978,13.0815595 L15.7719741,15.6660584 C15.8653351,16.2103948 15.4997472,16.7273507 14.9554108,16.8207118 C14.7386532,16.8578886 14.5156851,16.8225739 14.3210246,16.7202349 L12,15.5 L12,15.5 Z" id="星形" fill="#FFFFFF"></path>
                </g>
            </g>
        </g>
    </g>
</svg>