<?xml version="1.0" encoding="UTF-8"?>
<svg width="34px" height="34px" viewBox="0 0 34 34" version="1.1" xmlns="http://www.w3.org/2000/svg" xmlns:xlink="http://www.w3.org/1999/xlink">
    <title>删除备份</title>
    <g id="素材管理" stroke="none" stroke-width="1" fill="none" fill-rule="evenodd">
        <g id="素材管理-语音" transform="translate(-1736.000000, -390.000000)">
            <g id="编组" transform="translate(659.000000, 276.000000)">
                <g id="编组-8" transform="translate(0.000000, 102.000000)">
                    <g id="下载" transform="translate(1077.000000, 12.000000)">
                        <circle id="椭圆形备份" stroke="#E5E5E5" fill="#FFFFFF" cx="17" cy="17" r="14.5"></circle>
                        <g id="编组-13" transform="translate(9.000000, 9.000000)">
                            <rect id="矩形" fill="#D8D8D8" opacity="0" x="0" y="0" width="16" height="16"></rect>
                            <rect id="矩形" fill="#595959" fill-rule="nonzero" x="1" y="14" width="14" height="1.5" rx="0.75"></rect>
                            <path d="M8,0.337640625 C8.41421356,0.337640625 8.75,0.673427063 8.75,1.08764062 L8.74990296,10.2566406 L12.0852814,6.92157309 C12.3781746,6.62867987 12.8530483,6.62867987 13.1459415,6.92157309 C13.4388348,7.2144663 13.4388348,7.68934004 13.1459415,7.98223326 L8.54974747,12.5784273 C8.38793933,12.7402355 8.17059104,12.8126531 7.95906864,12.7956802 C7.78285422,12.8100151 7.60224889,12.762133 7.45315482,12.651987 L7.36776695,12.5784273 L2.77157288,7.98223326 C2.47867966,7.68934004 2.47867966,7.2144663 2.77157288,6.92157309 C3.03783944,6.65530652 3.45450312,6.63110047 3.74811461,6.84895493 L3.83223305,6.92157309 L7.24990296,10.3386406 L7.25,1.08764062 C7.25,0.673427063 7.58578644,0.337640625 8,0.337640625 Z" id="形状结合" fill="#595959" fill-rule="nonzero"></path>
                        </g>
                    </g>
                </g>
            </g>
        </g>
    </g>
</svg>