<?xml version="1.0" encoding="UTF-8"?>
<svg width="16px" height="17px" viewBox="0 0 16 17" version="1.1" xmlns="http://www.w3.org/2000/svg" xmlns:xlink="http://www.w3.org/1999/xlink">
    <title>矩形备份 5</title>
    <g id="素材管理" stroke="none" stroke-width="1" fill="none" fill-rule="evenodd">
        <g id="素材管理-图片" transform="translate(-649.000000, -167.000000)" fill-rule="nonzero">
            <g id="button/功能icon/搜索备份" transform="translate(629.000000, 158.000000)">
                <g id="编组-3" transform="translate(20.000000, 7.000000)">
                    <g id="导出-进入-出口" transform="translate(8.000000, 11.000000) rotate(-90.000000) translate(-8.000000, -11.000000) translate(0.000000, 3.000000)">
                        <rect id="矩形" fill="#000000" opacity="0" x="0" y="0" width="15.7994214" height="15.7994214"></rect>
                        <path d="M8.09127869,10.2696239 C8.52576278,10.2696239 8.88124976,10.6251109 8.88124976,11.059595 L8.88124976,13.4295082 C8.88124976,14.7329605 7.81478881,15.7994214 6.51133655,15.7994214 L2.5614812,15.7994214 C1.25802893,15.7994214 0.191567985,14.7329605 0.191567985,13.4295082 L0.191567985,2.36991321 C0.191567985,1.06646095 1.25802893,0 2.5614812,0 L6.51133655,0 C7.81478881,0 8.88124976,1.06646095 8.88124976,2.36991321 L8.88124976,4.73982642 C8.88124976,5.17431051 8.52576278,5.52979749 8.09127869,5.52979749 C7.6567946,5.52979749 7.30130762,5.17431051 7.30130762,4.73982642 L7.30130762,2.36991321 C7.30130762,1.93542912 6.94582064,1.57994214 6.51133655,1.57994214 L2.5614812,1.57994214 C2.12699711,1.57994214 1.77151013,1.93542912 1.77151013,2.36991321 L1.77151013,13.4295082 C1.77151013,13.8639923 2.12699711,14.2194793 2.5614812,14.2194793 L6.51133655,14.2194793 C6.94582064,14.2194793 7.30130762,13.8639923 7.30130762,13.4295082 L7.30130762,11.059595 C7.30130762,10.6251109 7.6567946,10.2696239 8.09127869,10.2696239 Z M15.8329952,8.37369335 C15.8033713,8.40331726 15.783622,8.43294118 15.7737473,8.44281581 L12.6138631,11.6027001 C12.4558689,11.7508197 12.2583761,11.8298168 12.0510087,11.8298168 C11.8436413,11.8298168 11.6461485,11.7606943 11.4881543,11.6027001 C11.1820405,11.2965863 11.1820405,10.7929797 11.4881543,10.486866 L13.2952131,8.67980714 L4.14142334,8.67980714 C3.70693925,8.67980714 3.35145227,8.32432015 3.35145227,7.88983607 C3.35145227,7.45535198 3.70693925,7.099865 4.14142334,7.099865 L13.3050878,7.099865 L11.4980289,5.29280617 C11.1919151,4.98669238 11.1919151,4.48308582 11.4980289,4.17697203 C11.8041427,3.87085824 12.3077493,3.87085824 12.6138631,4.17697203 L15.7737473,7.33685632 C15.8132459,7.36648023 15.8428698,7.41585342 15.8724937,7.45535198 L15.9021176,7.51459981 C15.9119923,7.54422372 15.9317416,7.563973 15.9416162,7.59359691 C15.9514908,7.62322083 15.9514908,7.64297011 15.9613655,7.67259402 C15.9712401,7.70221794 15.9811148,7.72196721 15.9811148,7.74171649 C16.000864,7.84046287 16.000864,7.9490839 15.9811148,8.04783028 C15.9811148,8.07745419 15.9712401,8.09720347 15.9613655,8.11695275 C15.9514908,8.14657666 15.9416162,8.16632594 15.9317416,8.19594986 C15.9218669,8.22557377 15.9021176,8.24532305 15.892243,8.27494696 L15.8626191,8.33419479 L15.8626191,8.34406943 L15.8329952,8.37369335 L15.8329952,8.37369335 Z" id="形状" fill="#FFFFFF"></path>
                    </g>
                </g>
            </g>
        </g>
    </g>
</svg>