<?xml version="1.0" encoding="UTF-8"?>
<svg width="16px" height="16px" viewBox="0 0 16 16" version="1.1" xmlns="http://www.w3.org/2000/svg" xmlns:xlink="http://www.w3.org/1999/xlink">
    <title>编组 13</title>
    <g id="消息群发" stroke="none" stroke-width="1" fill="none" fill-rule="evenodd">
        <g id="消息群发-新增群发-图片" transform="translate(-1047.000000, -603.000000)">
            <g id="编组-5" transform="translate(600.000000, 330.000000)">
                <g id="编组-14" transform="translate(139.000000, 227.000000)">
                    <g id="编组-12" transform="translate(110.000000, 35.000000)">
                        <g id="Tabs/_Resource/CardTabs/Medium+Selected备份-6" transform="translate(171.000000, 0.000000)">
                            <g id="编组-6" transform="translate(27.000000, 7.000000)">
                                <g id="编组-13" transform="translate(8.000000, 12.000000) scale(1, -1) translate(-8.000000, -12.000000) translate(0.000000, 3.000000)">
                                    <rect id="矩形" fill="#D8D8D8" opacity="0" x="0" y="1" width="16" height="16"></rect>
                                    <rect id="矩形" fill="#2172FF" fill-rule="nonzero" x="1" y="15" width="14" height="1.5" rx="0.75"></rect>
                                    <path d="M8,1.33764062 C8.41421356,1.33764062 8.75,1.67342706 8.75,2.08764062 L8.74990296,11.2566406 L12.0852814,7.92157309 C12.3781746,7.62867987 12.8530483,7.62867987 13.1459415,7.92157309 C13.4388348,8.2144663 13.4388348,8.68934004 13.1459415,8.98223326 L8.54974747,13.5784273 C8.38793933,13.7402355 8.17059104,13.8126531 7.95906864,13.7956802 C7.78285422,13.8100151 7.60224889,13.762133 7.45315482,13.651987 L7.36776695,13.5784273 L2.77157288,8.98223326 C2.47867966,8.68934004 2.47867966,8.2144663 2.77157288,7.92157309 C3.03783944,7.65530652 3.45450312,7.63110047 3.74811461,7.84895493 L3.83223305,7.92157309 L7.24990296,11.3386406 L7.25,2.08764062 C7.25,1.67342706 7.58578644,1.33764062 8,1.33764062 Z" id="形状结合" fill="#2172FF" fill-rule="nonzero"></path>
                                </g>
                            </g>
                        </g>
                    </g>
                </g>
            </g>
        </g>
    </g>
</svg>