<?xml version="1.0" encoding="UTF-8"?>
<svg width="16px" height="16px" viewBox="0 0 16 16" version="1.1" xmlns="http://www.w3.org/2000/svg" xmlns:xlink="http://www.w3.org/1999/xlink">
    <title>编组 2备份</title>
    <g id="消息群发" stroke="none" stroke-width="1" fill="none" fill-rule="evenodd">
        <g id="消息群发-新增群发-图片" transform="translate(-883.000000, -602.000000)">
            <g id="编组-5" transform="translate(600.000000, 330.000000)">
                <g id="编组-14" transform="translate(139.000000, 227.000000)">
                    <g id="编组-12" transform="translate(110.000000, 35.000000)">
                        <g id="Tabs/_Resource/CardTabs/Medium+Selected备份-5" transform="translate(7.000000, 0.000000)">
                            <g id="编组-6" transform="translate(27.000000, 7.000000)">
                                <g id="编组-2备份" transform="translate(0.000000, 3.000000)">
                                    <rect id="矩形" stroke="#979797" stroke-width="0.5" fill="#D8D8D8" opacity="0" x="0.25" y="0.25" width="15.5" height="15.5"></rect>
                                    <path d="M7.8756687,1.42580752 C8.08123141,1.31580236 8.32297105,1.30396305 8.53627358,1.3901764 L8.61480284,1.4271024 L13.8060334,4.22848388 C13.9426996,4.30223403 14.0547638,4.41510016 14.128171,4.55292661 C14.3219258,4.91671315 14.2063508,5.36498545 13.8730377,5.58981736 L13.8080123,5.62927973 L12.0657126,6.57572254 L13.8044236,7.5140364 C13.9410897,7.58778654 14.0531539,7.70065268 14.1265611,7.83847913 C14.295446,8.15557085 14.2306636,8.54237054 13.9496784,8.80901547 L13.8861644,8.86424538 L13.8064024,8.91483224 L12.0657126,9.86049394 L13.8044236,10.7988078 C13.918312,10.8602663 14.0151158,10.9488886 14.0867012,11.0564829 L14.1265611,11.1232505 C14.295446,11.4403423 14.2306636,11.8271419 13.9496784,12.0937869 L13.8861644,12.1490168 L13.8064024,12.1996036 L8.61516911,15.0202501 C8.45402594,15.1078069 8.26892979,15.1353195 8.05880227,15.0885832 L7.96721194,15.063966 L7.87208276,15.0215569 L2.63724174,12.2009119 C2.49888571,12.1263627 2.38574035,12.011757 2.31232504,11.8718015 C2.14542842,11.5536376 2.21263086,11.1672593 2.49527959,10.9024141 L2.55913803,10.8475909 L2.63921087,10.7975167 L4.38961551,9.86049394 L2.63724174,8.9161405 C2.52194504,8.85401617 2.42415577,8.76407479 2.35227631,8.65482724 L2.31232504,8.58703005 C2.14542842,8.26886616 2.21263086,7.88248791 2.49527959,7.61764269 L2.55913803,7.56281949 L2.63921087,7.51274526 L4.39118913,6.57466293 L2.63885159,5.63058799 C2.52355489,5.56846365 2.42576562,5.47852227 2.35388616,5.36927472 L2.31393489,5.30147754 C2.12246113,4.93646094 2.24083996,4.48893567 2.57555375,4.26623681 L2.64082493,4.22719049 L7.8756687,1.42580752 Z M5.46970892,10.4812322 L3.56353583,11.4995113 L8.23927247,14.0213681 L12.8803896,11.5011007 L10.9910017,10.4822918 L8.61516911,11.7742432 C8.43482091,11.872235 8.22602571,11.8943077 8.03283229,11.8403846 L7.95111874,11.8126217 L7.87208615,11.7755518 L5.46970892,10.4812322 Z M5.46970892,7.19646079 L3.56353583,8.21473992 L8.23927247,10.7365967 L12.8803896,8.21632933 L10.9910017,7.19752039 L8.61516911,8.48947178 C8.43482091,8.58746362 8.22602571,8.60953629 8.03283229,8.55561319 L7.95111874,8.52785026 L7.87208615,8.49078039 L5.46970892,7.19646079 Z M8.24349138,2.42824097 L3.56775474,4.92996526 L8.24349138,7.44917301 L12.8798876,4.92996526 L8.24349138,2.42824097 Z" id="形状" fill="#2172FF" fill-rule="nonzero"></path>
                                </g>
                            </g>
                        </g>
                    </g>
                </g>
            </g>
        </g>
    </g>
</svg>