<?xml version="1.0" encoding="UTF-8"?>
<svg width="16px" height="16px" viewBox="0 0 16 16" version="1.1" xmlns="http://www.w3.org/2000/svg" xmlns:xlink="http://www.w3.org/1999/xlink">
    <title>同步</title>
    <g id="公众号列表" stroke="none" stroke-width="1" fill="none" fill-rule="evenodd">
        <g id="公众号列表-展开" transform="translate(-1606.000000, -266.000000)" fill-rule="nonzero">
            <g id="Tabs/_Resource/CardTabs/Medium+Selected备份-3" transform="translate(1588.000000, 256.000000)">
                <g id="编组-6" transform="translate(18.000000, 7.000000)">
                    <g id="同步" transform="translate(0.000000, 3.000000)">
                        <rect id="矩形" fill="#000000" opacity="0" x="0" y="0" width="16" height="16"></rect>
                        <path d="M5.48391479,8.18021478 C5.59531382,8.29401752 5.656897,8.44743897 5.65509637,8.60667745 C5.65329575,8.76591593 5.58825906,8.91790568 5.47431514,9.02916044 L4.07216697,10.4000727 L13.4000222,10.4000727 C13.7313808,10.4000727 14,10.6686846 14,11.0000343 C14,11.3313839 13.7313808,11.5999959 13.4000222,11.5999959 L4.07216697,11.5999959 L5.47431514,12.9709081 C5.71123653,13.2026872 5.71540012,13.5826388 5.48361478,13.8195538 C5.25182945,14.0564688 4.87186757,14.0606322 4.63494617,13.8288532 L2.18103687,11.4290068 C2.06528814,11.3162948 2,11.1615925 2,11.0000343 C2,10.8384761 2.06528814,10.6837738 2.18103687,10.5710617 L4.63494617,8.17121536 C4.74875198,8.05981934 4.90217758,7.99823783 5.06142037,8 C5.22066316,8.00183898 5.37265702,8.0668739 5.48391479,8.18081474 L5.48391479,8.18021478 Z M10.5167963,2.17895281 C10.7281035,1.96470154 11.0674974,1.93975636 11.3084466,2.12076714 L11.3648217,2.16945311 L13.8189376,4.54437877 C14.0378952,4.75537223 14.0611624,5.09576864 13.8729138,5.33404156 L13.8189376,5.3934147 L11.3648217,7.76834036 C11.2271389,7.94529002 11.000866,8.03087552 10.7790769,7.9898926 C10.5572877,7.94890969 10.3774362,7.78827923 10.3135014,7.57407401 C10.2495666,7.35986879 10.3123452,7.12826202 10.4760143,6.97452146 L10.5269918,6.91930444 L11.9279729,5.56262815 L2.6044914,5.56262815 C2.28509101,5.56512756 2.0197552,5.31936323 2.00104565,5.00369327 C1.9823361,4.68802331 2.21681851,4.41322521 2.53432239,4.37872771 L2.6044914,4.37516532 L11.9279729,4.37516532 L10.5269918,3.01848904 C10.2900266,2.78943373 10.2854622,2.41358195 10.5167963,2.17895281 L10.5167963,2.17895281 Z" id="形状" fill="#2172FF"></path>
                    </g>
                </g>
            </g>
        </g>
    </g>
</svg>