<?xml version="1.0" standalone="no"?><!DOCTYPE svg PUBLIC "-//W3C//DTD SVG 1.1//EN" "http://www.w3.org/Graphics/SVG/1.1/DTD/svg11.dtd"><svg t="1624275846289" class="icon" viewBox="0 0 1024 1024" version="1.1" xmlns="http://www.w3.org/2000/svg" p-id="3302" xmlns:xlink="http://www.w3.org/1999/xlink" width="200" height="200"><defs><style type="text/css"></style></defs><path d="M912 896a48 48 0 1 1 0 96H112a48 48 0 1 1 0-96h800zM512 21.632a48 48 0 0 1 48 48v586.816l213.44-213.44a48 48 0 1 1 67.84 67.84L547.2 804.992a47.808 47.808 0 0 1-31.04 14.016l-6.784-0.064a47.936 47.936 0 0 1-32.384-9.216l-5.44-4.736-294.144-294.144a48 48 0 0 1 62.464-72.512l5.376 4.672 218.752 218.688V69.632A48 48 0 0 1 512 21.632z"  p-id="3303"></path></svg>