<?xml version="1.0" encoding="UTF-8"?>
<svg width="15px" height="15px" viewBox="0 0 15 15" version="1.1" xmlns="http://www.w3.org/2000/svg" xmlns:xlink="http://www.w3.org/1999/xlink">
    <g id="客户SOP" stroke="none" stroke-width="1" fill="none" fill-rule="evenodd" stroke-linejoin="round">
        <g id="icon" transform="translate(-509.000000, -119.000000)" stroke="#3F55FF" stroke-width="1.4">
            <g id="总点击次数" transform="translate(509.631120, 119.631391)">
                <g id="形状结合-2" transform="translate(1.868880, 1.868609)">
                    <path d="M1.31649907,0.0513167019 L9.85673045,2.8980605 C10.3806738,3.07270827 10.6638338,3.63902824 10.489186,4.16297156 C10.4053172,4.41457801 10.2249331,4.62256256 9.98771628,4.74117098 L7.996,5.736 L9.9539031,7.69313092 C10.2272701,7.96649792 10.2272701,8.40971341 9.9539031,8.68308041 L8.82253225,9.81445126 C8.54916525,10.0878183 8.10594976,10.0878183 7.83258276,9.81445126 L5.829,7.811 L4.74144229,9.98744498 C4.49445304,10.4814235 3.89378,10.6816478 3.3998015,10.4346586 C3.16258466,10.3160502 2.98220062,10.1080656 2.8983318,9.85645915 L0.0515880044,1.31622777 C-0.123059768,0.792284448 0.160100219,0.225964475 0.684043536,0.0513167019 C0.889310344,-0.0171055673 1.11123226,-0.0171055673 1.31649907,0.0513167019 Z" id="形状结合"></path>
                </g>
            </g>
        </g>
    </g>
</svg>