<?xml version="1.0" encoding="UTF-8"?>
<svg width="14px" height="15px" viewBox="0 0 14 15" version="1.1" xmlns="http://www.w3.org/2000/svg" xmlns:xlink="http://www.w3.org/1999/xlink">
    <g id="客户SOP" stroke="none" stroke-width="1" fill="none" fill-rule="evenodd">
        <g id="icon" transform="translate(-379.000000, -119.000000)" stroke="#FF6D0D" stroke-width="1.4">
            <g id="总触达用户" transform="translate(379.000000, 119.500000)">
                <g transform="translate(0.500000, 0.500000)" id="矩形">
                    <path d="M4,0.7 C4.35898509,0.7 4.68398509,0.845507456 4.91923882,1.08076118 C5.15449254,1.31601491 5.3,1.64101491 5.3,2 L5.3,2 L5.3,5.3 L2,5.3 C1.64101491,5.3 1.31601491,5.15449254 1.08076118,4.91923882 C0.845507456,4.68398509 0.7,4.35898509 0.7,4 L0.7,4 L0.7,2 C0.7,1.64101491 0.845507456,1.31601491 1.08076118,1.08076118 C1.31601491,0.845507456 1.64101491,0.7 2,0.7 L2,0.7 Z"></path>
                    <path d="M11,0.7 C11.3589851,0.7 11.6839851,0.845507456 11.9192388,1.08076118 C12.1544925,1.31601491 12.3,1.64101491 12.3,2 L12.3,2 L12.3,4 C12.3,4.35898509 12.1544925,4.68398509 11.9192388,4.91923882 C11.6839851,5.15449254 11.3589851,5.3 11,5.3 L11,5.3 L7.7,5.3 L7.7,2 C7.7,1.64101491 7.84550746,1.31601491 8.08076118,1.08076118 C8.31601491,0.845507456 8.64101491,0.7 9,0.7 L9,0.7 Z"></path>
                    <path d="M5.3,7.7 L5.3,11 C5.3,11.3589851 5.15449254,11.6839851 4.91923882,11.9192388 C4.68398509,12.1544925 4.35898509,12.3 4,12.3 L4,12.3 L2,12.3 C1.64101491,12.3 1.31601491,12.1544925 1.08076118,11.9192388 C0.845507456,11.6839851 0.7,11.3589851 0.7,11 L0.7,11 L0.7,9 C0.7,8.64101491 0.845507456,8.31601491 1.08076118,8.08076118 C1.31601491,7.84550746 1.64101491,7.7 2,7.7 L2,7.7 L5.3,7.7 Z"></path>
                    <path d="M11,7.7 C11.3589851,7.7 11.6839851,7.84550746 11.9192388,8.08076118 C12.1544925,8.31601491 12.3,8.64101491 12.3,9 L12.3,9 L12.3,11 C12.3,11.3589851 12.1544925,11.6839851 11.9192388,11.9192388 C11.6839851,12.1544925 11.3589851,12.3 11,12.3 L11,12.3 L9,12.3 C8.64101491,12.3 8.31601491,12.1544925 8.08076118,11.9192388 C7.84550746,11.6839851 7.7,11.3589851 7.7,11 L7.7,11 L7.7,7.7 Z"></path>
                </g>
            </g>
        </g>
    </g>
</svg>